<?xml version="1.0" encoding="UTF-8"?>
<svg id="Calque_2" data-name="Calque 2" xmlns="http://www.w3.org/2000/svg" viewBox="0 0 465 108">
  <defs>
    <style>
      .cls-1 {
        fill: #0e0e0e;
      }

      .cls-1, .cls-2 {
        stroke-width: 0px;
      }

      .cls-2 {
        fill: #2616ea;
      }
    </style>
  </defs>
  <g id="Calque_1-2" data-name="Calque 1">
    <g>
      <path class="cls-1" d="m397.23,46.56c3.65-1.94,7.39-3.25,11.44-3.44,6.86-.32,10.6,2.65,10.79,9.43.28,9.95.07,19.92.07,30.19h-9.68v-29.49c-3.81-3.05-7.21-2.32-11.06-1.92v31.38h-9.59c-.82-9.76.42-19.87-.63-29.72-3.59-2.64-7.09-2.27-11.11-1.33v31.14h-9.4c-.64-12.91.61-25.69-.99-38.81,3.75.16,7.56-2.57,10.47,1.82,6.61-2.71,13.25-4.76,19.67.75Z"/>
      <path class="cls-1" d="m93.82,82.94h-11.74c-.69-2.28-1.38-4.48-2.01-6.7-.58-2.05-1.1-4.13-1.76-6.61-5.67-.45-11.22-.39-17.09.01-1.26,4.49-2.45,8.76-3.69,13.19h-10.22c5.3-18.33,10.52-36.41,15.86-54.9,4.71.44,9.33-1.44,14.38-.78,5.42,18.55,10.8,36.99,16.28,55.78Zm-23.47-44l-1.05-.08c-1.94,7.3-3.88,14.6-5.9,22.19,4.42.45,8.31.47,12.77-.01-2-7.58-3.91-14.84-5.82-22.09Z"/>
      <path class="cls-1" d="m163.05,81.96V31c6.64-.11,13.07-1.89,19.7-.78,5.82.97,11.17,2.58,13.1,9.01,1.67,5.56-.31,9.93-6.71,15.12,3.91,2.24,7.83,4.39,8.93,9.2,1.85,8.08-2,15.36-9.8,18.37-6.6,2.54-17.08,2.6-25.23.04Zm21.78-6.11c5.92-9.22,2.93-14.63-6.06-17.82-.29-1.91-.48-3.85.02-5.73,6.19-3,7.82-5.33,6.73-9.53-1.09-4.15-5.21-5.92-12.04-5.09v37.09c3.8,1.46,7.46,1.11,11.35,1.08Z"/>
      <path class="cls-1" d="m271.42,67.67c-2.92-2.53-5.17-5.06-5.63-8.83-1.26-10.27,6.15-17.24,17.14-15.45,4.66.76,9.11,1.48,13.28-.56,1.6.98,1.83,2.31,2.27,3.33-.63,2.11-2.72,2.05-4.1,3.43,1.08,5.01,2.16,10.33-1.84,14.82-3.87,4.35-9.2,4.88-14.31,4.87-1.1,1.07-.71,2.11-.86,3.07,1.62,1.17,3.53,1.15,5.27,1.41,3.13.48,6.22,1.03,9.19,2.13,6.53,2.42,8.23,7.73,4.35,13.46-4.83,7.13-17.24,10.61-25.1,7.04-6.98-3.17-8.83-11.03-3.99-17.02.73-.9,1.56-1.72,2.45-2.69.59-2.82,1.2-5.73,1.89-9.01Zm4.92-18.19c-1.84,3.13-1.77,6.62-1.14,10.02.78,4.16,5.19,6.01,8.27,3.72,2.59-1.93,3.67-8.67,1.92-11.98-1.56-2.95-4.45-3.53-9.05-1.76Zm-1.3,30.72c-2.13,2.77-3.48,5.4-1.27,8.34,2.09,2.79,5.23,2.76,8.14,1.88,3.37-1.02,6.33-2.82,7.3-6.89-4.51-2.34-9.28-3.02-14.17-3.33Z"/>
      <path class="cls-1" d="m326,43.93h9.35c0,5.84,0,11.58,0,17.33,0,1.67.02,3.33.01,5-.06,9.76,1.92,11.27,11.54,8.42v-30.41c3.36-.94,6.42-.65,9.64-.23.87,12.91-.94,25.76,1.57,38.82-2.95.32-5.68.62-7.75.84-2.59-.46-1.86-2.66-3.21-3.65-2.87,2-6.13,3.21-9.6,3.75-5.96.93-11.15-2.38-11.42-8.29-.48-10.43-.13-20.89-.13-31.57Z"/>
      <path class="cls-2" d="m148.25,89.83c-2.94.72-5.7.75-8.55.45-1.65-3.58.57-7.36-.86-11.09-6.35-.97-12.8.03-19.36-.46-.8-2.64-.35-5.1-.36-7.63,6.32-9.14,12.65-18.3,18.97-27.45,3.27-.8,6.37-.37,10.03-.36.87,8.91-.59,17.67.35,26.31,1.97,1.44,4.43,0,6.42,1.5.7,2.32.28,4.73-.24,7.06-1.64,1.57-3.66.42-5.6,1.14-1.63,3.13.64,6.75-.79,10.52Zm-19.4-19.74c4.03.08,7.38.97,10.52-.45v-14.64c-3.83,5.5-6.99,10.03-10.52,15.09Z"/>
      <path class="cls-1" d="m235.53,64.4c-6.7.3-13.48.61-20.24.92-.7,8.72,1.84,10.29,18.92,11.74.85,1.58-.09,3.17.26,4.83-6.27,2.15-12.37,2.47-18.43.83-7.11-1.92-11.18-8.78-11.22-18.09-.05-11.78,3.45-18.27,11.13-20.67,13.95-4.36,22.54,4.43,19.57,20.44Zm-18.75-13.87c-1.26,2.74-2.41,5.57-1.63,9.13,4.02-.22,7.76-.42,11.68-.64.28-3.32.53-6.25-1.93-8.6-2.49-1.44-5.02-1.6-8.12.11Z"/>
      <path class="cls-1" d="m111.38,82.93h-10.43V28.09c3.36-.75,6.72-1.43,10.43-.94v55.78Z"/>
      <path class="cls-1" d="m260.38,82.75c-1.26.28-2.53.6-3.82.84-7.33,1.32-11.32-1.67-11.41-9.18-.18-14.81-.05-29.63-.05-44.71,2.78-1.02,5.73-.83,9.47-1.1v46.34c2.06,1.92,4.42,1.36,6.13,2.16.35,1.98.46,3.77-.31,5.66Z"/>
      <path class="cls-1" d="m315.02,82.9h-8.77v-38.92h8.77v38.92Z"/>
      <path class="cls-1" d="m305.95,29.04h9.12v8.57c-2.81.79-5.57.18-8.47.42-.89-2.96-.41-5.74-.65-8.99Z"/>
    </g>
  </g>
</svg>