<?xml version="1.0" encoding="utf-8"?>
<!-- Generator: Adobe Illustrator 21.1.0, SVG Export Plug-In . SVG Version: 6.00 Build 0)  -->
<svg version="1.1" id="Layer_1" xmlns="http://www.w3.org/2000/svg" xmlns:xlink="http://www.w3.org/1999/xlink" x="0px" y="0px"
	 viewBox="0 0 151.29 52.1" style="enable-background:new 0 0 151.29 52.1;" xml:space="preserve">
<style type="text/css">
	.st0{fill:#939598;}
	.st1{fill:#C40D42;}
	.st2{fill-rule:evenodd;clip-rule:evenodd;fill:#C40D42;}
</style>
<path class="st0" d="M24.93,20.46c0,7.71-4.41,11.78-12.04,11.78c-7.88,0-12.55-3.64-12.55-11.78V0.93H4.4v19.53
	c0,5.4,3.08,8.35,8.48,8.35c5.14,0,7.97-2.96,7.97-8.35V0.93h4.07V20.46z"/>
<polygon class="st1" points="31.09,0.93 35.38,0.93 45.96,27.75 56.5,0.93 60.78,0.93 60.78,31.52 57.87,31.52 57.87,5.08 
	57.78,5.08 47.33,31.52 44.59,31.52 34.09,5.08 34.01,5.08 34.01,31.52 31.09,31.52 "/>
<path class="st1" d="M79.63,0.28c9.6,0,14.39,7.58,14.39,15.94c0,8.35-4.8,15.94-14.39,15.94c-9.64,0-14.44-7.58-14.44-15.94
	C65.19,7.87,69.99,0.28,79.63,0.28 M79.63,29.67c8.05,0,11.48-6.77,11.48-13.45c0-6.68-3.43-13.45-11.48-13.45
	c-8.1,0-11.53,6.77-11.53,13.45C68.11,22.91,71.54,29.67,79.63,29.67"/>
<polygon class="st1" points="98.48,0.93 101.74,0.93 119.56,26.8 119.65,26.8 119.65,0.93 122.56,0.93 122.56,31.52 119.3,31.52 
	101.48,5.64 101.39,5.64 101.39,31.52 98.48,31.52 "/>
<path class="st1" d="M130.01,21.45c-0.13,6.3,4.41,8.23,9.98,8.23c3.21,0,8.1-1.76,8.1-6.21c0-3.47-3.47-4.84-6.3-5.53l-6.81-1.67
	c-3.6-0.9-6.9-2.61-6.9-7.37c0-3,1.93-8.61,10.54-8.61c6.04,0,11.35,3.26,11.31,9.51h-2.91c-0.17-4.67-4.03-7.03-8.36-7.03
	c-3.98,0-7.67,1.54-7.67,6.08c0,2.87,2.14,4.07,4.63,4.67l7.45,1.84c4.33,1.16,7.93,3.04,7.93,8.05c0,2.1-0.86,8.74-11.7,8.74
	c-7.24,0-12.55-3.26-12.21-10.71H130.01z"/>
<rect x="0.28" y="36.75" class="st2" width="24.59" height="2.59"/>
<path class="st0" d="M39.32,47.87c0,2.59-1.48,3.95-4.04,3.95c-2.64,0-4.21-1.22-4.21-3.95v-6.55h1.36v6.55
	c0,1.81,1.03,2.8,2.84,2.8c1.72,0,2.67-0.99,2.67-2.8v-6.55h1.36V47.87z"/>
<path class="st0" d="M41.15,44.15h1.15v1.18h0.03c0.52-0.92,1.35-1.35,2.41-1.35c1.95,0,2.56,1.12,2.56,2.71v4.88h-1.22v-5.03
	c0-0.91-0.58-1.49-1.51-1.49c-1.48,0-2.2,0.99-2.2,2.33v4.19h-1.22V44.15z"/>
<path class="st0" d="M50.27,42.81h-1.22v-1.49h1.22V42.81z M49.05,44.15h1.22v7.42h-1.22V44.15z"/>
<polygon class="st0" points="55.35,51.57 54.04,51.57 51.29,44.15 52.65,44.15 54.73,50.34 54.76,50.34 56.79,44.15 58.07,44.15 "/>
<path class="st0" d="M65.36,49.22c-0.33,1.64-1.51,2.53-3.17,2.53c-2.37,0-3.49-1.64-3.56-3.9c0-2.23,1.46-3.86,3.49-3.86
	c2.63,0,3.43,2.46,3.36,4.25h-5.56c-0.04,1.29,0.69,2.44,2.31,2.44c1,0,1.71-0.49,1.92-1.45H65.36z M64.18,47.15
	c-0.06-1.16-0.93-2.1-2.14-2.1c-1.28,0-2.04,0.96-2.13,2.1H64.18z"/>
<path class="st0" d="M66.54,44.15h1.15v1.57h0.03c0.59-1.19,1.41-1.78,2.73-1.74v1.29c-1.97,0-2.69,1.12-2.69,3v3.3h-1.22V44.15z"/>
<path class="st0" d="M71.95,49.23c0.04,1.09,0.99,1.44,2,1.44c0.76,0,1.8-0.17,1.8-1.1c0-0.95-1.21-1.11-2.43-1.38
	c-1.21-0.27-2.43-0.67-2.43-2.1c0-1.49,1.48-2.11,2.77-2.11c1.64,0,2.94,0.52,3.04,2.33h-1.22c-0.09-0.95-0.92-1.25-1.72-1.25
	c-0.73,0-1.58,0.2-1.58,0.95c0,0.88,1.29,1.02,2.43,1.29c1.22,0.27,2.43,0.67,2.43,2.11c0,1.77-1.65,2.34-3.16,2.34
	c-1.67,0-3.07-0.67-3.14-2.51H71.95z"/>
<path class="st0" d="M79.52,42.81H78.3v-1.49h1.22V42.81z M78.3,44.15h1.22v7.42H78.3V44.15z"/>
<path class="st0" d="M82.95,44.15h1.48v1.08h-1.48v4.61c0,0.56,0.16,0.66,0.92,0.66h0.56v1.08H83.5c-1.26,0-1.77-0.26-1.77-1.62
	v-4.72h-1.26v-1.08h1.26v-2.23h1.22V44.15z"/>
<path class="st0" d="M91.96,49.22c-0.33,1.64-1.51,2.53-3.17,2.53c-2.37,0-3.49-1.64-3.56-3.91c0-2.23,1.46-3.86,3.49-3.86
	c2.63,0,3.43,2.46,3.36,4.25h-5.56c-0.04,1.29,0.69,2.44,2.31,2.44c1.01,0,1.71-0.49,1.92-1.45H91.96z M90.78,47.15
	c-0.06-1.16-0.93-2.1-2.14-2.1c-1.28,0-2.04,0.96-2.12,2.1H90.78z M88.93,41.07h1.57l-1.88,2.05h-0.92L88.93,41.07z"/>
<path class="st0" d="M103.65,51.57h-1.22v-1.01h-0.03c-0.4,0.82-1.35,1.18-2.37,1.18c-2.28,0-3.42-1.81-3.42-3.91
	c0-2.1,1.12-3.86,3.39-3.86c0.76,0,1.85,0.29,2.4,1.16h0.03v-3.82h1.22V51.57z M100.2,50.67c1.64,0,2.27-1.41,2.27-2.8
	c0-1.47-0.66-2.81-2.34-2.81c-1.67,0-2.23,1.42-2.23,2.87C97.9,49.32,98.62,50.67,100.2,50.67"/>
<path class="st0" d="M111.7,49.22c-0.33,1.64-1.51,2.53-3.17,2.53c-2.37,0-3.49-1.64-3.56-3.9c0-2.23,1.46-3.86,3.49-3.86
	c2.63,0,3.43,2.46,3.36,4.25h-5.56c-0.04,1.29,0.69,2.44,2.31,2.44c1.01,0,1.71-0.49,1.92-1.45H111.7z M110.52,47.15
	c-0.06-1.16-0.93-2.1-2.14-2.1c-1.28,0-2.04,0.96-2.13,2.1H110.52z"/>
<polygon class="st0" points="116.99,41.32 118.85,41.32 122.09,49.94 125.33,41.32 127.2,41.32 127.2,51.57 125.91,51.57 
	125.91,43.04 125.88,43.04 122.67,51.57 121.51,51.57 118.31,43.04 118.28,43.04 118.28,51.57 116.99,51.57 "/>
<path class="st0" d="M132.31,43.98c2.35,0,3.6,1.71,3.6,3.89c0,2.17-1.25,3.88-3.6,3.88c-2.36,0-3.61-1.71-3.61-3.88
	C128.71,45.68,129.96,43.98,132.31,43.98 M132.31,50.67c1.28,0,2.31-1,2.31-2.8c0-1.81-1.04-2.81-2.31-2.81
	c-1.28,0-2.31,1.01-2.31,2.81C130,49.66,131.03,50.67,132.31,50.67"/>
<path class="st0" d="M137.19,44.15h1.15v1.18h0.03c0.52-0.92,1.35-1.35,2.41-1.35c1.95,0,2.56,1.12,2.56,2.71v4.88h-1.22v-5.03
	c0-0.91-0.58-1.49-1.51-1.49c-1.48,0-2.2,0.99-2.2,2.33v4.19h-1.22V44.15z"/>
<path class="st0" d="M145.67,49.23c0.04,1.09,0.99,1.44,2,1.44c0.76,0,1.8-0.17,1.8-1.1c0-0.95-1.21-1.11-2.43-1.38
	c-1.21-0.27-2.43-0.67-2.43-2.1c0-1.49,1.48-2.11,2.77-2.11c1.64,0,2.94,0.52,3.04,2.33h-1.22c-0.09-0.95-0.92-1.25-1.72-1.25
	c-0.73,0-1.58,0.2-1.58,0.95c0,0.88,1.29,1.02,2.43,1.29c1.22,0.27,2.43,0.67,2.43,2.11c0,1.77-1.65,2.34-3.16,2.34
	c-1.67,0-3.07-0.67-3.15-2.51H145.67z"/>
</svg>
