<?xml version="1.0" encoding="UTF-8" standalone="no"?>
<!-- Created with Inkscape (http://www.inkscape.org/) -->

<svg
   version="1.1"
   id="svg1"
   width="448.436"
   height="137.63867"
   viewBox="0 0 448.436 137.63867"
   sodipodi:docname="logo_spf_fr.svg"
   inkscape:version="1.3.2 (091e20e, 2023-11-25, custom)"
   xmlns:inkscape="http://www.inkscape.org/namespaces/inkscape"
   xmlns:sodipodi="http://sodipodi.sourceforge.net/DTD/sodipodi-0.dtd"
   xmlns="http://www.w3.org/2000/svg"
   xmlns:svg="http://www.w3.org/2000/svg">
  <defs
     id="defs1">
    <clipPath
       clipPathUnits="userSpaceOnUse"
       id="clipPath2">
      <path
         d="M 28.045,72.132 C 16.555,58.847 18.011,38.763 31.297,27.274 v 0 c 13.284,-11.49 33.368,-10.034 44.858,3.25 v 0 c 11.49,13.286 10.034,33.37 -3.251,44.86 v 0 c -6.014,5.201 -13.418,7.749 -20.79,7.749 v 0 C 43.199,83.132 34.334,79.404 28.045,72.132"
         transform="translate(-45.708901,-43.938701)"
         id="path2" />
    </clipPath>
    <clipPath
       clipPathUnits="userSpaceOnUse"
       id="clipPath4">
      <path
         d="M 28.045,72.132 C 16.555,58.847 18.011,38.763 31.297,27.274 v 0 c 13.284,-11.49 33.368,-10.034 44.858,3.25 v 0 c 11.49,13.286 10.034,33.37 -3.251,44.86 v 0 c -6.014,5.201 -13.418,7.749 -20.79,7.749 v 0 C 43.199,83.132 34.334,79.404 28.045,72.132"
         transform="translate(-83.8636,-49.898701)"
         id="path4" />
    </clipPath>
    <clipPath
       clipPathUnits="userSpaceOnUse"
       id="clipPath6">
      <path
         d="M 28.045,72.132 C 16.555,58.847 18.011,38.763 31.297,27.274 v 0 c 13.284,-11.49 33.368,-10.034 44.858,3.25 v 0 c 11.49,13.286 10.034,33.37 -3.251,44.86 v 0 c -6.014,5.201 -13.418,7.749 -20.79,7.749 v 0 C 43.199,83.132 34.334,79.404 28.045,72.132"
         transform="translate(-20.298201,-52.838901)"
         id="path6" />
    </clipPath>
    <clipPath
       clipPathUnits="userSpaceOnUse"
       id="clipPath8">
      <path
         d="M 28.045,72.132 C 16.555,58.847 18.011,38.763 31.297,27.274 v 0 c 13.284,-11.49 33.368,-10.034 44.858,3.25 v 0 c 11.49,13.286 10.034,33.37 -3.251,44.86 v 0 c -6.014,5.201 -13.418,7.749 -20.79,7.749 v 0 C 43.199,83.132 34.334,79.404 28.045,72.132"
         transform="translate(-20.289601,-50.101701)"
         id="path8" />
    </clipPath>
    <clipPath
       clipPathUnits="userSpaceOnUse"
       id="clipPath10">
      <path
         d="M 28.045,72.132 C 16.555,58.847 18.011,38.763 31.297,27.274 v 0 c 13.284,-11.49 33.368,-10.034 44.858,3.25 v 0 c 11.49,13.286 10.034,33.37 -3.251,44.86 v 0 c -6.014,5.201 -13.418,7.749 -20.79,7.749 v 0 C 43.199,83.132 34.334,79.404 28.045,72.132"
         transform="translate(-83.8723,-52.636002)"
         id="path10" />
    </clipPath>
    <clipPath
       clipPathUnits="userSpaceOnUse"
       id="clipPath12">
      <path
         d="M 0,103.229 H 336.327 V 0 H 0 Z"
         transform="translate(-105.625,-63.012301)"
         id="path12" />
    </clipPath>
    <clipPath
       clipPathUnits="userSpaceOnUse"
       id="clipPath14">
      <path
         d="M 0,103.229 H 336.327 V 0 H 0 Z"
         transform="translate(-117.4834,-63.734502)"
         id="path14" />
    </clipPath>
    <clipPath
       clipPathUnits="userSpaceOnUse"
       id="clipPath16">
      <path
         d="M 0,103.229 H 336.327 V 0 H 0 Z"
         transform="translate(-120.7554,-67.265701)"
         id="path16" />
    </clipPath>
    <clipPath
       clipPathUnits="userSpaceOnUse"
       id="clipPath18">
      <path
         d="M 0,103.229 H 336.327 V 0 H 0 Z"
         transform="translate(-129.8052,-62.592402)"
         id="path18" />
    </clipPath>
    <clipPath
       clipPathUnits="userSpaceOnUse"
       id="clipPath20">
      <path
         d="M 0,103.229 H 336.327 V 0 H 0 Z"
         transform="translate(-136.2129,-71.722702)"
         id="path20" />
    </clipPath>
    <clipPath
       clipPathUnits="userSpaceOnUse"
       id="clipPath22">
      <path
         d="M 0,103.229 H 336.327 V 0 H 0 Z"
         transform="translate(-148.2876,-64.123602)"
         id="path22" />
    </clipPath>
    <clipPath
       clipPathUnits="userSpaceOnUse"
       id="clipPath24">
      <path
         d="M 0,103.229 H 336.327 V 0 H 0 Z"
         transform="translate(-152.8066,-62.555701)"
         id="path24" />
    </clipPath>
    <clipPath
       clipPathUnits="userSpaceOnUse"
       id="clipPath26">
      <path
         d="M 0,103.229 H 336.327 V 0 H 0 Z"
         transform="translate(-163.1152,-64.129501)"
         id="path26" />
    </clipPath>
    <clipPath
       clipPathUnits="userSpaceOnUse"
       id="clipPath28">
      <path
         d="M 0,103.229 H 336.327 V 0 H 0 Z"
         transform="translate(-167.2944,-62.537202)"
         id="path28" />
    </clipPath>
    <clipPath
       clipPathUnits="userSpaceOnUse"
       id="clipPath30">
      <path
         d="M 0,103.229 H 336.327 V 0 H 0 Z"
         transform="translate(-170.5479,-63.771601)"
         id="path30" />
    </clipPath>
    <clipPath
       clipPathUnits="userSpaceOnUse"
       id="clipPath32">
      <path
         d="M 0,103.229 H 336.327 V 0 H 0 Z"
         transform="translate(-178.2397,-67.228602)"
         id="path32" />
    </clipPath>
    <clipPath
       clipPathUnits="userSpaceOnUse"
       id="clipPath34">
      <path
         d="M 0,103.229 H 336.327 V 0 H 0 Z"
         transform="translate(-182.6968,-62.555701)"
         id="path34" />
    </clipPath>
    <clipPath
       clipPathUnits="userSpaceOnUse"
       id="clipPath36">
      <path
         d="M 0,103.229 H 336.327 V 0 H 0 Z"
         transform="translate(-189.7959,-62.635801)"
         id="path36" />
    </clipPath>
    <clipPath
       clipPathUnits="userSpaceOnUse"
       id="clipPath38">
      <path
         d="M 0,103.229 H 336.327 V 0 H 0 Z"
         transform="translate(-105.625,-47.808701)"
         id="path38" />
    </clipPath>
    <clipPath
       clipPathUnits="userSpaceOnUse"
       id="clipPath40">
      <path
         d="M 0,103.229 H 336.327 V 0 H 0 Z"
         transform="translate(-115.8657,-56.519101)"
         id="path40" />
    </clipPath>
    <clipPath
       clipPathUnits="userSpaceOnUse"
       id="clipPath42">
      <path
         d="M 0,103.229 H 336.327 V 0 H 0 Z"
         transform="translate(-121.582,-47.438601)"
         id="path42" />
    </clipPath>
    <clipPath
       clipPathUnits="userSpaceOnUse"
       id="clipPath44">
      <path
         d="M 0,103.229 H 336.327 V 0 H 0 Z"
         transform="translate(-128.8789,-47.352101)"
         id="path44" />
    </clipPath>
    <clipPath
       clipPathUnits="userSpaceOnUse"
       id="clipPath46">
      <path
         d="M 0,103.229 H 336.327 V 0 H 0 Z"
         transform="translate(-134.8174,-48.555701)"
         id="path46" />
    </clipPath>
    <clipPath
       clipPathUnits="userSpaceOnUse"
       id="clipPath48">
      <path
         d="M 0,103.229 H 336.327 V 0 H 0 Z"
         transform="translate(-139.645,-48.567901)"
         id="path48" />
    </clipPath>
    <clipPath
       clipPathUnits="userSpaceOnUse"
       id="clipPath50">
      <path
         d="M 0,103.229 H 336.327 V 0 H 0 Z"
         transform="translate(-144.70701,-47.388701)"
         id="path50" />
    </clipPath>
    <clipPath
       clipPathUnits="userSpaceOnUse"
       id="clipPath52">
      <path
         d="M 0,103.229 H 336.327 V 0 H 0 Z"
         transform="translate(-151.1143,-56.519101)"
         id="path52" />
    </clipPath>
    <clipPath
       clipPathUnits="userSpaceOnUse"
       id="clipPath54">
      <path
         d="M 0,103.229 H 336.327 V 0 H 0 Z"
         transform="translate(-163.2627,-48.506401)"
         id="path54" />
    </clipPath>
    <clipPath
       clipPathUnits="userSpaceOnUse"
       id="clipPath56">
      <path
         d="M 0,103.229 H 336.327 V 0 H 0 Z"
         transform="translate(-167.6826,-47.432201)"
         id="path56" />
    </clipPath>
    <clipPath
       clipPathUnits="userSpaceOnUse"
       id="clipPath58">
      <path
         d="M 0,103.229 H 336.327 V 0 H 0 Z"
         transform="translate(-177.9111,-47.333601)"
         id="path58" />
    </clipPath>
    <clipPath
       clipPathUnits="userSpaceOnUse"
       id="clipPath60">
      <path
         d="M 0,103.229 H 336.327 V 0 H 0 Z"
         transform="translate(-185.37501,-48.530801)"
         id="path60" />
    </clipPath>
    <clipPath
       clipPathUnits="userSpaceOnUse"
       id="clipPath62">
      <path
         d="M 0,103.229 H 336.327 V 0 H 0 Z"
         transform="translate(-193.5918,-47.580201)"
         id="path62" />
    </clipPath>
    <clipPath
       clipPathUnits="userSpaceOnUse"
       id="clipPath64">
      <path
         d="M 0,103.229 H 336.327 V 0 H 0 Z"
         transform="translate(-201.4756,-55.963501)"
         id="path64" />
    </clipPath>
    <clipPath
       clipPathUnits="userSpaceOnUse"
       id="clipPath66">
      <path
         d="M 0,103.229 H 336.327 V 0 H 0 Z"
         transform="translate(-213.24121,-48.530801)"
         id="path66" />
    </clipPath>
    <clipPath
       clipPathUnits="userSpaceOnUse"
       id="clipPath68">
      <path
         d="M 0,103.229 H 336.327 V 0 H 0 Z"
         transform="translate(-216.50101,-48.567901)"
         id="path68" />
    </clipPath>
    <clipPath
       clipPathUnits="userSpaceOnUse"
       id="clipPath70">
      <path
         d="M 0,103.229 H 336.327 V 0 H 0 Z"
         transform="translate(-219.748,-52.062102)"
         id="path70" />
    </clipPath>
    <clipPath
       clipPathUnits="userSpaceOnUse"
       id="clipPath72">
      <path
         d="M 0,103.229 H 336.327 V 0 H 0 Z"
         transform="translate(-228.22951,-47.432201)"
         id="path72" />
    </clipPath>
    <clipPath
       clipPathUnits="userSpaceOnUse"
       id="clipPath74">
      <path
         d="M 0,103.229 H 336.327 V 0 H 0 Z"
         transform="translate(-242.0449,-48.530801)"
         id="path74" />
    </clipPath>
    <clipPath
       clipPathUnits="userSpaceOnUse"
       id="clipPath76">
      <path
         d="M 0,103.229 H 336.327 V 0 H 0 Z"
         transform="translate(-246.17481,-47.333601)"
         id="path76" />
    </clipPath>
    <clipPath
       clipPathUnits="userSpaceOnUse"
       id="clipPath78">
      <path
         d="M 0,103.229 H 336.327 V 0 H 0 Z"
         transform="translate(-249.42871,-48.567901)"
         id="path78" />
    </clipPath>
    <clipPath
       clipPathUnits="userSpaceOnUse"
       id="clipPath80">
      <path
         d="M 0,103.229 H 336.327 V 0 H 0 Z"
         transform="translate(-252.67581,-52.062102)"
         id="path80" />
    </clipPath>
    <clipPath
       clipPathUnits="userSpaceOnUse"
       id="clipPath82">
      <path
         d="M 0,103.229 H 336.327 V 0 H 0 Z"
         transform="translate(-264.66411,-47.432201)"
         id="path82" />
    </clipPath>
    <clipPath
       clipPathUnits="userSpaceOnUse"
       id="clipPath84">
      <path
         d="M 0,103.229 H 336.327 V 0 H 0 Z"
         transform="translate(-270.91111,-52.062102)"
         id="path84" />
    </clipPath>
    <clipPath
       clipPathUnits="userSpaceOnUse"
       id="clipPath86">
      <path
         d="M 0,103.229 H 336.327 V 0 H 0 Z"
         transform="translate(-279.96091,-47.388701)"
         id="path86" />
    </clipPath>
    <clipPath
       clipPathUnits="userSpaceOnUse"
       id="clipPath88">
      <path
         d="M 0,103.229 H 336.327 V 0 H 0 Z"
         transform="translate(-287.9863,-48.530801)"
         id="path88" />
    </clipPath>
    <clipPath
       clipPathUnits="userSpaceOnUse"
       id="clipPath90">
      <path
         d="M 0,103.229 H 336.327 V 0 H 0 Z"
         transform="translate(-291.2461,-48.567901)"
         id="path90" />
    </clipPath>
    <clipPath
       clipPathUnits="userSpaceOnUse"
       id="clipPath92">
      <path
         d="M 0,103.229 H 336.327 V 0 H 0 Z"
         transform="translate(-294.49321,-48.555701)"
         id="path92" />
    </clipPath>
    <clipPath
       clipPathUnits="userSpaceOnUse"
       id="clipPath94">
      <path
         d="M 0,103.229 H 336.327 V 0 H 0 Z"
         transform="translate(-300.25881,-47.432201)"
         id="path94" />
    </clipPath>
    <clipPath
       clipPathUnits="userSpaceOnUse"
       id="clipPath96">
      <path
         d="M 0,103.229 H 336.327 V 0 H 0 Z"
         id="path96" />
    </clipPath>
    <clipPath
       clipPathUnits="userSpaceOnUse"
       id="clipPath98">
      <path
         d="M 0,103.229 H 336.327 V 0 H 0 Z"
         transform="translate(-112.7056,-36.858501)"
         id="path98" />
    </clipPath>
    <clipPath
       clipPathUnits="userSpaceOnUse"
       id="clipPath100">
      <path
         d="M 0,103.229 H 336.327 V 0 H 0 Z"
         transform="translate(-121.81011,-31.925901)"
         id="path100" />
    </clipPath>
    <clipPath
       clipPathUnits="userSpaceOnUse"
       id="clipPath102">
      <path
         d="M 0,103.229 H 336.327 V 0 H 0 Z"
         transform="translate(-126.76761,-33.364301)"
         id="path102" />
    </clipPath>
    <clipPath
       clipPathUnits="userSpaceOnUse"
       id="clipPath104">
      <path
         d="M 0,103.229 H 336.327 V 0 H 0 Z"
         transform="translate(-130.0146,-33.352101)"
         id="path104" />
    </clipPath>
    <clipPath
       clipPathUnits="userSpaceOnUse"
       id="clipPath106">
      <path
         d="M 0,103.229 H 336.327 V 0 H 0 Z"
         transform="translate(-138.7935,-33.722201)"
         id="path106" />
    </clipPath>
    <clipPath
       clipPathUnits="userSpaceOnUse"
       id="clipPath108">
      <path
         d="M 0,103.229 H 336.327 V 0 H 0 Z"
         transform="translate(-142.1392,-36.858501)"
         id="path108" />
    </clipPath>
    <clipPath
       clipPathUnits="userSpaceOnUse"
       id="clipPath110">
      <path
         d="M 0,103.229 H 336.327 V 0 H 0 Z"
         transform="translate(-149.4604,-36.858501)"
         id="path110" />
    </clipPath>
    <clipPath
       clipPathUnits="userSpaceOnUse"
       id="clipPath112">
      <path
         d="M 0,103.229 H 336.327 V 0 H 0 Z"
         transform="translate(-157.94241,-32.228601)"
         id="path112" />
    </clipPath>
    <clipPath
       clipPathUnits="userSpaceOnUse"
       id="clipPath114">
      <path
         d="M 0,103.229 H 336.327 V 0 H 0 Z"
         transform="translate(-164.18901,-36.858501)"
         id="path114" />
    </clipPath>
    <clipPath
       clipPathUnits="userSpaceOnUse"
       id="clipPath116">
      <path
         d="M 0,103.229 H 336.327 V 0 H 0 Z"
         transform="translate(-176.1777,-32.228601)"
         id="path116" />
    </clipPath>
    <clipPath
       clipPathUnits="userSpaceOnUse"
       id="clipPath118">
      <path
         d="M 0,103.229 H 336.327 V 0 H 0 Z"
         transform="translate(-182.42481,-36.858501)"
         id="path118" />
    </clipPath>
    <clipPath
       clipPathUnits="userSpaceOnUse"
       id="clipPath120">
      <path
         d="M 0,103.229 H 336.327 V 0 H 0 Z"
         transform="translate(-191.47461,-32.185101)"
         id="path120" />
    </clipPath>
  </defs>
  <sodipodi:namedview
     id="namedview1"
     pagecolor="#505050"
     bordercolor="#eeeeee"
     borderopacity="1"
     inkscape:showpageshadow="0"
     inkscape:pageopacity="0"
     inkscape:pagecheckerboard="0"
     inkscape:deskcolor="#d1d1d1"
     inkscape:zoom="0.88752908"
     inkscape:cx="224.218"
     inkscape:cy="69.293504"
     inkscape:window-width="1920"
     inkscape:window-height="991"
     inkscape:window-x="-9"
     inkscape:window-y="-9"
     inkscape:window-maximized="1"
     inkscape:current-layer="layer-MC1">
    <inkscape:page
       x="0"
       y="0"
       inkscape:label="1"
       id="page1"
       width="448.436"
       height="137.63867"
       margin="0 14.418667 0.38133332 0.64764398"
       bleed="0" />
  </sodipodi:namedview>
  <g
     id="layer-MC0"
     inkscape:groupmode="layer"
     inkscape:label="Symbol">
    <path
       id="path1"
       d="m 0,0 c -4.081,3.53 -4.529,9.7 -0.999,13.781 3.53,4.081 9.7,4.529 13.781,0.999 4.082,-3.53 4.529,-9.7 0.999,-13.781 C 10.251,-3.083 4.081,-3.53 0,0"
       style="fill:#107abd;fill-opacity:1;fill-rule:nonzero;stroke:none"
       transform="matrix(1.3333333,0,0,-1.3333333,60.9452,79.053733)"
       clip-path="url(#clipPath2)" />
    <path
       id="path3"
       d="m 0,0 c 0.001,0.024 0.002,0.047 0.003,0.071 0.016,0.328 0.022,0.657 0.027,0.985 0,0.015 0,0.03 0,0.045 C 0.038,1.757 0.025,2.415 -0.009,3.071 -0.011,3.116 -0.014,3.16 -0.016,3.204 -0.031,3.473 -0.046,3.741 -0.071,4.008 -0.077,4.072 -0.081,4.136 -0.087,4.2 -0.142,4.847 -0.218,5.492 -0.314,6.136 -0.323,6.195 -0.332,6.255 -0.342,6.314 -0.385,6.596 -0.434,6.876 -0.483,7.156 -0.491,7.198 -0.498,7.24 -0.506,7.282 -0.566,7.605 -0.63,7.927 -0.7,8.248 -0.701,8.25 -0.701,8.252 -0.702,8.253 -0.769,8.56 -0.842,8.866 -0.918,9.171 -0.945,9.278 -0.973,9.384 -1,9.491 c -0.058,0.23 -0.124,0.458 -0.188,0.687 -0.013,0.048 -0.027,0.096 -0.041,0.144 -0.09,0.31 -0.184,0.619 -0.284,0.928 -0.013,0.037 -0.026,0.075 -0.038,0.112 -0.087,0.266 -0.178,0.53 -0.273,0.793 -0.028,0.078 -0.056,0.156 -0.085,0.234 -0.091,0.25 -0.186,0.499 -0.284,0.747 -0.022,0.053 -0.042,0.106 -0.063,0.159 -0.12,0.298 -0.244,0.594 -0.373,0.889 -0.026,0.059 -0.054,0.117 -0.08,0.176 -0.105,0.237 -0.214,0.473 -0.325,0.707 -0.039,0.082 -0.078,0.164 -0.118,0.245 -0.119,0.245 -0.241,0.488 -0.367,0.731 -0.024,0.046 -0.046,0.092 -0.07,0.138 -0.15,0.284 -0.304,0.567 -0.463,0.847 -0.039,0.071 -0.081,0.141 -0.121,0.212 -0.124,0.216 -0.251,0.43 -0.38,0.644 -0.05,0.081 -0.099,0.163 -0.15,0.244 -0.153,0.248 -0.31,0.495 -0.471,0.74 -0.019,0.029 -0.037,0.058 -0.056,0.086 -0.179,0.271 -0.365,0.54 -0.553,0.808 -0.053,0.074 -0.108,0.149 -0.161,0.223 -0.145,0.201 -0.292,0.401 -0.443,0.6 -0.058,0.076 -0.115,0.153 -0.174,0.23 -0.202,0.262 -0.407,0.523 -0.619,0.781 -4.213,5.136 -9.627,8.88 -15.628,10.348 -9.513,2.327 -6.769,-8.642 -0.85,-15.859 0.078,-0.096 0.15,-0.198 0.23,-0.296 L -12.603,2.786 V 2.785 c 5.839,-7.118 7.233,-20.631 0.115,-26.469 -0.201,-0.165 -0.405,-0.322 -0.611,-0.476 l 0.081,-0.098 c 0.479,0.35 0.952,0.714 1.417,1.095 4.966,4.073 8.379,9.338 10.168,15.041 0.034,0.107 0.063,0.212 0.136,0.339 0.339,0.588 0.534,1.242 0.547,1.92 0.006,0.308 0.062,0.554 0.114,0.805 0.204,0.982 0.361,1.972 0.472,2.968 0.004,0.032 0.007,0.064 0.011,0.096 C -0.082,-1.331 -0.03,-0.666 0,0"
       style="fill:#76c4ae;fill-opacity:1;fill-rule:nonzero;stroke:none"
       transform="matrix(1.3333333,0,0,-1.3333333,111.81813,71.107067)"
       clip-path="url(#clipPath4)" />
    <path
       id="path5"
       d="m 0,0 c -0.001,-0.024 -0.002,-0.047 -0.003,-0.071 -0.016,-0.328 -0.022,-0.657 -0.027,-0.985 0,-0.015 0,-0.03 0,-0.045 -0.008,-0.656 0.005,-1.314 0.039,-1.97 C 0.011,-3.116 0.014,-3.16 0.016,-3.204 0.031,-3.473 0.046,-3.741 0.071,-4.008 0.076,-4.072 0.081,-4.136 0.087,-4.2 0.142,-4.847 0.218,-5.492 0.314,-6.136 0.323,-6.195 0.332,-6.255 0.342,-6.314 0.385,-6.596 0.433,-6.876 0.483,-7.156 0.491,-7.198 0.498,-7.24 0.506,-7.282 0.566,-7.605 0.63,-7.927 0.7,-8.248 0.701,-8.25 0.701,-8.252 0.702,-8.253 0.769,-8.56 0.842,-8.866 0.918,-9.171 0.945,-9.277 0.973,-9.384 1,-9.491 c 0.058,-0.23 0.124,-0.458 0.188,-0.687 0.013,-0.048 0.027,-0.096 0.041,-0.144 0.09,-0.31 0.184,-0.619 0.284,-0.928 0.012,-0.037 0.026,-0.075 0.038,-0.112 0.087,-0.266 0.178,-0.53 0.273,-0.793 0.028,-0.078 0.056,-0.156 0.085,-0.234 0.091,-0.25 0.186,-0.499 0.284,-0.747 0.021,-0.053 0.042,-0.106 0.063,-0.159 0.12,-0.298 0.244,-0.594 0.373,-0.889 0.026,-0.059 0.054,-0.117 0.08,-0.176 0.105,-0.237 0.214,-0.473 0.325,-0.707 0.039,-0.082 0.078,-0.164 0.118,-0.245 0.119,-0.245 0.241,-0.488 0.367,-0.731 0.024,-0.046 0.046,-0.092 0.07,-0.138 0.15,-0.284 0.304,-0.567 0.463,-0.847 0.039,-0.071 0.081,-0.141 0.121,-0.212 0.124,-0.215 0.251,-0.43 0.38,-0.644 0.05,-0.081 0.099,-0.163 0.149,-0.244 0.154,-0.248 0.311,-0.495 0.472,-0.74 0.019,-0.029 0.037,-0.058 0.055,-0.086 0.18,-0.271 0.365,-0.54 0.554,-0.807 0.053,-0.075 0.108,-0.15 0.161,-0.224 0.145,-0.201 0.292,-0.401 0.443,-0.599 0.058,-0.077 0.115,-0.154 0.174,-0.231 0.202,-0.262 0.407,-0.523 0.619,-0.781 4.213,-5.136 9.627,-8.88 15.628,-10.348 9.514,-2.327 6.769,8.642 0.851,15.859 -0.079,0.096 -0.151,0.198 -0.231,0.296 L 12.603,-2.786 v 10e-4 C 6.765,4.333 5.37,17.846 12.488,23.684 c 0.201,0.165 0.405,0.322 0.611,0.476 l -0.081,0.098 C 12.539,23.908 12.066,23.544 11.602,23.163 6.635,19.09 3.222,13.825 1.433,8.122 1.399,8.015 1.37,7.91 1.297,7.783 0.958,7.195 0.763,6.541 0.75,5.863 0.744,5.555 0.688,5.309 0.636,5.058 0.432,4.076 0.275,3.086 0.164,2.09 0.16,2.058 0.157,2.026 0.153,1.994 0.082,1.331 0.03,0.666 0,0"
       style="fill:#76c4ae;fill-opacity:1;fill-rule:nonzero;stroke:none"
       transform="matrix(1.3333333,0,0,-1.3333333,27.064267,67.1868)"
       clip-path="url(#clipPath6)" />
    <path
       id="path7"
       d="m 0,0 c -0.001,0.024 -0.001,0.047 -0.002,0.071 -0.015,0.328 -0.018,0.657 -0.021,0.986 0,0.014 0,0.029 0,0.044 -0.003,0.657 0.014,1.314 0.051,1.97 C 0.031,3.116 0.034,3.16 0.037,3.204 0.053,3.472 0.07,3.74 0.096,4.008 0.102,4.072 0.107,4.136 0.113,4.2 c 0.06,0.646 0.14,1.291 0.24,1.933 0.009,0.06 0.019,0.119 0.029,0.179 0.045,0.281 0.095,0.561 0.147,0.841 0.008,0.042 0.015,0.084 0.023,0.125 0.062,0.323 0.129,0.645 0.201,0.966 0,10e-4 0.001,0.003 0.001,0.005 0.069,0.306 0.144,0.611 0.223,0.916 0.027,0.106 0.056,0.213 0.084,0.319 0.059,0.23 0.126,0.458 0.192,0.686 0.014,0.048 0.027,0.096 0.041,0.144 0.093,0.309 0.189,0.618 0.291,0.926 0.013,0.037 0.026,0.075 0.039,0.112 0.088,0.265 0.181,0.529 0.277,0.791 0.029,0.078 0.058,0.156 0.087,0.234 0.093,0.249 0.189,0.497 0.289,0.745 0.022,0.053 0.042,0.106 0.064,0.159 0.121,0.296 0.248,0.592 0.379,0.886 0.026,0.058 0.054,0.117 0.08,0.176 0.107,0.236 0.217,0.471 0.33,0.705 0.04,0.081 0.079,0.162 0.12,0.244 0.12,0.244 0.244,0.486 0.371,0.728 0.024,0.046 0.047,0.092 0.072,0.138 0.151,0.283 0.307,0.564 0.467,0.844 0.04,0.071 0.082,0.141 0.123,0.211 0.126,0.215 0.254,0.429 0.385,0.641 0.049,0.082 0.099,0.163 0.15,0.244 0.155,0.247 0.314,0.493 0.476,0.737 0.019,0.028 0.037,0.057 0.056,0.085 0.182,0.27 0.369,0.538 0.559,0.804 0.054,0.075 0.109,0.149 0.163,0.223 0.146,0.2 0.294,0.399 0.446,0.596 0.058,0.077 0.117,0.153 0.176,0.229 0.204,0.261 0.41,0.521 0.623,0.777 4.246,5.11 9.685,8.819 15.694,10.249 9.528,2.266 6.714,-8.685 0.75,-15.864 -0.08,-0.096 -0.152,-0.198 -0.233,-0.294 L 12.62,2.706 V 2.705 C 6.737,-4.376 5.256,-17.88 12.337,-23.764 c 0.199,-0.165 0.402,-0.324 0.607,-0.479 l -0.082,-0.098 c -0.476,0.353 -0.947,0.72 -1.409,1.104 -4.94,4.105 -8.319,9.392 -10.072,15.106 -0.033,0.107 -0.061,0.213 -0.134,0.34 -0.335,0.59 -0.526,1.245 -0.534,1.924 C 0.709,-5.56 0.654,-5.313 0.604,-5.062 0.406,-4.079 0.255,-3.087 0.151,-2.091 0.147,-2.059 0.144,-2.027 0.141,-1.995 0.073,-1.331 0.026,-0.666 0,0"
       style="fill:#107abd;fill-opacity:1;fill-rule:nonzero;stroke:none"
       transform="matrix(1.3333333,0,0,-1.3333333,27.0528,70.8364)"
       clip-path="url(#clipPath8)" />
    <path
       id="path9"
       d="m 0,0 c 0.001,-0.024 0.001,-0.047 0.002,-0.071 0.015,-0.328 0.018,-0.657 0.021,-0.986 0,-0.014 0,-0.029 0,-0.044 C 0.026,-1.758 0.009,-2.415 -0.028,-3.071 -0.031,-3.116 -0.034,-3.16 -0.037,-3.204 -0.053,-3.472 -0.07,-3.74 -0.096,-4.008 -0.102,-4.072 -0.107,-4.136 -0.113,-4.2 c -0.06,-0.646 -0.14,-1.291 -0.24,-1.933 -0.009,-0.06 -0.019,-0.119 -0.029,-0.179 -0.045,-0.281 -0.095,-0.561 -0.147,-0.841 -0.008,-0.042 -0.015,-0.084 -0.023,-0.125 -0.062,-0.323 -0.129,-0.645 -0.201,-0.966 0,-10e-4 -0.001,-0.003 -0.001,-0.005 -0.069,-0.306 -0.144,-0.611 -0.223,-0.916 -0.027,-0.106 -0.056,-0.213 -0.084,-0.319 -0.059,-0.23 -0.126,-0.458 -0.192,-0.686 -0.014,-0.048 -0.027,-0.096 -0.041,-0.144 -0.093,-0.309 -0.189,-0.618 -0.291,-0.926 -0.012,-0.037 -0.026,-0.075 -0.039,-0.112 -0.088,-0.265 -0.181,-0.529 -0.277,-0.791 -0.029,-0.078 -0.058,-0.156 -0.087,-0.234 -0.093,-0.249 -0.189,-0.497 -0.289,-0.745 -0.022,-0.053 -0.042,-0.106 -0.064,-0.159 -0.121,-0.296 -0.248,-0.592 -0.379,-0.886 -0.026,-0.058 -0.054,-0.117 -0.08,-0.176 -0.107,-0.236 -0.217,-0.471 -0.33,-0.705 -0.04,-0.081 -0.079,-0.162 -0.12,-0.244 -0.12,-0.244 -0.244,-0.486 -0.371,-0.728 -0.024,-0.046 -0.047,-0.092 -0.072,-0.138 -0.151,-0.283 -0.307,-0.564 -0.467,-0.844 -0.04,-0.071 -0.082,-0.141 -0.123,-0.211 -0.126,-0.215 -0.254,-0.429 -0.384,-0.641 -0.05,-0.082 -0.1,-0.163 -0.151,-0.244 -0.155,-0.247 -0.314,-0.493 -0.476,-0.737 -0.019,-0.028 -0.037,-0.057 -0.056,-0.085 -0.182,-0.27 -0.369,-0.538 -0.559,-0.804 -0.054,-0.075 -0.109,-0.149 -0.163,-0.223 -0.146,-0.2 -0.294,-0.399 -0.446,-0.596 -0.058,-0.077 -0.117,-0.153 -0.176,-0.229 -0.203,-0.261 -0.41,-0.521 -0.623,-0.777 -4.246,-5.11 -9.685,-8.819 -15.694,-10.249 -9.528,-2.266 -6.714,8.685 -0.75,15.864 0.08,0.096 0.152,0.198 0.233,0.294 l 10.908,12.934 v 10e-4 c 5.883,7.081 7.364,20.585 0.283,26.469 -0.199,0.165 -0.402,0.324 -0.607,0.479 l 0.081,0.098 c 0.477,-0.353 0.948,-0.72 1.41,-1.104 4.94,-4.105 8.319,-9.392 10.072,-15.106 0.033,-0.107 0.061,-0.213 0.134,-0.34 0.335,-0.59 0.526,-1.245 0.534,-1.924 C -0.709,5.56 -0.654,5.313 -0.604,5.062 -0.406,4.079 -0.255,3.087 -0.151,2.091 -0.147,2.059 -0.144,2.027 -0.141,1.994 -0.073,1.331 -0.026,0.666 0,0"
       style="fill:#107abd;fill-opacity:1;fill-rule:nonzero;stroke:none"
       transform="matrix(1.3333333,0,0,-1.3333333,111.82973,67.457333)"
       clip-path="url(#clipPath10)" />
  </g>
  <g
     id="layer-MC1"
     inkscape:groupmode="layer"
     inkscape:label="TEXT">
    <path
       id="path11"
       d="m 0,0 c -0.613,0.531 -0.92,1.273 -0.92,2.229 h 1.815 c 0,-0.536 0.173,-0.931 0.519,-1.186 0.345,-0.255 0.81,-0.382 1.395,-0.382 0.535,0 0.942,0.09 1.222,0.271 0.28,0.181 0.42,0.457 0.42,0.827 0,0.247 -0.064,0.449 -0.192,0.605 C 4.132,2.521 3.94,2.65 3.685,2.753 3.43,2.856 3.06,2.969 2.574,3.093 2.492,3.109 2.397,3.134 2.29,3.167 1.615,3.332 1.076,3.504 0.673,3.686 0.27,3.867 -0.048,4.122 -0.278,4.451 c -0.23,0.329 -0.346,0.757 -0.346,1.284 0,0.782 0.297,1.37 0.889,1.765 0.593,0.396 1.379,0.593 2.359,0.593 0.749,0 1.372,-0.111 1.87,-0.333 C 4.992,7.538 5.358,7.231 5.593,6.84 5.828,6.449 5.945,5.999 5.945,5.488 H 4.179 C 4.179,5.85 4.039,6.134 3.759,6.34 3.479,6.546 3.08,6.649 2.562,6.649 2.134,6.649 1.796,6.581 1.549,6.445 1.302,6.309 1.179,6.081 1.179,5.76 1.179,5.529 1.241,5.344 1.364,5.204 1.488,5.064 1.668,4.947 1.907,4.852 2.146,4.757 2.488,4.657 2.932,4.55 H 2.944 2.957 C 3.014,4.542 3.068,4.529 3.117,4.513 3.858,4.332 4.44,4.152 4.864,3.976 5.288,3.798 5.625,3.55 5.877,3.229 6.128,2.908 6.253,2.471 6.253,1.92 6.253,1.081 5.949,0.417 5.34,-0.068 4.73,-0.554 3.862,-0.796 2.734,-0.796 1.524,-0.796 0.613,-0.531 0,0"
       style="fill:#107abd;fill-opacity:1;fill-rule:nonzero;stroke:none"
       transform="matrix(1.3333333,0,0,-1.3333333,140.83333,53.622267)"
       clip-path="url(#clipPath12)" />
    <path
       id="path13"
       d="M 0,0 V 3.507 L 0.234,4.865 H 1.691 V -0.037 L 1.876,-1.395 H 0.284 Z M -0.408,0.395 C -0.136,0.716 0,1.169 0,1.753 c 0,0.568 -0.136,1.011 -0.408,1.328 -0.271,0.316 -0.65,0.475 -1.135,0.475 -0.486,0 -0.863,-0.159 -1.13,-0.475 -0.267,-0.317 -0.401,-0.76 -0.401,-1.328 0,-0.395 0.059,-0.728 0.178,-1 0.12,-0.272 0.295,-0.479 0.525,-0.623 0.231,-0.144 0.507,-0.216 0.828,-0.216 0.485,0 0.864,0.16 1.135,0.481 m -3.117,-1.494 c -0.424,0.272 -0.743,0.653 -0.956,1.142 -0.214,0.49 -0.321,1.06 -0.321,1.71 0,0.634 0.107,1.194 0.321,1.68 0.213,0.485 0.532,0.864 0.956,1.135 0.424,0.272 0.928,0.408 1.512,0.408 0.535,0 0.998,-0.123 1.389,-0.371 C -0.233,4.358 0.068,3.994 0.278,3.513 0.488,3.031 0.593,2.445 0.593,1.753 0.593,1.572 0.584,1.408 0.568,1.259 0.526,0.659 0.395,0.154 0.173,-0.253 -0.049,-0.66 -0.346,-0.971 -0.716,-1.185 c -0.37,-0.214 -0.803,-0.321 -1.297,-0.321 -0.584,0 -1.088,0.136 -1.512,0.407"
       style="fill:#107abd;fill-opacity:1;fill-rule:nonzero;stroke:none"
       transform="matrix(1.3333333,0,0,-1.3333333,156.64453,52.659333)"
       clip-path="url(#clipPath14)" />
    <path
       id="path15"
       d="M 0,0 -0.185,1.333 H 1.42 L 1.729,-0.086 1.432,0.111 c 0.181,0.445 0.453,0.778 0.815,1 0.362,0.222 0.798,0.334 1.309,0.334 0.798,0 1.381,-0.239 1.747,-0.716 0.366,-0.478 0.549,-1.182 0.549,-2.112 V -4.926 H 4.148 v 3.346 c 0,0.543 -0.098,0.946 -0.296,1.21 C 3.655,-0.107 3.354,0.025 2.951,0.025 2.523,0.025 2.208,-0.109 2.006,-0.376 1.805,-0.644 1.704,-1.058 1.704,-1.617 V -4.926 H 0 Z"
       style="fill:#107abd;fill-opacity:1;fill-rule:nonzero;stroke:none"
       transform="matrix(1.3333333,0,0,-1.3333333,161.0072,47.951067)"
       clip-path="url(#clipPath16)" />
    <path
       id="path17"
       d="M 0,0 C -0.362,0.169 -0.636,0.449 -0.821,0.84 -1.006,1.23 -1.099,1.751 -1.099,2.401 V 5.698 L -0.58,7.933 H 0.605 V 2.365 C 0.605,2.093 0.634,1.877 0.691,1.716 0.749,1.556 0.852,1.434 1,1.352 1.148,1.27 1.35,1.229 1.605,1.229 H 2.691 V -0.253 H 1.383 C 0.823,-0.253 0.362,-0.168 0,0 M -2.519,6.007 H 2.494 V 4.599 h -5.013 z"
       style="fill:#107abd;fill-opacity:1;fill-rule:nonzero;stroke:none"
       transform="matrix(1.3333333,0,0,-1.3333333,173.0736,54.182133)"
       clip-path="url(#clipPath18)" />
    <path
       id="path19"
       d="M 0,0 H 1.605 L 0.42,-2.284 h -0.864 z m -1.667,-9.087 c -0.502,0.272 -0.88,0.648 -1.135,1.13 -0.256,0.481 -0.383,1.039 -0.383,1.673 0,0.658 0.127,1.234 0.383,1.728 0.255,0.494 0.633,0.875 1.135,1.142 0.502,0.268 1.104,0.402 1.803,0.402 0.708,0 1.304,-0.128 1.79,-0.383 C 2.412,-3.65 2.78,-4.013 3.031,-4.481 3.282,-4.951 3.412,-5.506 3.42,-6.148 V -6.297 C 3.42,-6.346 3.418,-6.396 3.414,-6.445 3.41,-6.494 3.404,-6.543 3.396,-6.593 h -5.779 l 0.037,1 H 2.148 L 1.568,-6.21 c 0.033,0.452 0.002,0.827 -0.092,1.124 -0.095,0.295 -0.256,0.518 -0.482,0.666 -0.226,0.148 -0.52,0.222 -0.883,0.222 -0.387,0 -0.697,-0.093 -0.932,-0.278 -0.234,-0.185 -0.399,-0.423 -0.493,-0.715 -0.095,-0.293 -0.143,-0.632 -0.143,-1.019 0,-0.428 0.066,-0.792 0.198,-1.093 0.132,-0.301 0.323,-0.527 0.574,-0.679 0.251,-0.152 0.549,-0.228 0.895,-0.228 0.395,0 0.714,0.072 0.957,0.216 0.243,0.143 0.401,0.327 0.475,0.549 H 3.346 C 3.198,-8.112 2.848,-8.62 2.297,-8.97 1.745,-9.32 1.033,-9.495 0.161,-9.495 c -0.716,0 -1.326,0.137 -1.828,0.408"
       style="fill:#107abd;fill-opacity:1;fill-rule:nonzero;stroke:none"
       transform="matrix(1.3333333,0,0,-1.3333333,181.6172,42.0084)"
       clip-path="url(#clipPath20)" />
    <path
       id="path21"
       d="m 0,0 c 0.271,0.317 0.408,0.763 0.408,1.339 0,0.388 -0.062,0.717 -0.186,0.988 -0.123,0.272 -0.3,0.48 -0.531,0.624 -0.23,0.144 -0.506,0.216 -0.827,0.216 -0.477,0 -0.852,-0.161 -1.123,-0.481 -0.272,-0.322 -0.408,-0.77 -0.408,-1.347 0,-0.386 0.06,-0.714 0.179,-0.981 0.119,-0.268 0.295,-0.473 0.525,-0.617 0.23,-0.144 0.506,-0.217 0.827,-0.217 0.486,0 0.865,0.159 1.136,0.476 m -2.043,-1.525 c -0.391,0.247 -0.69,0.611 -0.895,1.093 -0.206,0.481 -0.309,1.072 -0.309,1.771 v 0.285 c 0.025,0.642 0.146,1.183 0.364,1.623 0.218,0.441 0.517,0.774 0.895,1 0.379,0.227 0.823,0.34 1.334,0.34 0.584,0 1.086,-0.136 1.506,-0.408 C 1.272,3.908 1.588,3.527 1.803,3.037 2.017,2.547 2.124,1.981 2.124,1.339 2.124,0.697 2.017,0.134 1.803,-0.352 1.588,-0.838 1.272,-1.216 0.852,-1.488 0.432,-1.759 -0.07,-1.896 -0.654,-1.896 c -0.535,0 -0.998,0.124 -1.389,0.371 m -2.328,4.667 -0.185,1.334 h 1.605 l 0.284,-1.371 v -7.457 h -1.704 z"
       style="fill:#107abd;fill-opacity:1;fill-rule:nonzero;stroke:none"
       transform="matrix(1.3333333,0,0,-1.3333333,197.7168,52.140533)"
       clip-path="url(#clipPath22)" />
    <path
       id="path23"
       d="M 0,0 C -0.428,0.218 -0.749,0.545 -0.963,0.981 -1.177,1.417 -1.284,1.965 -1.284,2.624 V 6.043 H 0.407 V 2.624 c 0,-0.379 0.05,-0.676 0.149,-0.89 C 0.654,1.521 0.79,1.368 0.963,1.278 1.136,1.187 1.346,1.142 1.593,1.142 c 0.378,0 0.67,0.109 0.876,0.327 0.206,0.218 0.309,0.603 0.309,1.155 V 6.043 H 4.481 V 2.624 C 4.481,1.636 4.239,0.897 3.753,0.407 3.268,-0.083 2.547,-0.328 1.593,-0.328 0.958,-0.328 0.428,-0.218 0,0"
       style="fill:#107abd;fill-opacity:1;fill-rule:nonzero;stroke:none"
       transform="matrix(1.3333333,0,0,-1.3333333,203.74213,54.231067)"
       clip-path="url(#clipPath24)" />
    <path
       id="path25"
       d="m 0,0 c 0.271,0.321 0.408,0.774 0.408,1.358 0,0.379 -0.062,0.702 -0.186,0.97 -0.123,0.267 -0.3,0.473 -0.531,0.617 -0.23,0.144 -0.505,0.216 -0.826,0.216 -0.478,0 -0.852,-0.159 -1.124,-0.475 -0.271,-0.317 -0.408,-0.76 -0.408,-1.328 0,-0.387 0.061,-0.718 0.18,-0.994 0.119,-0.276 0.294,-0.485 0.525,-0.629 0.23,-0.144 0.505,-0.216 0.827,-0.216 0.485,0 0.864,0.16 1.135,0.481 m -2.043,-1.524 c -0.391,0.251 -0.689,0.619 -0.895,1.105 -0.206,0.485 -0.309,1.078 -0.309,1.777 0,0.148 0.004,0.26 0.013,0.334 0.025,0.617 0.146,1.142 0.364,1.574 0.218,0.432 0.516,0.759 0.895,0.982 0.379,0.222 0.819,0.333 1.321,0.333 0.584,0 1.086,-0.136 1.506,-0.408 0.42,-0.271 0.736,-0.65 0.951,-1.135 0.214,-0.486 0.321,-1.046 0.321,-1.68 0,-0.65 -0.107,-1.22 -0.321,-1.71 -0.215,-0.489 -0.531,-0.87 -0.951,-1.142 -0.42,-0.271 -0.922,-0.407 -1.506,-0.407 -0.535,0 -0.998,0.125 -1.389,0.377 m -2.327,1.067 v 7.495 h 1.703 V -0.419 L -2.95,-1.79 h -1.605 z"
       style="fill:#107abd;fill-opacity:1;fill-rule:nonzero;stroke:none"
       transform="matrix(1.3333333,0,0,-1.3333333,217.48693,52.132667)"
       clip-path="url(#clipPath26)" />
    <path
       id="path27"
       d="M 0,0 C -0.333,0.173 -0.574,0.442 -0.722,0.809 -0.87,1.175 -0.944,1.662 -0.944,2.271 V 7.235 8.63 H 0.759 V 2.222 C 0.759,1.975 0.786,1.78 0.84,1.636 0.893,1.492 0.984,1.387 1.111,1.321 1.239,1.255 1.414,1.222 1.636,1.222 h 0.58 V -0.259 H 1.315 C 0.772,-0.259 0.333,-0.173 0,0"
       style="fill:#107abd;fill-opacity:1;fill-rule:nonzero;stroke:none"
       transform="matrix(1.3333333,0,0,-1.3333333,223.0592,54.255733)"
       clip-path="url(#clipPath28)" />
    <path
       id="path29"
       d="M 0,0 V 3.42 4.828 H 1.704 V 0 -1.432 l -1.704,0 z m 0.099,6.019 c -0.173,0.161 -0.26,0.389 -0.26,0.685 0,0.28 0.087,0.498 0.26,0.655 0.172,0.156 0.427,0.234 0.765,0.234 0.329,0 0.58,-0.078 0.753,-0.234 C 1.79,7.202 1.876,6.984 1.876,6.704 1.876,6.408 1.792,6.18 1.624,6.019 1.455,5.858 1.202,5.778 0.864,5.778 c -0.338,0 -0.593,0.08 -0.765,0.241"
       style="fill:#107abd;fill-opacity:1;fill-rule:nonzero;stroke:none"
       transform="matrix(1.3333333,0,0,-1.3333333,227.3972,52.609867)"
       clip-path="url(#clipPath30)" />
    <path
       id="path31"
       d="M 0,0 0.284,1.371 H 1.876 L 1.691,0.037 V -7.457 H 0 Z M -0.408,-3.105 C -0.136,-2.788 0,-2.342 0,-1.766 c 0,0.577 -0.138,1.025 -0.414,1.347 -0.275,0.32 -0.652,0.481 -1.129,0.481 -0.486,0 -0.865,-0.161 -1.136,-0.481 -0.272,-0.322 -0.408,-0.77 -0.408,-1.347 0,-0.386 0.062,-0.713 0.186,-0.981 0.123,-0.268 0.3,-0.473 0.53,-0.617 0.231,-0.144 0.507,-0.217 0.828,-0.217 0.485,0 0.864,0.159 1.135,0.476 m -3.123,-1.488 c -0.42,0.272 -0.737,0.65 -0.951,1.136 -0.214,0.486 -0.321,1.049 -0.321,1.691 0,0.642 0.107,1.208 0.321,1.698 0.214,0.49 0.531,0.871 0.951,1.142 0.42,0.272 0.922,0.408 1.506,0.408 0.535,0 0.998,-0.126 1.389,-0.377 C -0.245,0.854 0.053,0.488 0.259,0.006 0.465,-0.475 0.568,-1.066 0.568,-1.766 0.568,-1.947 0.563,-2.111 0.556,-2.259 0.506,-2.852 0.372,-3.352 0.154,-3.759 -0.064,-4.167 -0.358,-4.476 -0.729,-4.686 -1.099,-4.896 -1.531,-5 -2.025,-5 c -0.584,0 -1.086,0.136 -1.506,0.407"
       style="fill:#107abd;fill-opacity:1;fill-rule:nonzero;stroke:none"
       transform="matrix(1.3333333,0,0,-1.3333333,237.65293,48.000533)"
       clip-path="url(#clipPath32)" />
    <path
       id="path33"
       d="M 0,0 C -0.428,0.218 -0.749,0.545 -0.963,0.981 -1.177,1.417 -1.284,1.965 -1.284,2.624 V 6.043 H 0.407 V 2.624 c 0,-0.379 0.05,-0.676 0.149,-0.89 C 0.654,1.521 0.79,1.368 0.963,1.278 1.136,1.187 1.346,1.142 1.593,1.142 c 0.378,0 0.67,0.109 0.876,0.327 0.206,0.218 0.309,0.603 0.309,1.155 V 6.043 H 4.482 V 2.624 C 4.482,1.636 4.239,0.897 3.753,0.407 3.268,-0.083 2.547,-0.328 1.593,-0.328 0.958,-0.328 0.428,-0.218 0,0"
       style="fill:#107abd;fill-opacity:1;fill-rule:nonzero;stroke:none"
       transform="matrix(1.3333333,0,0,-1.3333333,243.59573,54.231067)"
       clip-path="url(#clipPath34)" />
    <path
       id="path35"
       d="m 0,0 c -0.502,0.271 -0.881,0.648 -1.136,1.13 -0.255,0.481 -0.383,1.039 -0.383,1.673 0,0.658 0.128,1.234 0.383,1.728 C -0.881,5.025 -0.502,5.406 0,5.673 0.502,5.94 1.104,6.075 1.803,6.075 2.511,6.075 3.107,5.947 3.593,5.692 4.078,5.437 4.447,5.074 4.698,4.605 4.949,4.136 5.079,3.581 5.087,2.938 V 2.79 C 5.087,2.741 5.085,2.691 5.081,2.642 5.076,2.593 5.07,2.543 5.062,2.494 h -5.778 l 0.037,1 H 3.815 L 3.235,2.876 C 3.268,3.329 3.237,3.704 3.143,4 3.048,4.296 2.887,4.519 2.661,4.667 2.435,4.815 2.141,4.889 1.778,4.889 1.391,4.889 1.08,4.796 0.846,4.611 0.611,4.426 0.446,4.187 0.353,3.896 0.258,3.603 0.21,3.264 0.21,2.876 0.21,2.449 0.275,2.084 0.407,1.784 0.539,1.483 0.73,1.257 0.981,1.105 1.232,0.953 1.531,0.876 1.877,0.876 c 0.394,0 0.714,0.073 0.957,0.217 0.242,0.143 0.401,0.327 0.475,0.549 H 5.013 C 4.864,0.975 4.515,0.467 3.964,0.117 3.412,-0.233 2.7,-0.408 1.827,-0.408 1.111,-0.408 0.502,-0.271 0,0"
       style="fill:#107abd;fill-opacity:1;fill-rule:nonzero;stroke:none"
       transform="matrix(1.3333333,0,0,-1.3333333,253.0612,54.124267)"
       clip-path="url(#clipPath36)" />
    <path
       id="path37"
       d="m 0,0 c -0.613,0.531 -0.92,1.273 -0.92,2.229 h 1.815 c 0,-0.536 0.173,-0.931 0.519,-1.186 0.345,-0.255 0.81,-0.382 1.395,-0.382 0.535,0 0.942,0.09 1.222,0.271 0.28,0.181 0.42,0.457 0.42,0.827 0,0.247 -0.064,0.449 -0.192,0.605 C 4.132,2.521 3.94,2.65 3.685,2.753 3.43,2.856 3.06,2.969 2.574,3.093 2.492,3.109 2.397,3.134 2.29,3.167 1.615,3.332 1.076,3.504 0.673,3.686 0.27,3.867 -0.048,4.122 -0.278,4.451 c -0.23,0.329 -0.346,0.757 -0.346,1.284 0,0.782 0.297,1.37 0.889,1.765 0.593,0.396 1.379,0.593 2.359,0.593 0.749,0 1.372,-0.111 1.87,-0.333 C 4.992,7.538 5.358,7.231 5.593,6.84 5.828,6.449 5.945,5.999 5.945,5.488 H 4.179 C 4.179,5.85 4.039,6.134 3.759,6.34 3.479,6.546 3.08,6.649 2.562,6.649 2.134,6.649 1.796,6.581 1.549,6.445 1.302,6.309 1.179,6.081 1.179,5.76 1.179,5.529 1.241,5.344 1.364,5.204 1.488,5.064 1.668,4.947 1.907,4.852 2.146,4.757 2.488,4.657 2.932,4.55 H 2.944 2.957 C 3.014,4.542 3.068,4.529 3.117,4.513 3.858,4.332 4.44,4.152 4.864,3.976 5.288,3.798 5.625,3.55 5.877,3.229 6.128,2.908 6.253,2.471 6.253,1.92 6.253,1.081 5.949,0.417 5.34,-0.068 4.73,-0.554 3.862,-0.796 2.734,-0.796 1.524,-0.796 0.613,-0.531 0,0"
       style="fill:#107abd;fill-opacity:1;fill-rule:nonzero;stroke:none"
       transform="matrix(1.3333333,0,0,-1.3333333,140.83333,73.893733)"
       clip-path="url(#clipPath38)" />
    <path
       id="path39"
       d="M 0,0 H 1.605 L 0.42,-2.284 h -0.864 z m -1.667,-9.087 c -0.501,0.272 -0.88,0.648 -1.135,1.13 -0.255,0.481 -0.383,1.039 -0.383,1.673 0,0.658 0.128,1.234 0.383,1.728 0.255,0.494 0.634,0.875 1.135,1.142 0.502,0.268 1.104,0.402 1.803,0.402 0.708,0 1.304,-0.128 1.79,-0.383 C 2.412,-3.65 2.78,-4.013 3.031,-4.481 3.282,-4.951 3.412,-5.506 3.42,-6.148 V -6.297 C 3.42,-6.346 3.418,-6.396 3.414,-6.445 3.41,-6.494 3.404,-6.543 3.396,-6.593 h -5.778 l 0.037,1 H 2.148 L 1.568,-6.21 c 0.033,0.452 0.002,0.827 -0.092,1.124 -0.095,0.295 -0.256,0.518 -0.482,0.666 -0.226,0.148 -0.52,0.222 -0.883,0.222 -0.387,0 -0.697,-0.093 -0.932,-0.278 -0.234,-0.185 -0.399,-0.423 -0.493,-0.715 -0.095,-0.293 -0.143,-0.632 -0.143,-1.019 0,-0.428 0.066,-0.792 0.198,-1.093 0.132,-0.301 0.323,-0.527 0.574,-0.679 0.251,-0.152 0.549,-0.228 0.895,-0.228 0.395,0 0.714,0.072 0.957,0.216 0.243,0.143 0.401,0.327 0.475,0.549 H 3.346 C 3.198,-8.112 2.848,-8.62 2.297,-8.97 1.745,-9.32 1.033,-9.495 0.161,-9.495 c -0.716,0 -1.326,0.137 -1.828,0.408"
       style="fill:#107abd;fill-opacity:1;fill-rule:nonzero;stroke:none"
       transform="matrix(1.3333333,0,0,-1.3333333,154.4876,62.279867)"
       clip-path="url(#clipPath40)" />
    <path
       id="path41"
       d="m 0,0 c -0.494,0.275 -0.866,0.658 -1.117,1.148 -0.251,0.49 -0.377,1.056 -0.377,1.698 0,0.625 0.126,1.183 0.377,1.673 0.251,0.489 0.623,0.87 1.117,1.142 0.494,0.271 1.091,0.407 1.791,0.407 0.617,0 1.152,-0.107 1.605,-0.321 C 3.848,5.533 4.21,5.232 4.482,4.846 4.753,4.459 4.931,4.01 5.013,3.5 H 3.297 C 3.206,3.871 3.033,4.154 2.778,4.352 2.523,4.549 2.198,4.648 1.803,4.648 1.292,4.648 0.903,4.492 0.636,4.179 0.369,3.866 0.235,3.422 0.235,2.846 c 0,-0.395 0.059,-0.729 0.179,-1 C 0.533,1.574 0.71,1.366 0.945,1.222 1.179,1.078 1.465,1.006 1.803,1.006 c 0.395,0 0.72,0.101 0.975,0.303 C 3.033,1.51 3.21,1.796 3.309,2.167 H 5.025 C 4.902,1.376 4.562,0.749 4.007,0.284 3.451,-0.181 2.712,-0.414 1.791,-0.414 1.091,-0.414 0.494,-0.276 0,0"
       style="fill:#107abd;fill-opacity:1;fill-rule:nonzero;stroke:none"
       transform="matrix(1.3333333,0,0,-1.3333333,162.10933,74.3872)"
       clip-path="url(#clipPath42)" />
    <path
       id="path43"
       d="M 0,0 C -0.428,0.218 -0.749,0.545 -0.963,0.981 -1.177,1.417 -1.284,1.965 -1.284,2.624 V 6.043 H 0.407 V 2.624 c 0,-0.379 0.05,-0.676 0.149,-0.89 C 0.654,1.521 0.79,1.368 0.963,1.278 1.136,1.187 1.346,1.142 1.593,1.142 c 0.378,0 0.67,0.109 0.876,0.327 0.206,0.218 0.309,0.603 0.309,1.155 V 6.043 H 4.481 V 2.624 C 4.481,1.636 4.239,0.897 3.753,0.407 3.268,-0.083 2.547,-0.328 1.593,-0.328 0.958,-0.328 0.428,-0.218 0,0"
       style="fill:#107abd;fill-opacity:1;fill-rule:nonzero;stroke:none"
       transform="matrix(1.3333333,0,0,-1.3333333,171.83853,74.502533)"
       clip-path="url(#clipPath44)" />
    <path
       id="path45"
       d="M 0,0 V 3.235 L -0.025,3.704 -0.185,4.84 H 1.42 L 1.654,3.753 c 0.157,0.379 0.377,0.665 0.661,0.858 0.284,0.194 0.656,0.29 1.117,0.29 H 3.766 V 3.124 H 3.321 C 2.852,3.124 2.506,3.074 2.284,2.976 2.062,2.877 1.91,2.698 1.827,2.438 1.745,2.179 1.704,1.782 1.704,1.247 V 0 -1.42 H 0 Z"
       style="fill:#107abd;fill-opacity:1;fill-rule:nonzero;stroke:none"
       transform="matrix(1.3333333,0,0,-1.3333333,179.75653,72.897733)"
       clip-path="url(#clipPath46)" />
    <path
       id="path47"
       d="M 0,0 V 3.42 4.828 H 1.704 V 0 -1.432 l -1.704,0 z m 0.099,6.019 c -0.173,0.161 -0.26,0.389 -0.26,0.685 0,0.28 0.087,0.498 0.26,0.655 0.172,0.156 0.427,0.234 0.765,0.234 0.329,0 0.58,-0.078 0.753,-0.234 C 1.79,7.202 1.876,6.984 1.876,6.704 1.876,6.408 1.792,6.18 1.624,6.019 1.455,5.858 1.202,5.778 0.864,5.778 c -0.338,0 -0.593,0.08 -0.765,0.241"
       style="fill:#107abd;fill-opacity:1;fill-rule:nonzero;stroke:none"
       transform="matrix(1.3333333,0,0,-1.3333333,186.19333,72.881467)"
       clip-path="url(#clipPath48)" />
    <path
       id="path49"
       d="M 0,0 C -0.362,0.169 -0.636,0.449 -0.821,0.84 -1.006,1.23 -1.099,1.751 -1.099,2.401 V 5.698 L -0.58,7.933 H 0.605 V 2.365 C 0.605,2.093 0.634,1.877 0.691,1.716 0.749,1.556 0.852,1.434 1,1.352 1.148,1.27 1.35,1.229 1.605,1.229 H 2.691 V -0.253 H 1.383 C 0.823,-0.253 0.362,-0.168 0,0 M -2.519,6.007 H 2.494 V 4.599 h -5.013 z"
       style="fill:#107abd;fill-opacity:1;fill-rule:nonzero;stroke:none"
       transform="matrix(1.3333333,0,0,-1.3333333,192.94267,74.453733)"
       clip-path="url(#clipPath50)" />
    <path
       id="path51"
       d="M 0,0 H 1.605 L 0.42,-2.284 h -0.864 z m -1.667,-9.087 c -0.502,0.272 -0.88,0.648 -1.135,1.13 -0.256,0.481 -0.383,1.039 -0.383,1.673 0,0.658 0.127,1.234 0.383,1.728 0.255,0.494 0.633,0.875 1.135,1.142 0.502,0.268 1.104,0.402 1.803,0.402 0.708,0 1.304,-0.128 1.79,-0.383 C 2.412,-3.65 2.78,-4.013 3.031,-4.481 3.282,-4.951 3.412,-5.506 3.42,-6.148 V -6.297 C 3.42,-6.346 3.418,-6.396 3.414,-6.445 3.41,-6.494 3.404,-6.543 3.396,-6.593 h -5.779 l 0.037,1 H 2.148 L 1.568,-6.21 c 0.033,0.452 0.002,0.827 -0.092,1.124 -0.095,0.295 -0.256,0.518 -0.482,0.666 -0.226,0.148 -0.52,0.222 -0.883,0.222 -0.387,0 -0.697,-0.093 -0.932,-0.278 -0.234,-0.185 -0.399,-0.423 -0.493,-0.715 -0.095,-0.293 -0.143,-0.632 -0.143,-1.019 0,-0.428 0.066,-0.792 0.198,-1.093 0.132,-0.301 0.323,-0.527 0.574,-0.679 0.251,-0.152 0.549,-0.228 0.895,-0.228 0.395,0 0.714,0.072 0.957,0.216 0.243,0.143 0.401,0.327 0.475,0.549 H 3.346 C 3.198,-8.112 2.848,-8.62 2.297,-8.97 1.745,-9.32 1.033,-9.495 0.161,-9.495 c -0.716,0 -1.326,0.137 -1.828,0.408"
       style="fill:#107abd;fill-opacity:1;fill-rule:nonzero;stroke:none"
       transform="matrix(1.3333333,0,0,-1.3333333,201.48573,62.279867)"
       clip-path="url(#clipPath52)" />
    <path
       id="path53"
       d="M 0,0 V 7.457 H 1.691 V -0.037 L 1.876,-1.371 H 0.284 Z M -0.408,0.419 C -0.136,0.741 0,1.193 0,1.778 0,2.346 -0.138,2.788 -0.414,3.105 -0.689,3.422 -1.065,3.581 -1.543,3.581 -2.029,3.581 -2.407,3.422 -2.679,3.105 -2.95,2.788 -3.086,2.346 -3.086,1.778 c 0,-0.395 0.062,-0.729 0.185,-1 0.124,-0.272 0.3,-0.48 0.531,-0.624 0.23,-0.144 0.506,-0.216 0.827,-0.216 0.486,0 0.864,0.161 1.135,0.481 m -3.123,-1.493 c -0.42,0.271 -0.737,0.652 -0.95,1.142 -0.214,0.49 -0.321,1.059 -0.321,1.71 0,0.634 0.107,1.193 0.321,1.679 0.213,0.485 0.53,0.864 0.95,1.136 C -3.111,4.864 -2.609,5 -2.024,5 -1.489,5 -1.026,4.877 -0.635,4.63 -0.245,4.383 0.053,4.019 0.259,3.537 0.465,3.056 0.568,2.469 0.568,1.778 0.568,1.597 0.563,1.432 0.556,1.284 0.506,0.683 0.37,0.179 0.148,-0.229 c -0.222,-0.407 -0.517,-0.718 -0.882,-0.932 -0.367,-0.214 -0.797,-0.321 -1.29,-0.321 -0.585,0 -1.087,0.136 -1.507,0.408"
       style="fill:#107abd;fill-opacity:1;fill-rule:nonzero;stroke:none"
       transform="matrix(1.3333333,0,0,-1.3333333,217.6836,72.963467)"
       clip-path="url(#clipPath54)" />
    <path
       id="path55"
       d="m 0,0 c -0.502,0.271 -0.881,0.648 -1.136,1.13 -0.255,0.481 -0.383,1.039 -0.383,1.673 0,0.658 0.128,1.234 0.383,1.728 C -0.881,5.025 -0.502,5.406 0,5.673 0.502,5.94 1.103,6.075 1.803,6.075 2.51,6.075 3.107,5.947 3.593,5.692 4.078,5.437 4.447,5.074 4.698,4.605 4.949,4.136 5.079,3.581 5.087,2.938 V 2.79 C 5.087,2.741 5.084,2.691 5.081,2.642 5.076,2.593 5.07,2.543 5.062,2.494 h -5.778 l 0.037,1 H 3.815 L 3.235,2.876 C 3.268,3.329 3.237,3.704 3.142,4 3.047,4.296 2.887,4.519 2.661,4.667 2.434,4.815 2.14,4.889 1.778,4.889 1.391,4.889 1.08,4.796 0.846,4.611 0.611,4.426 0.446,4.187 0.352,3.896 0.257,3.603 0.21,3.264 0.21,2.876 0.21,2.449 0.275,2.084 0.407,1.784 0.539,1.483 0.73,1.257 0.981,1.105 1.232,0.953 1.531,0.876 1.876,0.876 c 0.395,0 0.715,0.073 0.957,0.217 0.243,0.143 0.402,0.327 0.476,0.549 H 5.013 C 4.864,0.975 4.515,0.467 3.963,0.117 3.412,-0.233 2.7,-0.408 1.827,-0.408 1.111,-0.408 0.502,-0.271 0,0"
       style="fill:#107abd;fill-opacity:1;fill-rule:nonzero;stroke:none"
       transform="matrix(1.3333333,0,0,-1.3333333,223.5768,74.395733)"
       clip-path="url(#clipPath56)" />
    <path
       id="path57"
       d="M 0,0 C -0.333,0.173 -0.574,0.442 -0.722,0.809 -0.87,1.175 -0.944,1.662 -0.944,2.271 V 7.235 8.63 H 0.759 V 2.222 C 0.759,1.975 0.786,1.78 0.84,1.636 0.893,1.492 0.984,1.387 1.111,1.321 1.239,1.255 1.414,1.222 1.636,1.222 h 0.58 V -0.259 H 1.315 C 0.772,-0.259 0.333,-0.173 0,0"
       style="fill:#107abd;fill-opacity:1;fill-rule:nonzero;stroke:none"
       transform="matrix(1.3333333,0,0,-1.3333333,237.2148,74.5272)"
       clip-path="url(#clipPath58)" />
    <path
       id="path59"
       d="M 0,0 V 3.507 L 0.234,4.865 H 1.691 V -0.037 L 1.877,-1.395 H 0.284 Z M -0.407,0.395 C -0.136,0.716 0,1.169 0,1.753 c 0,0.568 -0.136,1.011 -0.407,1.328 -0.272,0.316 -0.651,0.475 -1.136,0.475 -0.486,0 -0.863,-0.159 -1.13,-0.475 -0.267,-0.317 -0.401,-0.76 -0.401,-1.328 0,-0.395 0.059,-0.728 0.178,-1 0.12,-0.272 0.295,-0.479 0.525,-0.623 0.231,-0.144 0.507,-0.216 0.828,-0.216 0.485,0 0.864,0.16 1.136,0.481 m -3.118,-1.494 c -0.424,0.272 -0.743,0.653 -0.957,1.142 -0.214,0.49 -0.321,1.06 -0.321,1.71 0,0.634 0.107,1.194 0.321,1.68 0.214,0.485 0.533,0.864 0.957,1.135 0.424,0.272 0.928,0.408 1.512,0.408 0.535,0 0.998,-0.123 1.39,-0.371 C -0.232,4.358 0.068,3.994 0.278,3.513 0.488,3.031 0.593,2.445 0.593,1.753 0.593,1.572 0.585,1.408 0.568,1.259 0.526,0.659 0.396,0.154 0.173,-0.253 -0.049,-0.66 -0.346,-0.971 -0.716,-1.185 c -0.37,-0.214 -0.803,-0.321 -1.297,-0.321 -0.584,0 -1.088,0.136 -1.512,0.407"
       style="fill:#107abd;fill-opacity:1;fill-rule:nonzero;stroke:none"
       transform="matrix(1.3333333,0,0,-1.3333333,247.16667,72.930933)"
       clip-path="url(#clipPath60)" />
    <path
       id="path61"
       d="m 0,0 c -0.679,0.378 -1.204,0.903 -1.574,1.574 -0.37,0.671 -0.556,1.443 -0.556,2.315 0,0.864 0.186,1.632 0.556,2.303 0.37,0.671 0.895,1.193 1.574,1.568 0.679,0.374 1.467,0.562 2.364,0.562 0.799,0 1.509,-0.146 2.13,-0.439 C 5.115,7.591 5.622,7.18 6.013,6.649 6.403,6.118 6.661,5.499 6.784,4.791 H 4.957 C 4.801,5.408 4.498,5.883 4.05,6.217 3.601,6.55 3.039,6.717 2.364,6.717 1.821,6.717 1.346,6.604 0.938,6.377 0.531,6.151 0.216,5.824 -0.006,5.396 -0.229,4.968 -0.34,4.458 -0.34,3.865 -0.34,3.272 -0.229,2.764 -0.006,2.34 0.216,1.916 0.531,1.593 0.938,1.371 1.346,1.148 1.821,1.037 2.364,1.037 c 0.675,0 1.24,0.167 1.692,0.5 0.453,0.334 0.753,0.801 0.901,1.401 h 1.84 C 6.665,2.239 6.403,1.625 6.013,1.099 5.622,0.572 5.115,0.163 4.494,-0.129 3.873,-0.422 3.163,-0.568 2.364,-0.568 1.467,-0.568 0.679,-0.378 0,0"
       style="fill:#107abd;fill-opacity:1;fill-rule:nonzero;stroke:none"
       transform="matrix(1.3333333,0,0,-1.3333333,258.1224,74.1984)"
       clip-path="url(#clipPath62)" />
    <path
       id="path63"
       d="M 0,0 H 1.703 V -3.852 L 1.506,-3.63 c 0.189,0.396 0.459,0.69 0.808,0.883 0.35,0.193 0.76,0.29 1.229,0.29 0.807,0 1.394,-0.239 1.76,-0.716 0.366,-0.477 0.549,-1.181 0.549,-2.111 V -8.828 H 4.148 v 3.347 c 0,0.534 -0.099,0.936 -0.296,1.203 -0.198,0.267 -0.498,0.402 -0.902,0.402 -0.428,0 -0.742,-0.135 -0.944,-0.402 C 1.804,-4.545 1.703,-4.955 1.703,-5.506 V -8.828 H 0 Z"
       style="fill:#107abd;fill-opacity:1;fill-rule:nonzero;stroke:none"
       transform="matrix(1.3333333,0,0,-1.3333333,268.63413,63.020667)"
       clip-path="url(#clipPath64)" />
    <path
       id="path65"
       d="M 0,0 V 3.507 L 0.234,4.865 H 1.691 V -0.037 L 1.876,-1.395 H 0.283 Z M -0.408,0.395 C -0.136,0.716 0,1.169 0,1.753 0,2.321 -0.136,2.764 -0.408,3.081 -0.68,3.397 -1.058,3.556 -1.544,3.556 -2.029,3.556 -2.405,3.397 -2.673,3.081 -2.94,2.764 -3.074,2.321 -3.074,1.753 c 0,-0.395 0.059,-0.728 0.178,-1 0.121,-0.272 0.295,-0.479 0.526,-0.623 0.23,-0.144 0.506,-0.216 0.826,-0.216 0.486,0 0.864,0.16 1.136,0.481 m -3.116,-1.494 c -0.425,0.272 -0.744,0.653 -0.957,1.142 -0.214,0.49 -0.322,1.06 -0.322,1.71 0,0.634 0.108,1.194 0.322,1.68 0.213,0.485 0.532,0.864 0.957,1.135 0.423,0.272 0.927,0.408 1.511,0.408 0.535,0 0.998,-0.123 1.389,-0.371 C -0.233,4.358 0.067,3.994 0.277,3.513 0.487,3.031 0.593,2.445 0.593,1.753 0.593,1.572 0.584,1.408 0.567,1.259 0.526,0.659 0.395,0.154 0.173,-0.253 -0.05,-0.66 -0.346,-0.971 -0.717,-1.185 c -0.37,-0.214 -0.802,-0.321 -1.296,-0.321 -0.584,0 -1.088,0.136 -1.511,0.407"
       style="fill:#107abd;fill-opacity:1;fill-rule:nonzero;stroke:none"
       transform="matrix(1.3333333,0,0,-1.3333333,284.3216,72.930933)"
       clip-path="url(#clipPath66)" />
    <path
       id="path67"
       d="M 0,0 V 3.42 4.828 H 1.703 V 0 -1.432 L 0,-1.432 Z M 0.147,7.951 H 1.543 L 2.987,5.667 H 2.21 L 0.629,7 H 1.086 L -0.507,5.667 h -0.777 z"
       style="fill:#107abd;fill-opacity:1;fill-rule:nonzero;stroke:none"
       transform="matrix(1.3333333,0,0,-1.3333333,288.668,72.881467)"
       clip-path="url(#clipPath68)" />
    <path
       id="path69"
       d="M 0,0 -0.186,1.333 H 1.42 L 1.729,-0.086 1.432,0.111 c 0.181,0.445 0.453,0.778 0.815,1 0.362,0.222 0.798,0.334 1.309,0.334 0.798,0 1.381,-0.239 1.747,-0.716 0.366,-0.478 0.549,-1.182 0.549,-2.112 V -4.926 H 4.148 v 3.346 c 0,0.543 -0.098,0.946 -0.296,1.21 C 3.654,-0.107 3.354,0.025 2.95,0.025 2.522,0.025 2.208,-0.109 2.006,-0.376 1.805,-0.644 1.703,-1.058 1.703,-1.617 V -4.926 H 0 Z"
       style="fill:#107abd;fill-opacity:1;fill-rule:nonzero;stroke:none"
       transform="matrix(1.3333333,0,0,-1.3333333,292.99733,68.222533)"
       clip-path="url(#clipPath70)" />
    <path
       id="path71"
       d="m 0,0 c -0.502,0.271 -0.881,0.648 -1.136,1.13 -0.255,0.481 -0.383,1.039 -0.383,1.673 0,0.658 0.128,1.234 0.383,1.728 C -0.881,5.025 -0.502,5.406 0,5.673 0.502,5.94 1.104,6.075 1.803,6.075 2.511,6.075 3.107,5.947 3.593,5.692 4.078,5.437 4.447,5.074 4.698,4.605 4.949,4.136 5.079,3.581 5.087,2.938 V 2.79 C 5.087,2.741 5.085,2.691 5.081,2.642 5.076,2.593 5.07,2.543 5.062,2.494 h -5.778 l 0.037,1 H 3.815 L 3.235,2.876 C 3.268,3.329 3.237,3.704 3.143,4 3.048,4.296 2.887,4.519 2.661,4.667 2.435,4.815 2.141,4.889 1.778,4.889 1.391,4.889 1.08,4.796 0.846,4.611 0.611,4.426 0.446,4.187 0.353,3.896 0.258,3.603 0.21,3.264 0.21,2.876 0.21,2.449 0.275,2.084 0.407,1.784 0.539,1.483 0.73,1.257 0.981,1.105 1.232,0.953 1.531,0.876 1.877,0.876 c 0.394,0 0.714,0.073 0.957,0.217 0.242,0.143 0.401,0.327 0.475,0.549 H 5.013 C 4.864,0.975 4.515,0.467 3.964,0.117 3.412,-0.233 2.7,-0.408 1.827,-0.408 1.111,-0.408 0.502,-0.271 0,0"
       style="fill:#107abd;fill-opacity:1;fill-rule:nonzero;stroke:none"
       transform="matrix(1.3333333,0,0,-1.3333333,304.306,74.395733)"
       clip-path="url(#clipPath72)" />
    <path
       id="path73"
       d="M 0,0 V 3.507 L 0.234,4.865 H 1.691 V -0.037 L 1.877,-1.395 H 0.284 Z M -0.407,0.395 C -0.136,0.716 0,1.169 0,1.753 c 0,0.568 -0.136,1.011 -0.407,1.328 -0.272,0.316 -0.651,0.475 -1.136,0.475 -0.486,0 -0.862,-0.159 -1.13,-0.475 -0.267,-0.317 -0.401,-0.76 -0.401,-1.328 0,-0.395 0.059,-0.728 0.178,-1 0.121,-0.272 0.295,-0.479 0.526,-0.623 0.23,-0.144 0.506,-0.216 0.827,-0.216 0.485,0 0.864,0.16 1.136,0.481 m -3.117,-1.494 c -0.425,0.272 -0.744,0.653 -0.957,1.142 -0.214,0.49 -0.322,1.06 -0.322,1.71 0,0.634 0.108,1.194 0.322,1.68 0.213,0.485 0.532,0.864 0.957,1.135 0.423,0.272 0.927,0.408 1.511,0.408 0.535,0 0.998,-0.123 1.39,-0.371 C -0.232,4.358 0.068,3.994 0.278,3.513 0.488,3.031 0.593,2.445 0.593,1.753 0.593,1.572 0.585,1.408 0.568,1.259 0.526,0.659 0.396,0.154 0.173,-0.253 -0.049,-0.66 -0.346,-0.971 -0.716,-1.185 c -0.37,-0.214 -0.803,-0.321 -1.297,-0.321 -0.584,0 -1.088,0.136 -1.511,0.407"
       style="fill:#107abd;fill-opacity:1;fill-rule:nonzero;stroke:none"
       transform="matrix(1.3333333,0,0,-1.3333333,322.72653,72.930933)"
       clip-path="url(#clipPath74)" />
    <path
       id="path75"
       d="M 0,0 C -0.333,0.173 -0.573,0.442 -0.722,0.809 -0.87,1.175 -0.944,1.662 -0.944,2.271 V 7.235 8.63 H 0.76 V 2.222 C 0.76,1.975 0.786,1.78 0.84,1.636 0.894,1.492 0.984,1.387 1.111,1.321 1.239,1.255 1.414,1.222 1.637,1.222 h 0.58 V -0.259 H 1.315 C 0.772,-0.259 0.334,-0.173 0,0"
       style="fill:#107abd;fill-opacity:1;fill-rule:nonzero;stroke:none"
       transform="matrix(1.3333333,0,0,-1.3333333,328.23307,74.5272)"
       clip-path="url(#clipPath76)" />
    <path
       id="path77"
       d="M 0,0 V 3.42 4.828 H 1.703 V 0 -1.432 l -1.703,0 z m 0.099,6.019 c -0.173,0.161 -0.26,0.389 -0.26,0.685 0,0.28 0.087,0.498 0.26,0.655 0.172,0.156 0.427,0.234 0.765,0.234 0.329,0 0.58,-0.078 0.753,-0.234 C 1.79,7.202 1.876,6.984 1.876,6.704 1.876,6.408 1.792,6.18 1.623,6.019 1.454,5.858 1.201,5.778 0.864,5.778 c -0.338,0 -0.593,0.08 -0.765,0.241"
       style="fill:#107abd;fill-opacity:1;fill-rule:nonzero;stroke:none"
       transform="matrix(1.3333333,0,0,-1.3333333,332.5716,72.881467)"
       clip-path="url(#clipPath78)" />
    <path
       id="path79"
       d="M 0,0 -0.186,1.333 H 1.42 L 1.729,-0.062 1.42,0.124 C 1.601,0.56 1.859,0.889 2.197,1.111 2.535,1.333 2.934,1.445 3.396,1.445 3.93,1.445 4.36,1.319 4.686,1.068 5.011,0.817 5.238,0.444 5.37,-0.049 L 5.087,-0.037 C 5.251,0.44 5.515,0.807 5.877,1.062 6.239,1.317 6.675,1.445 7.186,1.445 7.942,1.445 8.494,1.21 8.84,0.741 9.186,0.271 9.358,-0.437 9.358,-1.383 V -4.926 H 7.654 v 3.42 c 0,0.37 -0.039,0.669 -0.117,0.895 -0.078,0.226 -0.195,0.389 -0.351,0.487 -0.157,0.1 -0.346,0.149 -0.569,0.149 -0.362,0 -0.634,-0.124 -0.814,-0.371 -0.182,-0.247 -0.272,-0.633 -0.272,-1.16 v -3.42 H 3.827 v 3.42 c 0,0.37 -0.041,0.669 -0.123,0.895 -0.083,0.226 -0.2,0.389 -0.352,0.487 -0.153,0.1 -0.339,0.149 -0.562,0.149 -0.362,0 -0.634,-0.124 -0.814,-0.371 -0.182,-0.247 -0.273,-0.633 -0.273,-1.16 v -3.42 H 0 Z"
       style="fill:#107abd;fill-opacity:1;fill-rule:nonzero;stroke:none"
       transform="matrix(1.3333333,0,0,-1.3333333,336.90107,68.222533)"
       clip-path="url(#clipPath80)" />
    <path
       id="path81"
       d="m 0,0 c -0.503,0.271 -0.881,0.648 -1.136,1.13 -0.256,0.481 -0.383,1.039 -0.383,1.673 0,0.658 0.127,1.234 0.383,1.728 C -0.881,5.025 -0.503,5.406 0,5.673 0.502,5.94 1.103,6.075 1.803,6.075 2.51,6.075 3.106,5.947 3.593,5.692 4.078,5.437 4.446,5.074 4.697,4.605 4.948,4.136 5.078,3.581 5.087,2.938 V 2.79 C 5.087,2.741 5.084,2.691 5.08,2.642 5.076,2.593 5.07,2.543 5.062,2.494 h -5.779 l 0.037,1 H 3.814 L 3.234,2.876 C 3.268,3.329 3.236,3.704 3.142,4 3.047,4.296 2.887,4.519 2.66,4.667 2.434,4.815 2.14,4.889 1.777,4.889 1.391,4.889 1.08,4.796 0.846,4.611 0.611,4.426 0.446,4.187 0.352,3.896 0.257,3.603 0.21,3.264 0.21,2.876 0.21,2.449 0.275,2.084 0.407,1.784 0.539,1.483 0.73,1.257 0.981,1.105 1.232,0.953 1.53,0.876 1.876,0.876 c 0.395,0 0.715,0.073 0.957,0.217 0.243,0.143 0.401,0.327 0.476,0.549 H 5.013 C 4.864,0.975 4.515,0.467 3.963,0.117 3.411,-0.233 2.699,-0.408 1.827,-0.408 1.111,-0.408 0.502,-0.271 0,0"
       style="fill:#107abd;fill-opacity:1;fill-rule:nonzero;stroke:none"
       transform="matrix(1.3333333,0,0,-1.3333333,352.88547,74.395733)"
       clip-path="url(#clipPath82)" />
    <path
       id="path83"
       d="M 0,0 -0.186,1.333 H 1.42 L 1.729,-0.086 1.432,0.111 c 0.181,0.445 0.453,0.778 0.815,1 0.362,0.222 0.798,0.334 1.309,0.334 0.798,0 1.381,-0.239 1.747,-0.716 0.366,-0.478 0.549,-1.182 0.549,-2.112 V -4.926 H 4.148 v 3.346 c 0,0.543 -0.098,0.946 -0.296,1.21 C 3.654,-0.107 3.354,0.025 2.95,0.025 2.522,0.025 2.208,-0.109 2.006,-0.376 1.805,-0.644 1.703,-1.058 1.703,-1.617 V -4.926 H 0 Z"
       style="fill:#107abd;fill-opacity:1;fill-rule:nonzero;stroke:none"
       transform="matrix(1.3333333,0,0,-1.3333333,361.2148,68.222533)"
       clip-path="url(#clipPath84)" />
    <path
       id="path85"
       d="M 0,0 C -0.362,0.169 -0.636,0.449 -0.821,0.84 -1.007,1.23 -1.099,1.751 -1.099,2.401 V 5.698 L -0.58,7.933 H 0.604 V 2.365 C 0.604,2.093 0.634,1.877 0.691,1.716 0.749,1.556 0.852,1.434 1,1.352 1.148,1.27 1.35,1.229 1.604,1.229 H 2.691 V -0.253 H 1.383 C 0.822,-0.253 0.362,-0.168 0,0 M -2.519,6.007 H 2.494 V 4.599 h -5.013 z"
       style="fill:#107abd;fill-opacity:1;fill-rule:nonzero;stroke:none"
       transform="matrix(1.3333333,0,0,-1.3333333,373.2812,74.453733)"
       clip-path="url(#clipPath86)" />
    <path
       id="path87"
       d="M 0,0 V 3.507 L 0.234,4.865 H 1.691 V -0.037 L 1.876,-1.395 H 0.283 Z M -0.408,0.395 C -0.136,0.716 0,1.169 0,1.753 0,2.321 -0.136,2.764 -0.408,3.081 -0.68,3.397 -1.058,3.556 -1.544,3.556 -2.029,3.556 -2.406,3.397 -2.673,3.081 -2.94,2.764 -3.074,2.321 -3.074,1.753 c 0,-0.395 0.059,-0.728 0.178,-1 0.12,-0.272 0.294,-0.479 0.525,-0.623 0.23,-0.144 0.507,-0.216 0.827,-0.216 0.486,0 0.864,0.16 1.136,0.481 m -3.117,-1.494 c -0.424,0.272 -0.744,0.653 -0.957,1.142 -0.214,0.49 -0.321,1.06 -0.321,1.71 0,0.634 0.107,1.194 0.321,1.68 0.213,0.485 0.533,0.864 0.957,1.135 0.423,0.272 0.927,0.408 1.512,0.408 0.535,0 0.998,-0.123 1.389,-0.371 C -0.233,4.358 0.067,3.994 0.277,3.513 0.487,3.031 0.593,2.445 0.593,1.753 0.593,1.572 0.584,1.408 0.567,1.259 0.526,0.659 0.395,0.154 0.173,-0.253 -0.05,-0.66 -0.346,-0.971 -0.717,-1.185 c -0.37,-0.214 -0.802,-0.321 -1.296,-0.321 -0.585,0 -1.089,0.136 -1.512,0.407"
       style="fill:#107abd;fill-opacity:1;fill-rule:nonzero;stroke:none"
       transform="matrix(1.3333333,0,0,-1.3333333,383.98173,72.930933)"
       clip-path="url(#clipPath88)" />
    <path
       id="path89"
       d="M 0,0 V 3.42 4.828 H 1.703 V 0 -1.432 l -1.703,0 z m 0.099,6.019 c -0.173,0.161 -0.26,0.389 -0.26,0.685 0,0.28 0.087,0.498 0.26,0.655 0.172,0.156 0.427,0.234 0.765,0.234 0.329,0 0.58,-0.078 0.753,-0.234 C 1.79,7.202 1.876,6.984 1.876,6.704 1.876,6.408 1.792,6.18 1.623,6.019 1.454,5.858 1.201,5.778 0.864,5.778 c -0.338,0 -0.593,0.08 -0.765,0.241"
       style="fill:#107abd;fill-opacity:1;fill-rule:nonzero;stroke:none"
       transform="matrix(1.3333333,0,0,-1.3333333,388.32813,72.881467)"
       clip-path="url(#clipPath90)" />
    <path
       id="path91"
       d="M 0,0 V 3.235 L -0.025,3.704 -0.186,4.84 H 1.42 L 1.654,3.753 c 0.157,0.379 0.377,0.665 0.66,0.858 0.285,0.194 0.657,0.29 1.118,0.29 H 3.766 V 3.124 H 3.321 C 2.852,3.124 2.506,3.074 2.284,2.976 2.062,2.877 1.909,2.698 1.827,2.438 1.745,2.179 1.703,1.782 1.703,1.247 V 0 -1.42 H 0 Z"
       style="fill:#107abd;fill-opacity:1;fill-rule:nonzero;stroke:none"
       transform="matrix(1.3333333,0,0,-1.3333333,392.6576,72.897733)"
       clip-path="url(#clipPath92)" />
    <path
       id="path93"
       d="m 0,0 c -0.502,0.271 -0.881,0.648 -1.136,1.13 -0.255,0.481 -0.383,1.039 -0.383,1.673 0,0.658 0.128,1.234 0.383,1.728 C -0.881,5.025 -0.502,5.406 0,5.673 0.502,5.94 1.104,6.075 1.803,6.075 2.511,6.075 3.107,5.947 3.593,5.692 4.078,5.437 4.447,5.074 4.698,4.605 4.949,4.136 5.079,3.581 5.087,2.938 V 2.79 C 5.087,2.741 5.085,2.691 5.081,2.642 5.076,2.593 5.07,2.543 5.062,2.494 h -5.778 l 0.037,1 H 3.815 L 3.235,2.876 C 3.268,3.329 3.237,3.704 3.143,4 3.048,4.296 2.887,4.519 2.661,4.667 2.435,4.815 2.141,4.889 1.778,4.889 1.391,4.889 1.08,4.796 0.846,4.611 0.611,4.426 0.446,4.187 0.353,3.896 0.258,3.603 0.21,3.264 0.21,2.876 0.21,2.449 0.275,2.084 0.407,1.784 0.539,1.483 0.73,1.257 0.981,1.105 1.232,0.953 1.531,0.876 1.877,0.876 c 0.394,0 0.714,0.073 0.957,0.217 0.242,0.143 0.401,0.327 0.475,0.549 H 5.013 C 4.864,0.975 4.515,0.467 3.964,0.117 3.412,-0.233 2.7,-0.408 1.827,-0.408 1.111,-0.408 0.502,-0.271 0,0"
       style="fill:#107abd;fill-opacity:1;fill-rule:nonzero;stroke:none"
       transform="matrix(1.3333333,0,0,-1.3333333,400.34507,74.395733)"
       clip-path="url(#clipPath94)" />
    <path
       id="path95"
       d="m 106.878,37.007 h 3.976 v -1.396 h -3.976 z m -1.284,-4.76 c -0.214,0.21 -0.321,0.48 -0.321,0.809 v 7.519 h 6.111 v -1.568 h -4.827 l 0.469,0.407 v -6.321 l -0.469,0.407 h 4.827 v -1.568 h -4.988 c -0.32,0 -0.588,0.105 -0.802,0.315"
       style="fill:#107abd;fill-opacity:1;fill-rule:nonzero;stroke:none"
       transform="matrix(1.3333333,0,0,-1.3333333,0,137.63867)"
       clip-path="url(#clipPath96)" />
    <path
       id="path97"
       d="M 0,0 -0.185,1.333 H 1.419 L 1.728,-0.086 1.432,0.111 c 0.181,0.445 0.452,0.778 0.815,1 0.362,0.222 0.798,0.334 1.308,0.334 0.799,0 1.381,-0.239 1.747,-0.716 0.366,-0.478 0.55,-1.182 0.55,-2.112 V -4.926 H 4.148 v 3.346 c 0,0.543 -0.099,0.946 -0.296,1.21 C 3.654,-0.107 3.354,0.025 2.95,0.025 2.522,0.025 2.208,-0.109 2.006,-0.376 1.804,-0.644 1.703,-1.058 1.703,-1.617 V -4.926 H 0 Z"
       style="fill:#107abd;fill-opacity:1;fill-rule:nonzero;stroke:none"
       transform="matrix(1.3333333,0,0,-1.3333333,150.27413,88.494)"
       clip-path="url(#clipPath98)" />
    <path
       id="path99"
       d="M 0,0 C -0.16,0.086 -0.29,0.208 -0.389,0.364 -0.487,0.521 -0.59,0.73 -0.697,0.994 l -2.074,5.272 h 1.777 L 0.624,1.723 2.253,6.266 H 4.031 L 1.957,0.994 C 1.85,0.73 1.747,0.523 1.648,0.371 1.55,0.218 1.418,0.097 1.253,0.006 1.088,-0.084 0.879,-0.129 0.624,-0.129 0.369,-0.129 0.161,-0.086 0,0"
       style="fill:#107abd;fill-opacity:1;fill-rule:nonzero;stroke:none"
       transform="matrix(1.3333333,0,0,-1.3333333,162.41347,95.0708)"
       clip-path="url(#clipPath100)" />
    <path
       id="path101"
       d="M 0,0 V 3.42 4.828 H 1.704 V 0 -1.432 l -1.704,0 z m 0.099,6.019 c -0.173,0.161 -0.26,0.389 -0.26,0.685 0,0.28 0.087,0.498 0.26,0.655 0.172,0.156 0.427,0.234 0.765,0.234 0.329,0 0.58,-0.078 0.753,-0.234 C 1.79,7.202 1.876,6.984 1.876,6.704 1.876,6.408 1.792,6.18 1.624,6.019 1.455,5.858 1.202,5.778 0.864,5.778 c -0.338,0 -0.593,0.08 -0.765,0.241"
       style="fill:#107abd;fill-opacity:1;fill-rule:nonzero;stroke:none"
       transform="matrix(1.3333333,0,0,-1.3333333,169.02347,93.152933)"
       clip-path="url(#clipPath102)" />
    <path
       id="path103"
       d="M 0,0 V 3.235 L -0.025,3.704 -0.185,4.84 H 1.42 L 1.654,3.753 c 0.157,0.379 0.377,0.665 0.661,0.858 0.284,0.194 0.656,0.29 1.117,0.29 H 3.766 V 3.124 H 3.321 C 2.852,3.124 2.506,3.074 2.284,2.976 2.062,2.877 1.91,2.698 1.827,2.438 1.745,2.179 1.704,1.782 1.704,1.247 V 0 -1.42 H 0 Z"
       style="fill:#107abd;fill-opacity:1;fill-rule:nonzero;stroke:none"
       transform="matrix(1.3333333,0,0,-1.3333333,173.3528,93.1692)"
       clip-path="url(#clipPath104)" />
    <path
       id="path105"
       d="m 0,0 c 0.279,0.321 0.419,0.774 0.419,1.358 0,0.379 -0.063,0.702 -0.191,0.97 -0.127,0.267 -0.312,0.473 -0.555,0.617 -0.243,0.144 -0.537,0.216 -0.883,0.216 -0.511,0 -0.904,-0.159 -1.179,-0.475 -0.276,-0.317 -0.414,-0.76 -0.414,-1.328 0,-0.395 0.062,-0.728 0.185,-1 0.124,-0.272 0.305,-0.479 0.544,-0.623 0.238,-0.144 0.526,-0.216 0.864,-0.216 0.526,0 0.93,0.16 1.21,0.481 m -3.019,-1.487 c -0.498,0.275 -0.875,0.658 -1.129,1.148 -0.256,0.489 -0.383,1.055 -0.383,1.697 0,0.626 0.127,1.184 0.383,1.673 0.254,0.49 0.631,0.871 1.129,1.142 0.498,0.272 1.105,0.408 1.821,0.408 0.708,0 1.313,-0.136 1.815,-0.408 C 1.119,3.902 1.5,3.521 1.759,3.031 2.019,2.542 2.148,1.984 2.148,1.358 2.148,0.716 2.019,0.15 1.759,-0.339 1.5,-0.829 1.119,-1.212 0.617,-1.487 0.115,-1.763 -0.49,-1.901 -1.198,-1.901 c -0.716,0 -1.323,0.138 -1.821,0.414"
       style="fill:#107abd;fill-opacity:1;fill-rule:nonzero;stroke:none"
       transform="matrix(1.3333333,0,0,-1.3333333,185.058,92.675733)"
       clip-path="url(#clipPath106)" />
    <path
       id="path107"
       d="M 0,0 -0.185,1.333 H 1.42 L 1.729,-0.086 1.432,0.111 c 0.181,0.445 0.453,0.778 0.815,1 0.362,0.222 0.798,0.334 1.309,0.334 0.798,0 1.381,-0.239 1.747,-0.716 0.366,-0.478 0.549,-1.182 0.549,-2.112 V -4.926 H 4.148 v 3.346 c 0,0.543 -0.098,0.946 -0.296,1.21 C 3.655,-0.107 3.354,0.025 2.951,0.025 2.523,0.025 2.208,-0.109 2.006,-0.376 1.805,-0.644 1.704,-1.058 1.704,-1.617 V -4.926 H 0 Z"
       style="fill:#107abd;fill-opacity:1;fill-rule:nonzero;stroke:none"
       transform="matrix(1.3333333,0,0,-1.3333333,189.51893,88.494)"
       clip-path="url(#clipPath108)" />
    <path
       id="path109"
       d="M 0,0 -0.185,1.333 H 1.42 L 1.729,-0.086 1.432,0.111 c 0.181,0.445 0.453,0.778 0.815,1 0.362,0.222 0.798,0.334 1.309,0.334 0.798,0 1.381,-0.239 1.747,-0.716 0.366,-0.478 0.549,-1.182 0.549,-2.112 V -4.926 H 4.148 v 3.346 c 0,0.543 -0.098,0.946 -0.296,1.21 C 3.655,-0.107 3.354,0.025 2.951,0.025 2.523,0.025 2.208,-0.109 2.006,-0.376 1.805,-0.644 1.704,-1.058 1.704,-1.617 V -4.926 H 0 Z"
       style="fill:#107abd;fill-opacity:1;fill-rule:nonzero;stroke:none"
       transform="matrix(1.3333333,0,0,-1.3333333,199.28053,88.494)"
       clip-path="url(#clipPath110)" />
    <path
       id="path111"
       d="m 0,0 c -0.502,0.271 -0.881,0.648 -1.136,1.13 -0.255,0.481 -0.383,1.039 -0.383,1.673 0,0.658 0.128,1.234 0.383,1.728 C -0.881,5.025 -0.502,5.406 0,5.673 0.502,5.94 1.103,6.075 1.803,6.075 2.51,6.075 3.107,5.947 3.593,5.692 4.078,5.437 4.447,5.074 4.697,4.605 4.948,4.136 5.078,3.581 5.086,2.938 V 2.79 C 5.086,2.741 5.084,2.691 5.08,2.642 5.076,2.593 5.07,2.543 5.062,2.494 h -5.778 l 0.037,1 H 3.815 L 3.235,2.876 C 3.268,3.329 3.237,3.704 3.142,4 3.047,4.296 2.887,4.519 2.661,4.667 2.434,4.815 2.14,4.889 1.778,4.889 1.391,4.889 1.08,4.796 0.846,4.611 0.611,4.426 0.446,4.187 0.352,3.896 0.257,3.603 0.21,3.264 0.21,2.876 0.21,2.449 0.275,2.084 0.407,1.784 0.539,1.483 0.73,1.257 0.981,1.105 1.232,0.953 1.531,0.876 1.876,0.876 c 0.395,0 0.715,0.073 0.957,0.217 0.243,0.143 0.402,0.327 0.476,0.549 H 5.012 C 4.864,0.975 4.515,0.467 3.963,0.117 3.412,-0.233 2.7,-0.408 1.827,-0.408 1.111,-0.408 0.502,-0.271 0,0"
       style="fill:#107abd;fill-opacity:1;fill-rule:nonzero;stroke:none"
       transform="matrix(1.3333333,0,0,-1.3333333,210.58987,94.6672)"
       clip-path="url(#clipPath112)" />
    <path
       id="path113"
       d="M 0,0 -0.185,1.333 H 1.42 L 1.729,-0.062 1.42,0.124 C 1.601,0.56 1.86,0.889 2.198,1.111 2.535,1.333 2.934,1.445 3.396,1.445 3.93,1.445 4.36,1.319 4.686,1.068 5.011,0.817 5.239,0.444 5.371,-0.049 L 5.087,-0.037 C 5.251,0.44 5.515,0.807 5.877,1.062 6.239,1.317 6.675,1.445 7.186,1.445 7.943,1.445 8.495,1.21 8.84,0.741 9.186,0.271 9.359,-0.437 9.359,-1.383 V -4.926 H 7.655 v 3.42 c 0,0.37 -0.039,0.669 -0.117,0.895 -0.079,0.226 -0.196,0.389 -0.352,0.487 -0.157,0.1 -0.346,0.149 -0.568,0.149 -0.363,0 -0.634,-0.124 -0.815,-0.371 -0.181,-0.247 -0.272,-0.633 -0.272,-1.16 v -3.42 H 3.828 v 3.42 c 0,0.37 -0.042,0.669 -0.124,0.895 -0.082,0.226 -0.2,0.389 -0.352,0.487 C 3.2,-0.024 3.013,0.025 2.791,0.025 2.428,0.025 2.156,-0.099 1.976,-0.346 1.794,-0.593 1.704,-0.979 1.704,-1.506 v -3.42 H 0 Z"
       style="fill:#107abd;fill-opacity:1;fill-rule:nonzero;stroke:none"
       transform="matrix(1.3333333,0,0,-1.3333333,218.91867,88.494)"
       clip-path="url(#clipPath114)" />
    <path
       id="path115"
       d="m 0,0 c -0.502,0.271 -0.881,0.648 -1.136,1.13 -0.255,0.481 -0.383,1.039 -0.383,1.673 0,0.658 0.128,1.234 0.383,1.728 C -0.881,5.025 -0.502,5.406 0,5.673 0.502,5.94 1.103,6.075 1.803,6.075 2.51,6.075 3.107,5.947 3.593,5.692 4.078,5.437 4.447,5.074 4.698,4.605 4.949,4.136 5.079,3.581 5.087,2.938 V 2.79 C 5.087,2.741 5.084,2.691 5.081,2.642 5.076,2.593 5.07,2.543 5.062,2.494 h -5.778 l 0.037,1 H 3.815 L 3.235,2.876 C 3.268,3.329 3.237,3.704 3.142,4 3.047,4.296 2.887,4.519 2.661,4.667 2.434,4.815 2.14,4.889 1.778,4.889 1.391,4.889 1.08,4.796 0.846,4.611 0.611,4.426 0.446,4.187 0.352,3.896 0.257,3.603 0.21,3.264 0.21,2.876 0.21,2.449 0.275,2.084 0.407,1.784 0.539,1.483 0.73,1.257 0.981,1.105 1.232,0.953 1.531,0.876 1.876,0.876 c 0.395,0 0.715,0.073 0.957,0.217 0.243,0.143 0.402,0.327 0.476,0.549 H 5.013 C 4.864,0.975 4.515,0.467 3.963,0.117 3.412,-0.233 2.7,-0.408 1.827,-0.408 1.111,-0.408 0.502,-0.271 0,0"
       style="fill:#107abd;fill-opacity:1;fill-rule:nonzero;stroke:none"
       transform="matrix(1.3333333,0,0,-1.3333333,234.9036,94.6672)"
       clip-path="url(#clipPath116)" />
    <path
       id="path117"
       d="M 0,0 -0.185,1.333 H 1.42 L 1.729,-0.086 1.432,0.111 c 0.181,0.445 0.453,0.778 0.815,1 0.362,0.222 0.799,0.334 1.309,0.334 0.798,0 1.381,-0.239 1.747,-0.716 0.366,-0.478 0.55,-1.182 0.55,-2.112 V -4.926 H 4.148 v 3.346 c 0,0.543 -0.098,0.946 -0.295,1.21 C 3.655,-0.107 3.354,0.025 2.951,0.025 2.523,0.025 2.208,-0.109 2.007,-0.376 1.805,-0.644 1.704,-1.058 1.704,-1.617 V -4.926 H 0 Z"
       style="fill:#107abd;fill-opacity:1;fill-rule:nonzero;stroke:none"
       transform="matrix(1.3333333,0,0,-1.3333333,243.23307,88.494)"
       clip-path="url(#clipPath118)" />
    <path
       id="path119"
       d="M 0,0 C -0.362,0.169 -0.636,0.449 -0.82,0.84 -1.006,1.23 -1.099,1.751 -1.099,2.401 V 5.698 L -0.58,7.933 H 0.605 V 2.365 C 0.605,2.093 0.634,1.877 0.691,1.716 0.749,1.556 0.853,1.434 1,1.352 1.148,1.27 1.35,1.229 1.605,1.229 H 2.691 V -0.253 H 1.383 C 0.823,-0.253 0.362,-0.168 0,0 M -2.519,6.007 H 2.494 V 4.599 h -5.013 z"
       style="fill:#107abd;fill-opacity:1;fill-rule:nonzero;stroke:none"
       transform="matrix(1.3333333,0,0,-1.3333333,255.29947,94.7252)"
       clip-path="url(#clipPath120)" />
  </g>
</svg>
