<?xml version="1.0" encoding="UTF-8" standalone="no"?>
<!-- Created with Inkscape (http://www.inkscape.org/) -->

<svg
   width="153.87111mm"
   height="55.029022mm"
   viewBox="0 0 153.87111 55.029022"
   version="1.1"
   id="svg1"
   inkscape:version="1.3.2 (091e20ef0f, 2023-11-25)"
   sodipodi:docname="logo_vivalia.svg"
   inkscape:export-filename="logo_vivalia2.svg"
   inkscape:export-xdpi="96"
   inkscape:export-ydpi="96"
   xmlns:inkscape="http://www.inkscape.org/namespaces/inkscape"
   xmlns:sodipodi="http://sodipodi.sourceforge.net/DTD/sodipodi-0.dtd"
   xmlns="http://www.w3.org/2000/svg"
   xmlns:svg="http://www.w3.org/2000/svg">
  <sodipodi:namedview
     id="namedview1"
     pagecolor="#505050"
     bordercolor="#eeeeee"
     borderopacity="1"
     inkscape:showpageshadow="false"
     inkscape:pageopacity="0"
     inkscape:pagecheckerboard="true"
     inkscape:deskcolor="#d1d1d1"
     inkscape:document-units="mm"
     inkscape:zoom="1.7665126"
     inkscape:cx="274.83529"
     inkscape:cy="92.555242"
     inkscape:window-width="1920"
     inkscape:window-height="1000"
     inkscape:window-x="0"
     inkscape:window-y="0"
     inkscape:window-maximized="1"
     inkscape:current-layer="g104"
     showborder="true" />
  <defs
     id="defs1">
    <clipPath
       clipPathUnits="userSpaceOnUse"
       id="clipPath105">
      <path
         d="M 0,1080 H 1920 V 0 H 0 Z"
         transform="matrix(1.3333333,0,0,-1.3333333,0,1440)"
         id="path105" />
    </clipPath>
    <clipPath
       clipPathUnits="userSpaceOnUse"
       id="clipPath2">
      <path
         d="m 678,844 h 595.2 V 556 H 678 Z"
         transform="translate(-832.17272,-731.34642)"
         id="path2" />
    </clipPath>
    <clipPath
       clipPathUnits="userSpaceOnUse"
       id="clipPath3">
      <path
         d="m 678,844 h 595.2 V 556 H 678 Z"
         transform="translate(-967.99982,-733.11552)"
         id="path3" />
    </clipPath>
    <clipPath
       clipPathUnits="userSpaceOnUse"
       id="clipPath4">
      <path
         d="m 678,844 h 595.2 V 556 H 678 Z"
         transform="translate(-1164.3868,-664.71502)"
         id="path4" />
    </clipPath>
    <clipPath
       clipPathUnits="userSpaceOnUse"
       id="clipPath5">
      <path
         d="m 678,844 h 595.2 V 556 H 678 Z"
         transform="translate(-1054.8118,-664.72312)"
         id="path5" />
    </clipPath>
    <clipPath
       clipPathUnits="userSpaceOnUse"
       id="clipPath6">
      <path
         d="m 678,844 h 595.2 V 556 H 678 Z"
         transform="translate(-1008.3993,-667.57732)"
         id="path6" />
    </clipPath>
    <clipPath
       clipPathUnits="userSpaceOnUse"
       id="clipPath7">
      <path
         d="m 678,844 h 595.2 V 556 H 678 Z"
         transform="translate(-1116.6618,-667.18151)"
         id="path7" />
    </clipPath>
    <clipPath
       clipPathUnits="userSpaceOnUse"
       id="clipPath8">
      <path
         d="m 678,844 h 595.2 V 556 H 678 Z"
         transform="translate(-969.49622,-657.56512)"
         id="path8" />
    </clipPath>
    <clipPath
       clipPathUnits="userSpaceOnUse"
       id="clipPath9">
      <path
         d="m 678,844 h 595.2 V 556 H 678 Z"
         transform="translate(-1129.4595,-657.56501)"
         id="path9" />
    </clipPath>
    <clipPath
       clipPathUnits="userSpaceOnUse"
       id="clipPath10">
      <path
         d="m 678,844 h 595.2 V 556 H 678 Z"
         transform="translate(-1137.1344,-723.03622)"
         id="path10" />
    </clipPath>
    <clipPath
       clipPathUnits="userSpaceOnUse"
       id="clipPath11">
      <path
         d="m 678,844 h 595.2 V 556 H 678 Z"
         transform="translate(-977.05615,-723.03672)"
         id="path11" />
    </clipPath>
    <clipPath
       clipPathUnits="userSpaceOnUse"
       id="clipPath12">
      <path
         d="m 678,844 h 595.2 V 556 H 678 Z"
         transform="translate(-1143.8221,-633.49262)"
         id="path12" />
    </clipPath>
    <clipPath
       clipPathUnits="userSpaceOnUse"
       id="clipPath13">
      <path
         d="m 678,844 h 595.2 V 556 H 678 Z"
         transform="translate(-1083.001,-633.40442)"
         id="path13" />
    </clipPath>
    <clipPath
       clipPathUnits="userSpaceOnUse"
       id="clipPath14">
      <path
         d="m 678,844 h 595.2 V 556 H 678 Z"
         transform="translate(-885.32252,-648.10492)"
         id="path14" />
    </clipPath>
    <clipPath
       clipPathUnits="userSpaceOnUse"
       id="clipPath15">
      <path
         d="m 678,844 h 595.2 V 556 H 678 Z"
         transform="translate(-951.37765,-633.37492)"
         id="path15" />
    </clipPath>
    <clipPath
       clipPathUnits="userSpaceOnUse"
       id="clipPath16">
      <path
         d="m 678,844 h 595.2 V 556 H 678 Z"
         transform="translate(-1017.0789,-639.14332)"
         id="path16" />
    </clipPath>
    <clipPath
       clipPathUnits="userSpaceOnUse"
       id="clipPath17">
      <path
         d="m 678,844 h 595.2 V 556 H 678 Z"
         transform="translate(-1180.3446,-639.20812)"
         id="path17" />
    </clipPath>
    <clipPath
       clipPathUnits="userSpaceOnUse"
       id="clipPath18">
      <path
         d="m 678,844 h 595.2 V 556 H 678 Z"
         transform="translate(-966.48145,-639.16211)"
         id="path18" />
    </clipPath>
    <clipPath
       clipPathUnits="userSpaceOnUse"
       id="clipPath19">
      <path
         d="m 678,844 h 595.2 V 556 H 678 Z"
         transform="translate(-1030.4974,-633.56081)"
         id="path19" />
    </clipPath>
    <clipPath
       clipPathUnits="userSpaceOnUse"
       id="clipPath20">
      <path
         d="m 678,844 h 595.2 V 556 H 678 Z"
         transform="translate(-1111.3695,-633.57752)"
         id="path20" />
    </clipPath>
    <clipPath
       clipPathUnits="userSpaceOnUse"
       id="clipPath21">
      <path
         d="m 678,844 h 595.2 V 556 H 678 Z"
         transform="translate(-894.86402,-636.29882)"
         id="path21" />
    </clipPath>
    <clipPath
       clipPathUnits="userSpaceOnUse"
       id="clipPath22">
      <path
         d="m 678,844 h 595.2 V 556 H 678 Z"
         transform="translate(-1103.632,-630.28961)"
         id="path22" />
    </clipPath>
    <clipPath
       clipPathUnits="userSpaceOnUse"
       id="clipPath23">
      <path
         d="m 678,844 h 595.2 V 556 H 678 Z"
         transform="translate(-922.97575,-636.02312)"
         id="path23" />
    </clipPath>
    <clipPath
       clipPathUnits="userSpaceOnUse"
       id="clipPath24">
      <path
         d="m 678,844 h 595.2 V 556 H 678 Z"
         transform="translate(-1064.3845,-636.06401)"
         id="path24" />
    </clipPath>
    <clipPath
       clipPathUnits="userSpaceOnUse"
       id="clipPath25">
      <path
         d="m 678,844 h 595.2 V 556 H 678 Z"
         transform="translate(-989.9557,-635.93762)"
         id="path25" />
    </clipPath>
    <clipPath
       clipPathUnits="userSpaceOnUse"
       id="clipPath26">
      <path
         d="m 678,844 h 595.2 V 556 H 678 Z"
         transform="translate(-1168.1334,-636.04712)"
         id="path26" />
    </clipPath>
    <clipPath
       clipPathUnits="userSpaceOnUse"
       id="clipPath27">
      <path
         d="m 678,844 h 595.2 V 556 H 678 Z"
         transform="translate(-941.79902,-627.80861)"
         id="path27" />
    </clipPath>
    <clipPath
       clipPathUnits="userSpaceOnUse"
       id="clipPath28">
      <path
         d="m 678,844 h 595.2 V 556 H 678 Z"
         transform="translate(-982.33405,-641.92952)"
         id="path28" />
    </clipPath>
    <clipPath
       clipPathUnits="userSpaceOnUse"
       id="clipPath29">
      <path
         d="m 678,844 h 595.2 V 556 H 678 Z"
         transform="translate(-1046.6821,-627.92741)"
         id="path29" />
    </clipPath>
    <clipPath
       clipPathUnits="userSpaceOnUse"
       id="clipPath30">
      <path
         d="m 678,844 h 595.2 V 556 H 678 Z"
         transform="translate(-1127.6035,-627.93712)"
         id="path30" />
    </clipPath>
    <clipPath
       clipPathUnits="userSpaceOnUse"
       id="clipPath31">
      <path
         d="m 678,844 h 595.2 V 556 H 678 Z"
         transform="translate(-900.2818,-631.52512)"
         id="path31" />
    </clipPath>
    <clipPath
       clipPathUnits="userSpaceOnUse"
       id="clipPath32">
      <path
         d="m 678,844 h 595.2 V 556 H 678 Z"
         transform="translate(-1056.3654,-639.65092)"
         id="path32" />
    </clipPath>
    <clipPath
       clipPathUnits="userSpaceOnUse"
       id="clipPath33">
      <path
         d="m 678,844 h 595.2 V 556 H 678 Z"
         transform="translate(-913.00472,-639.37702)"
         id="path33" />
    </clipPath>
    <clipPath
       clipPathUnits="userSpaceOnUse"
       id="clipPath34">
      <path
         d="m 678,844 h 595.2 V 556 H 678 Z"
         transform="translate(-1157.8836,-628.14251)"
         id="path34" />
    </clipPath>
    <clipPath
       clipPathUnits="userSpaceOnUse"
       id="clipPath35">
      <path
         d="m 678,844 h 595.2 V 556 H 678 Z"
         transform="translate(-1135.329,-628.14272)"
         id="path35" />
    </clipPath>
    <clipPath
       clipPathUnits="userSpaceOnUse"
       id="clipPath36">
      <path
         d="m 678,844 h 595.2 V 556 H 678 Z"
         transform="translate(-1001.8221,-630.81022)"
         id="path36" />
    </clipPath>
    <clipPath
       clipPathUnits="userSpaceOnUse"
       id="clipPath37">
      <path
         d="m 678,844 h 595.2 V 556 H 678 Z"
         transform="translate(-1162.066,-646.74041)"
         id="path37" />
    </clipPath>
    <clipPath
       clipPathUnits="userSpaceOnUse"
       id="clipPath38">
      <path
         d="m 678,844 h 595.2 V 556 H 678 Z"
         transform="translate(-1139.5389,-646.63732)"
         id="path38" />
    </clipPath>
    <clipPath
       clipPathUnits="userSpaceOnUse"
       id="clipPath39">
      <path
         d="m 678,844 h 595.2 V 556 H 678 Z"
         transform="translate(-998.72035,-647.04742)"
         id="path39" />
    </clipPath>
    <clipPath
       clipPathUnits="userSpaceOnUse"
       id="clipPath40">
      <path
         d="m 678,844 h 595.2 V 556 H 678 Z"
         transform="translate(-832.17272,-731.34642)"
         id="path40" />
    </clipPath>
  </defs>
  <g
     inkscape:label="Calque 1"
     inkscape:groupmode="layer"
     id="layer1"
     transform="translate(-79.709065,-50.762242)"
     style="display:inline">
    <g
       id="g104"
       clip-path="url(#clipPath105)"
       transform="matrix(0.26458333,0,0,0.26458333,-187.30837,-55.879613)">
      <path
         d="m 0,0 c 0.061,2.705 -0.374,5.341 -0.809,7.982 -0.164,0.996 -0.47,1.306 -1.526,0.941 -4.199,-1.45 -8.306,-3.089 -12.087,-5.454 -8.934,-5.591 -13.982,-13.351 -13.531,-24.2 0.115,-2.764 1.529,-4.593 4.224,-5.192 1.549,-0.344 3.085,-0.221 4.603,0.267 2.265,0.729 4.356,1.816 6.29,3.17 C -5.022,-17.013 0.063,-9.965 0,0 m -30.886,46.323 c 0.653,0.16 1.029,-0.215 1.436,-0.411 11.856,-5.717 22.006,-13.55 29.904,-24.164 1.073,-1.444 2.07,-2.944 2.848,-4.569 0.327,-0.681 0.7,-0.912 1.468,-0.753 5.553,1.154 11.178,1.643 16.806,0.913 14.374,-1.862 25.951,-8.194 32.872,-21.455 3.278,-6.283 4,-13.094 3.172,-20.061 C 56.3,-35.281 51.542,-45.03 45.378,-54.146 34.611,-70.067 20.406,-82.29 3.997,-92.064 c -8.741,-5.206 -17.898,-9.497 -27.791,-12.076 -2.401,-0.625 -4.841,-1.025 -7.302,-1.319 -4.038,-0.482 -7.646,0.724 -11.061,2.742 -6.999,4.136 -12.6,9.791 -17.454,16.22 -8.097,10.727 -13.31,22.71 -14.996,36.073 -1.425,11.295 -0.761,22.445 3.94,33.017 4.456,10.022 11.898,17.059 22.032,21.249 0.515,0.213 1.051,0.378 1.582,0.552 0.105,0.034 0.23,0.004 0.589,0.004 -2.18,-1.543 -4.206,-2.934 -6.11,-4.489 -8.978,-7.331 -14.084,-16.786 -15.452,-28.26 -1.519,-12.738 0.969,-24.882 5.689,-36.647 3.355,-8.363 7.817,-16.08 13.933,-22.764 1.565,-1.712 3.274,-3.275 5.087,-4.733 5.062,-4.071 10.599,-5.439 17.036,-3.811 8.903,2.252 17.212,5.848 25.181,10.303 11.191,6.256 21.403,13.834 30.363,23.029 8.248,8.466 15.084,17.878 18.996,29.176 1.67,4.825 2.829,9.799 2.688,14.899 C 50.623,-7.181 45.444,1.741 34.983,7.345 26.98,11.633 18.41,12.618 9.512,11.515 8.839,11.431 8.17,11.31 7.502,11.192 5.781,10.887 5.82,10.892 6.198,9.145 8.53,-1.646 7.084,-11.92 1.12,-21.216 c -5.021,-7.824 -12.438,-12.486 -21.64,-14.131 -6.332,-1.132 -11.278,1.297 -13.554,6.609 -1.191,2.778 -1.529,5.716 -1.156,8.695 1.452,11.615 7.347,20.497 16.866,27.095 4.392,3.045 9.201,5.267 14.255,6.973 1.392,0.47 1.401,0.467 0.832,1.862 -3.756,9.206 -9.856,16.645 -17.375,23.008 -2.903,2.456 -5.984,4.671 -9.184,6.724 -0.327,0.21 -0.647,0.433 -1.05,0.704"
         style="fill:#026da7;fill-opacity:1;fill-rule:nonzero;stroke:none"
         transform="matrix(1.3333333,0,0,-1.3333333,1109.5636,464.87147)"
         clip-path="url(#clipPath2)"
         id="path54" />
      <path
         d="m 0,0 c -1.442,-3.12 -2.806,-6.082 -4.179,-9.04 -9.437,-20.33 -18.876,-40.66 -28.315,-60.989 -1.518,-3.27 -3.883,-5.591 -7.517,-6.245 -4.761,-0.856 -8.609,1.866 -9.729,6.696 -2.363,10.181 -4.738,20.36 -7.108,30.54 -2.948,12.666 -5.885,25.336 -8.867,37.995 -0.214,0.91 -0.029,1.071 0.841,1.06 3.318,-0.042 6.638,-0.061 9.956,0.012 0.9,0.02 1.127,-0.324 1.291,-1.087 3.038,-14.164 6.097,-28.324 9.152,-42.485 1.448,-6.707 2.897,-13.414 4.349,-20.12 0.059,-0.271 0.158,-0.532 0.298,-0.994 1.552,3.41 3.032,6.661 4.511,9.912 8.128,17.862 16.265,35.719 24.356,53.597 0.421,0.931 0.911,1.188 1.867,1.169 C -6.137,-0.037 -3.179,0 0,0"
         style="fill:#026da7;fill-opacity:1;fill-rule:nonzero;stroke:none"
         transform="matrix(1.3333333,0,0,-1.3333333,1290.6664,462.51267)"
         clip-path="url(#clipPath3)"
         id="path55" />
      <path
         d="m 0,0 c 2.27,0.024 4.487,0.636 6.635,1.547 2.949,1.25 5.614,3.023 8.4,4.574 0.453,0.252 0.561,0.618 0.612,1.075 0.501,4.482 0.991,8.965 1.536,13.441 0.103,0.837 0.008,1.133 -0.928,0.978 C 10.785,20.711 5.29,19.939 -0.165,18.952 -4.657,18.139 -8.133,15.904 -9.419,11.204 -10.661,6.663 -9.065,2.771 -5.327,1.069 -3.663,0.312 -1.891,0.07 0,0 M 15.498,1.281 C 14.151,0.035 13.06,-0.941 12.007,-1.956 7.739,-6.063 2.657,-8.412 -3.263,-8.47 c -6.504,-0.063 -12.08,2.037 -15.296,8.173 -3.665,6.993 -1.287,16.493 5.238,21.694 3.657,2.914 7.883,4.21 12.453,4.788 6.259,0.791 12.495,1.763 18.745,2.623 0.668,0.092 0.736,0.468 0.784,0.97 0.313,3.254 -0.909,5.795 -3.63,7.565 -3.751,2.441 -7.923,3.273 -12.344,3.054 -4.38,-0.217 -8.628,-1.095 -12.737,-2.615 -0.849,-0.314 -1.027,-0.106 -0.922,0.732 0.297,2.378 0.549,4.762 0.817,7.144 0.052,0.46 0.174,0.786 0.729,0.934 8.528,2.266 17.103,3.299 25.786,0.917 3.934,-1.079 7.459,-2.87 9.891,-6.316 2.244,-3.18 2.71,-6.792 2.296,-10.532 -1.059,-9.569 -2.194,-19.128 -3.299,-28.691 -0.317,-2.738 -0.657,-5.473 -0.936,-8.215 -0.073,-0.718 -0.345,-0.93 -1.05,-0.92 -2.599,0.037 -5.199,0.04 -7.798,0 -0.754,-0.012 -0.935,0.16 -0.826,0.944 0.329,2.37 0.554,4.754 0.86,7.502"
         style="fill:#026da7;fill-opacity:1;fill-rule:nonzero;stroke:none"
         transform="matrix(1.3333333,0,0,-1.3333333,1552.5157,553.71333)"
         clip-path="url(#clipPath4)"
         id="path56" />
      <path
         d="m 0,0 c 1.637,0.014 3.67,0.55 5.655,1.335 3.173,1.256 5.996,3.158 8.951,4.817 0.3,0.168 0.468,0.365 0.511,0.735 0.537,4.682 1.088,9.362 1.65,14.041 0.076,0.639 -0.078,0.816 -0.763,0.704 C 10.332,20.703 4.633,19.921 -1.017,18.874 -4.847,18.164 -7.943,16.218 -9.5,12.408 -11.675,7.085 -9.477,1.953 -4.418,0.544 -3.145,0.19 -1.839,0.008 0,0 m -11.567,37.409 c 0.34,2.932 0.671,5.741 0.984,8.553 0.046,0.405 0.283,0.51 0.619,0.6 8.561,2.291 17.172,3.318 25.894,0.935 3.321,-0.907 6.382,-2.356 8.752,-4.942 3.388,-3.695 3.86,-8.154 3.297,-12.89 C 26.939,20.902 25.945,12.133 24.927,3.367 24.554,0.154 24.14,-3.054 23.811,-6.271 23.735,-7.01 23.486,-7.184 22.786,-7.174 c -2.558,0.04 -5.118,0.056 -7.675,-0.005 -0.914,-0.022 -1.057,0.307 -0.949,1.11 0.278,2.058 0.497,4.123 0.722,6.188 0.028,0.255 0.161,0.537 -0.13,0.904 -1.077,-1.005 -2.152,-1.99 -3.207,-2.995 -4.312,-4.11 -9.428,-6.416 -15.391,-6.522 -4.467,-0.08 -8.662,1.007 -12.067,4.109 -4.105,3.739 -5.263,8.543 -4.605,13.857 1.172,9.471 9.168,15.321 17.372,16.436 6.844,0.93 13.677,1.938 20.518,2.89 0.585,0.082 0.768,0.293 0.829,0.896 0.36,3.542 -1.118,6.135 -4.075,7.925 -3.63,2.198 -7.623,2.985 -11.828,2.78 -4.737,-0.23 -9.312,-1.256 -13.867,-2.99"
         style="fill:#026da7;fill-opacity:1;fill-rule:nonzero;stroke:none"
         transform="matrix(1.3333333,0,0,-1.3333333,1406.4157,553.70253)"
         clip-path="url(#clipPath5)"
         id="path57" />
      <path
         d="m 0,0 c 1.701,3.704 3.399,7.394 5.091,11.087 5.119,11.166 10.243,22.33 15.334,33.509 0.327,0.719 0.668,1.03 1.493,1.008 2.317,-0.062 4.639,-0.064 6.956,-0.002 0.99,0.026 1.038,-0.248 0.653,-1.048 C 26.643,38.551 23.786,32.534 20.922,26.521 15.949,16.08 10.971,5.641 6.007,-4.804 c -2.101,-4.42 -6.675,-6.534 -10.89,-4.978 -2.145,0.792 -3.457,2.315 -3.997,4.56 -2.593,10.783 -5.216,21.56 -7.822,32.34 -1.397,5.777 -2.761,11.562 -4.192,17.33 -0.228,0.92 -0.092,1.172 0.882,1.154 2.958,-0.055 5.918,-0.047 8.876,-10e-4 0.766,0.013 1.005,-0.249 1.162,-0.973 C -6.798,30.006 -3.591,15.391 -0.393,0.774 -0.334,0.508 -0.336,0.219 0,0"
         style="fill:#026da7;fill-opacity:1;fill-rule:nonzero;stroke:none"
         transform="matrix(1.3333333,0,0,-1.3333333,1344.5323,549.89693)"
         clip-path="url(#clipPath6)"
         id="path58" />
      <path
         d="m 0,0 c -0.323,-2.849 -0.634,-5.541 -0.926,-8.235 -0.046,-0.419 -0.231,-0.607 -0.627,-0.746 -5.192,-1.817 -10.462,-2.515 -15.889,-1.195 -5.847,1.422 -9.256,5.238 -10.124,11.198 -0.572,3.931 -0.111,7.812 0.34,11.703 0.851,7.34 1.704,14.68 2.556,22.02 0.93,8.014 1.861,16.028 2.792,24.042 0.258,2.222 0.55,4.44 0.758,6.667 0.063,0.672 0.293,0.869 0.945,0.863 2.799,-0.028 5.599,-0.057 8.396,0.013 0.989,0.025 1.114,-0.335 1.011,-1.182 -0.627,-5.154 -1.224,-10.312 -1.82,-15.47 -0.839,-7.26 -1.666,-14.522 -2.501,-21.783 -0.8,-6.943 -1.664,-13.88 -2.389,-20.832 -0.585,-5.62 2.264,-8.842 7.933,-9.247 3.126,-0.223 5.998,0.67 8.804,1.901 C -0.563,-0.205 -0.378,-0.144 0,0"
         style="fill:#026da7;fill-opacity:1;fill-rule:nonzero;stroke:none"
         transform="matrix(1.3333333,0,0,-1.3333333,1488.8823,550.42467)"
         clip-path="url(#clipPath7)"
         id="path59" />
      <path
         d="m 0,0 c -1.479,0 -2.958,0.023 -4.436,-0.011 -0.602,-0.014 -0.741,0.185 -0.672,0.767 0.909,7.691 1.8,15.384 2.692,23.077 0.842,7.257 1.682,14.514 2.519,21.771 0.348,3.014 0.701,6.027 1.017,9.044 0.078,0.744 0.372,0.978 1.132,0.965 2.797,-0.048 5.596,-0.047 8.393,-10e-4 0.816,0.013 0.98,-0.202 0.884,-1.012 C 10.484,45.8 9.484,36.994 8.469,28.19 7.427,19.148 6.373,10.107 5.351,1.063 5.255,0.213 4.946,-0.075 4.076,-0.022 2.722,0.061 1.359,0 0,0"
         style="fill:#026da7;fill-opacity:1;fill-rule:nonzero;stroke:none"
         transform="matrix(1.3333333,0,0,-1.3333333,1292.6616,563.24653)"
         clip-path="url(#clipPath8)"
         id="path60" />
      <path
         d="m 0,0 c -1.359,0 -2.721,0.052 -4.076,-0.018 -0.872,-0.046 -1.097,0.246 -0.994,1.082 0.456,3.684 0.869,7.374 1.299,11.062 0.844,7.257 1.692,14.514 2.532,21.772 0.808,6.979 1.622,13.959 2.391,20.943 0.085,0.776 0.48,0.761 1.034,0.758 2.797,-0.01 5.596,-0.032 8.393,0.012 0.805,0.013 1.027,-0.21 0.93,-1.017 C 10.968,50.115 10.479,45.63 9.96,41.149 9.115,33.851 8.26,26.555 7.412,19.259 6.698,13.112 5.974,6.967 5.294,0.817 5.217,0.116 4.94,-0.026 4.317,-0.011 2.878,0.024 1.439,0 0,0"
         style="fill:#026da7;fill-opacity:1;fill-rule:nonzero;stroke:none"
         transform="matrix(1.3333333,0,0,-1.3333333,1505.946,563.24667)"
         clip-path="url(#clipPath9)"
         id="path61" />
      <path
         d="m 0,0 c -1.515,0 -3.031,0.002 -4.546,-0.001 -0.425,-0.001 -0.76,-0.028 -0.675,0.627 0.374,2.883 0.707,5.772 1.02,8.663 0.062,0.572 0.207,0.815 0.851,0.807 2.991,-0.038 5.982,-0.03 8.973,-0.006 C 6.224,10.095 6.343,9.918 6.269,9.33 5.907,6.445 5.573,3.556 5.283,0.662 5.22,0.031 4.914,-0.011 4.427,-0.006 2.951,0.01 1.476,0 0,0"
         style="fill:#026da7;fill-opacity:1;fill-rule:nonzero;stroke:none"
         transform="matrix(1.3333333,0,0,-1.3333333,1516.1792,475.95173)"
         clip-path="url(#clipPath10)"
         id="path62" />
      <path
         d="m 0,0 c -1.438,0 -2.878,0.027 -4.315,-0.012 -0.628,-0.017 -0.838,0.154 -0.758,0.807 0.354,2.892 0.676,5.787 0.988,8.683 0.05,0.456 0.242,0.607 0.685,0.606 3.076,-0.012 6.153,-0.018 9.23,0.005 C 6.406,10.093 6.48,9.855 6.422,9.37 6.077,6.518 5.734,3.664 5.427,0.808 5.356,0.146 5.075,-0.035 4.435,-0.015 2.958,0.031 1.478,0 0,0"
         style="fill:#026da7;fill-opacity:1;fill-rule:nonzero;stroke:none"
         transform="matrix(1.3333333,0,0,-1.3333333,1302.7415,475.95107)"
         clip-path="url(#clipPath11)"
         id="path63" />
      <path
         d="M 0,0 C -0.04,-0.728 0.044,-1.442 0.262,-2.132 0.485,-2.838 0.874,-3.447 1.587,-3.743 3.288,-4.45 6.378,-2.713 6.659,-0.886 6.932,0.887 7.148,2.669 7.432,4.441 7.545,5.145 7.344,5.655 6.833,6.138 4.913,7.953 2.528,7.629 1.254,5.305 0.354,3.662 0.089,1.845 0,0 m 7.764,7.111 c 0.374,2.641 0.72,5.12 1.08,7.597 0.099,0.685 1.576,1.332 2.118,0.912 0.347,-0.269 0.101,-0.678 0.057,-0.999 C 10.529,11.026 10.009,7.435 9.499,3.843 9.123,1.198 8.765,-1.45 8.362,-4.091 8.278,-4.64 8.49,-5.42 7.422,-5.394 6.243,-5.366 6.828,-4.526 6.677,-4.024 6.634,-3.88 6.625,-3.724 6.578,-3.431 6.009,-3.88 5.548,-4.29 5.044,-4.635 1.886,-6.796 -1.375,-5.413 -1.969,-1.639 -2.406,1.14 -1.867,3.768 -0.452,6.186 1.493,9.509 4.799,9.943 7.764,7.111"
         style="fill:#026da7;fill-opacity:1;fill-rule:nonzero;stroke:none"
         transform="matrix(1.3333333,0,0,-1.3333333,1525.0961,595.3432)"
         clip-path="url(#clipPath12)"
         id="path64" />
      <path
         d="m 0,0 c 0.029,-0.324 0.024,-0.97 0.155,-1.588 0.204,-0.968 0.625,-1.828 1.684,-2.13 1.89,-0.539 4.676,1.273 4.943,3.202 0.23,1.657 0.455,3.314 0.681,4.971 0.042,0.31 0.173,0.638 -0.06,0.92 C 6.491,6.481 5.462,7.374 3.905,7.368 2.456,7.362 1.656,6.474 1.101,5.303 0.356,3.731 0.133,2.03 0,0 m 6.316,-3.582 c -0.935,-0.689 -1.54,-1.203 -2.262,-1.527 -2.621,-1.175 -5.213,0.037 -5.858,2.828 -0.695,3.006 -0.153,5.86 1.317,8.548 1.601,2.926 5.753,4.431 8.459,0.492 0.181,0.488 0.415,0.892 0.472,1.319 0.115,0.851 0.67,0.894 1.303,0.807 C 10.598,8.767 10.152,8.129 10.101,7.76 9.268,1.714 8.399,-4.327 7.542,-10.37 c -0.121,-0.855 -1.303,-1.56 -2.083,-1.232 -0.471,0.198 -0.18,0.544 -0.144,0.814 0.306,2.285 0.632,4.568 1.001,7.206"
         style="fill:#026da7;fill-opacity:1;fill-rule:nonzero;stroke:none"
         transform="matrix(1.3333333,0,0,-1.3333333,1444.0013,595.4608)"
         clip-path="url(#clipPath13)"
         id="path65" />
      <path
         d="m 0,0 c -2.353,-5.476 -4.665,-10.856 -6.978,-16.236 -0.346,-0.805 -0.689,-1.611 -1.056,-2.407 -0.211,-0.457 -0.221,-1.198 -0.754,-1.275 -0.938,-0.137 -1.912,-0.068 -2.867,-0.012 -0.339,0.02 -0.28,0.426 -0.321,0.692 -0.941,6.153 -1.884,12.306 -2.815,18.461 -0.052,0.343 -0.268,0.945 0.421,0.81 0.579,-0.114 1.522,0.63 1.707,-0.613 0.554,-3.71 1.115,-7.418 1.67,-11.128 0.309,-2.068 0.614,-4.136 1.132,-6.219 0.969,2.26 1.936,4.521 2.906,6.781 1.368,3.187 2.738,6.372 4.107,9.559 C -2.106,0.14 -2.107,0.14 0,0"
         style="fill:#026da7;fill-opacity:1;fill-rule:nonzero;stroke:none"
         transform="matrix(1.3333333,0,0,-1.3333333,1180.43,575.86013)"
         clip-path="url(#clipPath14)"
         id="path66" />
      <path
         d="M 0,0 C 0.114,-1.416 0.088,-2.899 1.668,-3.575 3.53,-4.371 6.424,-2.656 6.726,-0.63 7.009,1.263 7.286,3.157 7.584,5.047 7.917,7.151 7.385,7.687 5.203,7.431 4.338,7.33 3.596,6.958 2.943,6.416 0.934,4.747 0.141,2.516 0,0 M 6.571,-3.156 C 5.296,-4.632 4.068,-5.5 2.384,-5.5 0.21,-5.5 -1.166,-4.506 -1.781,-2.447 -2.983,1.577 -0.663,6.872 3.068,8.62 5.401,9.714 7.58,9 9.74,8.058 10.195,7.859 10.085,7.471 10.037,7.13 9.486,3.222 8.908,-0.682 8.38,-4.592 8.27,-5.408 7.731,-5.211 7.241,-5.26 6.602,-5.324 6.512,-4.98 6.565,-4.461 c 0.032,0.313 0.006,0.631 0.006,1.305"
         style="fill:#026da7;fill-opacity:1;fill-rule:nonzero;stroke:none"
         transform="matrix(1.3333333,0,0,-1.3333333,1268.5035,595.50013)"
         clip-path="url(#clipPath15)"
         id="path67" />
      <path
         d="M 0,0 C 1.457,1.984 2.946,3.238 5.127,3.393 7.351,3.552 8.609,2.454 8.709,0.218 8.791,-1.632 8.336,-3.431 8.135,-5.254 7.956,-6.879 7.624,-8.488 7.467,-10.115 7.336,-11.472 6.365,-10.99 5.679,-11 c -0.927,-0.015 -0.411,0.692 -0.365,1.049 0.333,2.612 0.73,5.217 1.071,7.829 0.087,0.667 0.118,1.359 0.046,2.027 C 6.26,1.502 5.292,2.155 3.844,1.443 1.638,0.358 -0.129,-1.182 -0.452,-3.873 c -0.261,-2.179 -0.614,-4.346 -0.927,-6.518 -0.166,-1.151 -1.054,-0.511 -1.612,-0.611 -0.731,-0.131 -0.593,0.448 -0.533,0.868 0.586,4.107 1.196,8.211 1.761,12.321 0.097,0.707 0.296,1.032 1.092,0.993 C 0.216,3.137 -0.023,2.558 -0.005,2.088 0.017,1.507 0,0.923 0,0"
         style="fill:#026da7;fill-opacity:1;fill-rule:nonzero;stroke:none"
         transform="matrix(1.3333333,0,0,-1.3333333,1356.1052,587.80893)"
         clip-path="url(#clipPath16)"
         id="path68" />
      <path
         d="M 0,0 C 0.463,0.539 0.741,0.863 1.019,1.187 1.764,2.052 2.667,2.692 3.753,3.053 7.027,4.142 9.177,2.371 8.718,-1.048 8.303,-4.132 7.825,-7.208 7.45,-10.297 c -0.164,-1.346 -1.119,-0.722 -1.725,-0.754 -0.864,-0.047 -0.455,0.683 -0.404,1.057 0.329,2.451 0.72,4.893 1.061,7.343 0.088,0.63 0.1,1.275 0.09,1.912 C 6.433,1.594 5.209,2.325 3.213,1.059 1.34,-0.128 -0.246,-1.594 -0.461,-4.069 -0.633,-6.054 -0.991,-8.023 -1.263,-10 c -0.13,-0.947 -1.262,-1.511 -2.09,-1.051 -0.369,0.205 -0.161,0.487 -0.127,0.733 0.588,4.228 1.201,8.454 1.763,12.686 0.103,0.774 0.565,0.71 1.099,0.731 C 0.091,3.129 0,2.651 0,2.215 0,1.578 0,0.94 0,0"
         style="fill:#026da7;fill-opacity:1;fill-rule:nonzero;stroke:none"
         transform="matrix(1.3333333,0,0,-1.3333333,1573.7927,587.72253)"
         clip-path="url(#clipPath17)"
         id="path69" />
      <path
         d="M 0,0 C 1.258,1.73 2.547,2.93 4.431,3.274 7.27,3.793 8.956,2.43 8.694,-0.429 8.388,-3.766 7.862,-7.085 7.397,-10.406 7.242,-11.507 6.33,-10.947 5.751,-11.023 c -0.778,-0.102 -0.533,0.498 -0.479,0.893 0.353,2.572 0.719,5.142 1.084,7.712 0.135,0.954 0.185,1.903 -0.03,2.857 C 6.124,1.339 5.573,1.695 4.678,1.624 3.977,1.569 3.35,1.324 2.804,0.903 c -1.775,-1.368 -3.236,-2.87 -3.355,-5.357 -0.093,-1.945 -0.584,-3.867 -0.809,-5.809 -0.156,-1.344 -1.124,-0.707 -1.729,-0.744 -0.879,-0.054 -0.449,0.664 -0.397,1.043 0.566,4.073 1.198,8.138 1.72,12.216 0.112,0.873 0.514,0.9 1.173,0.896 C 0.246,3.143 -0.03,2.545 -0.008,2.128 0.024,1.53 0,0.93 0,0"
         style="fill:#026da7;fill-opacity:1;fill-rule:nonzero;stroke:none"
         transform="matrix(1.3333333,0,0,-1.3333333,1288.6419,587.78387)"
         clip-path="url(#clipPath18)"
         id="path70" />
      <path
         d="M 0,0 C 0.038,-0.38 0.036,-0.948 0.161,-1.487 0.625,-3.496 2.151,-4.391 4.134,-3.835 4.97,-3.6 5.651,-3.103 6.117,-2.371 7.61,-0.03 7.974,2.533 7.4,5.208 7.109,6.56 6.153,7.171 4.787,7.212 3.428,7.253 2.391,6.677 1.616,5.61 0.443,3.994 0.109,2.119 0,0 m -2.101,0.721 c 0.112,2.073 0.7,4.602 2.691,6.583 C 2.277,8.982 4.361,9.348 6.572,8.747 8.428,8.242 9.32,6.763 9.625,4.962 10.058,2.406 9.648,-0.042 8.39,-2.32 7.503,-3.925 6.196,-5.062 4.396,-5.52 0.487,-6.516 -2.111,-4.255 -2.101,0.721"
         style="fill:#026da7;fill-opacity:1;fill-rule:nonzero;stroke:none"
         transform="matrix(1.3333333,0,0,-1.3333333,1373.9965,595.25227)"
         clip-path="url(#clipPath19)"
         id="path71" />
      <path
         d="M 0,0 C 0.04,-0.369 0.041,-0.978 0.181,-1.553 0.737,-3.837 2.914,-4.705 4.949,-3.49 5.62,-3.088 6.145,-2.538 6.487,-1.85 7.569,0.324 7.937,2.623 7.461,5.011 7.171,6.463 6.201,7.163 4.739,7.196 3.374,7.227 2.35,6.621 1.589,5.552 0.458,3.964 0.125,2.128 0,0 M 9.788,2.751 C 9.668,0.476 9.104,-1.981 7.192,-3.913 5.648,-5.473 3.754,-6.006 1.604,-5.605 0.024,-5.31 -1.046,-4.377 -1.627,-2.892 -2.836,0.201 -1.764,5.065 0.644,7.345 2.367,8.976 4.435,9.339 6.645,8.703 8.724,8.105 9.821,6.033 9.788,2.751"
         style="fill:#026da7;fill-opacity:1;fill-rule:nonzero;stroke:none"
         transform="matrix(1.3333333,0,0,-1.3333333,1481.826,595.23)"
         clip-path="url(#clipPath20)"
         id="path72" />
      <path
         d="M 0,0 C -0.053,0.675 -0.054,1.359 -0.169,2.023 -0.471,3.756 -1.512,4.557 -3.275,4.466 -4.899,4.381 -5.922,3.399 -6.586,2.053 -7.525,0.151 -7.872,-1.89 -7.564,-4.001 c 0.352,-2.415 2.665,-3.48 4.788,-2.232 0.936,0.55 1.516,1.4 1.92,2.381 C -0.35,-2.621 -0.107,-1.332 0,0 M 2.091,0.283 C 1.99,-2.432 1.334,-4.938 -0.735,-6.854 c -1.687,-1.562 -3.719,-1.959 -5.897,-1.345 -1.391,0.391 -2.275,1.418 -2.768,2.771 -1.112,3.05 0.034,7.906 2.414,10.106 1.703,1.574 3.747,1.936 5.905,1.319 C 0.877,5.438 1.686,3.84 1.991,1.955 2.079,1.407 2.061,0.841 2.091,0.283"
         style="fill:#026da7;fill-opacity:1;fill-rule:nonzero;stroke:none"
         transform="matrix(1.3333333,0,0,-1.3333333,1193.152,591.6016)"
         clip-path="url(#clipPath21)"
         id="path73" />
      <path
         d="m 0,0 c -1.389,-1.908 -3.168,-2.676 -5.388,-2.345 -2.128,0.316 -3.462,1.892 -3.231,4.166 0.328,3.216 0.831,6.416 1.319,9.613 0.164,1.07 1.089,0.473 1.663,0.55 0.671,0.09 0.493,-0.481 0.443,-0.837 C -5.534,8.694 -5.901,6.245 -6.245,3.793 -6.323,3.24 -6.385,2.681 -6.393,2.124 c -0.03,-2.322 1.417,-3.382 3.605,-2.578 1.801,0.662 3.169,1.663 3.342,3.879 0.196,2.503 0.669,4.984 1.013,7.476 0.131,0.949 1.261,1.544 2.068,1.079 0.347,-0.2 0.167,-0.482 0.131,-0.742 C 3.18,7.006 2.574,2.777 2.017,-1.459 1.901,-2.344 1.316,-2.138 0.786,-2.17 0.101,-2.211 0.135,-1.768 0.173,-1.299 0.203,-0.918 0.336,-0.524 0,0"
         style="fill:#026da7;fill-opacity:1;fill-rule:nonzero;stroke:none"
         transform="matrix(1.3333333,0,0,-1.3333333,1471.5093,599.61387)"
         clip-path="url(#clipPath22)"
         id="path74" />
      <path
         d="m 0,0 c 0.635,0.05 1.363,0.042 2.064,0.177 1.249,0.241 2.391,0.7 2.9,2.025 C 5.557,3.745 4.768,4.871 3.127,4.753 1.179,4.612 0.001,3.296 -1.031,1.835 -1.392,1.324 -1.983,0.663 -1.73,0.143 -1.468,-0.395 -0.651,0.144 0,0 m -4.34,-2.078 c 0.203,3.256 1.572,6.236 4.99,8 C 1.448,6.334 2.301,6.509 3.192,6.516 5.075,6.531 6.451,5.69 6.899,4.255 7.377,2.726 6.664,0.823 5.216,-0.153 3.872,-1.059 2.338,-1.277 0.761,-1.317 0.522,-1.323 0.252,-1.264 0.048,-1.353 c -0.767,-0.333 -2.172,0.86 -2.323,-0.929 -0.191,-2.247 0.681,-3.756 2.286,-4.067 1.503,-0.291 2.771,0.27 3.882,1.175 0.871,0.71 1.188,0.199 1.557,-0.492 0.153,-0.287 0.074,-0.419 -0.159,-0.575 -1.637,-1.097 -3.278,-2.171 -5.397,-1.912 -2.82,0.346 -4.337,2.366 -4.234,6.075"
         style="fill:#026da7;fill-opacity:1;fill-rule:nonzero;stroke:none"
         transform="matrix(1.3333333,0,0,-1.3333333,1230.6343,591.9692)"
         clip-path="url(#clipPath23)"
         id="path75" />
      <path
         d="M 0,0 C 1.028,0 1.899,-0.005 2.769,0.003 3.007,0.005 3.244,0.046 3.481,0.066 4.285,0.136 5.044,0.359 5.728,0.787 6.833,1.478 7.364,2.898 6.909,3.88 6.519,4.719 5.197,5.015 3.925,4.474 1.935,3.627 0.787,2.023 0,0 M -2.458,-2.367 C -2.21,1.191 -0.815,4.194 2.673,5.937 3.367,6.283 4.106,6.431 4.868,6.472 6.825,6.577 8.368,5.686 8.819,4.208 9.322,2.561 8.447,0.543 6.812,-0.394 5.299,-1.26 3.626,-1.36 1.94,-1.381 c -2.505,-0.031 -2.593,-0.136 -2.183,-2.616 0.341,-2.064 2.125,-2.992 4.285,-2.231 0.803,0.283 1.488,0.771 2.164,1.264 0.427,0.312 0.652,0.136 0.813,-0.24 0.146,-0.34 0.796,-0.641 0.167,-1.079 -1.485,-1.032 -3.007,-1.993 -4.915,-1.965 -2.532,0.036 -4.295,1.667 -4.63,4.291 -0.06,0.475 -0.062,0.957 -0.099,1.59"
         style="fill:#026da7;fill-opacity:1;fill-rule:nonzero;stroke:none"
         transform="matrix(1.3333333,0,0,-1.3333333,1419.1793,591.91467)"
         clip-path="url(#clipPath24)"
         id="path76" />
      <path
         d="M 0,0 C 1.453,0.088 2.719,0.121 3.973,0.255 4.807,0.344 5.59,0.663 6.227,1.247 7.014,1.967 7.359,3.296 6.906,4.065 6.296,5.103 5.253,5.023 4.362,4.73 2.128,3.994 0.887,2.269 0,0 M -2.356,-2.44 C -2.352,1.596 0.001,5.209 3.354,6.285 3.88,6.454 4.441,6.563 4.992,6.591 6.888,6.69 8.415,5.797 8.859,4.387 9.368,2.773 8.574,0.792 7.02,-0.182 5.977,-0.836 4.806,-1.076 3.605,-1.19 3.089,-1.24 2.529,-1.114 2.057,-1.273 1.253,-1.543 -0.19,-0.378 -0.302,-2.264 -0.443,-4.646 0.41,-6.018 2.159,-6.291 3.579,-6.513 4.726,-5.91 5.828,-5.147 6.311,-4.812 6.68,-4.378 7.222,-5.213 7.789,-6.086 7.135,-6.217 6.671,-6.521 5.668,-7.176 4.67,-7.811 3.438,-8.005 c -3.256,-0.515 -5.593,1.321 -5.79,4.606 -0.019,0.318 -0.003,0.639 -0.004,0.959"
         style="fill:#026da7;fill-opacity:1;fill-rule:nonzero;stroke:none"
         transform="matrix(1.3333333,0,0,-1.3333333,1319.9409,592.0832)"
         clip-path="url(#clipPath25)"
         id="path77" />
      <path
         d="M 0,0 C 0.49,0 0.892,-0.03 1.288,0.005 2.533,0.116 3.765,0.314 4.69,1.259 5.413,1.997 5.72,2.907 5.281,3.888 4.827,4.901 3.863,4.85 2.996,4.678 1.225,4.326 0.108,3.079 -0.819,1.638 -1.117,1.175 -1.641,0.614 -1.425,0.152 -1.153,-0.427 -0.424,0.128 0,0 m 0.363,-1.357 c -0.737,-0.393 -2.156,0.879 -2.31,-0.892 -0.213,-2.442 0.674,-3.875 2.436,-4.149 1.465,-0.228 2.686,0.346 3.751,1.221 0.846,0.696 1.128,0.154 1.494,-0.457 C 5.877,-5.871 5.945,-6.05 5.672,-6.229 3.963,-7.353 2.265,-8.49 0.051,-8.157 -2.037,-7.844 -3.479,-6.593 -3.84,-4.506 -4.468,-0.868 -3.508,2.3 -0.724,4.806 0.5,5.909 1.955,6.519 3.638,6.494 5.46,6.467 6.759,5.641 7.198,4.22 7.653,2.752 7.037,0.933 5.727,-0.036 4.127,-1.22 2.256,-1.339 0.363,-1.357"
         style="fill:#026da7;fill-opacity:1;fill-rule:nonzero;stroke:none"
         transform="matrix(1.3333333,0,0,-1.3333333,1557.5112,591.9372)"
         clip-path="url(#clipPath26)"
         id="path78" />
      <path
         d="M 0,0 C -1.727,0.019 -3.005,0.386 -4.175,1.162 -4.55,1.411 -4.888,1.614 -4.45,2.048 -4.112,2.383 -4.036,3.272 -3.239,2.757 -2.344,2.179 -1.388,1.811 -0.326,1.79 0.882,1.766 1.992,2.001 2.602,3.225 3.254,4.532 2.952,5.564 1.655,6.209 0.693,6.688 -0.323,7.057 -1.293,7.52 c -1.373,0.654 -2.207,1.663 -2.11,3.291 0.096,1.634 0.843,2.855 2.341,3.466 2.138,0.874 4.207,0.626 6.158,-0.656 0.5,-0.328 0.575,-0.619 0.162,-1.018 C 4.931,12.286 4.867,11.373 4.066,12.041 3.081,12.862 1.931,13.075 0.692,12.939 -0.103,12.851 -0.765,12.508 -1.194,11.819 -1.767,10.899 -1.54,10.054 -0.551,9.535 0.507,8.98 1.598,8.487 2.668,7.952 4.181,7.195 5.167,6.11 4.93,4.269 4.659,2.161 3.553,0.76 1.679,0.269 1.027,0.098 0.343,0.052 0,0"
         style="fill:#026da7;fill-opacity:1;fill-rule:nonzero;stroke:none"
         transform="matrix(1.3333333,0,0,-1.3333333,1255.732,602.92187)"
         clip-path="url(#clipPath27)"
         id="path79" />
      <path
         d="M 0,0 C 0.879,0 1.709,0.012 2.538,-0.007 2.812,-0.013 3.242,0.149 3.18,-0.417 3.139,-0.789 3.099,-1.124 2.573,-1.099 1.896,-1.067 1.216,-1.102 0.538,-1.09 c -0.452,0.009 -0.729,-0.082 -0.802,-0.63 -0.376,-2.846 -0.809,-5.684 -1.188,-8.53 -0.088,-0.655 -0.265,-1.45 0.444,-1.857 0.709,-0.408 1.369,0.06 2.006,0.401 0.509,0.271 0.972,1.083 1.596,0.03 0.356,-0.601 0.315,-0.862 -0.282,-1.179 -0.91,-0.484 -1.741,-1.092 -2.851,-1.124 -1.99,-0.056 -3.111,0.909 -3.1,2.911 0.011,2.282 0.592,4.504 0.84,6.762 0.057,0.515 0.112,1.033 0.221,1.538 0.213,0.989 0.489,1.978 -1.16,1.687 -0.314,-0.056 -0.551,0.085 -0.48,0.478 0.057,0.319 0.1,0.701 0.553,0.594 1.662,-0.393 1.645,0.748 1.761,1.842 0.126,1.189 0.334,2.368 0.487,3.554 0.051,0.39 0.192,0.646 0.585,0.806 C 0.663,6.798 0.891,6.656 0.698,5.084 0.495,3.424 0.245,1.769 0,0"
         style="fill:#026da7;fill-opacity:1;fill-rule:nonzero;stroke:none"
         transform="matrix(1.3333333,0,0,-1.3333333,1309.7787,584.094)"
         clip-path="url(#clipPath28)"
         id="path80" />
      <path
         d="m 0,0 c -2.157,0.005 -3.318,1.412 -3.061,3.51 0.346,2.814 0.75,5.622 1.191,8.423 0.112,0.709 0.084,1.049 -0.755,1 -0.341,-0.02 -0.957,-0.336 -1.007,0.43 -0.051,0.784 0.537,0.685 0.984,0.626 0.864,-0.113 1.17,0.181 1.231,1.079 0.092,1.35 0.371,2.687 0.584,4.028 0.128,0.802 1.171,1.539 1.936,1.408 C 1.648,20.41 1.402,20.005 1.371,19.758 1.177,18.213 0.976,16.667 0.71,15.133 0.565,14.295 0.673,13.832 1.673,13.991 2.103,14.059 2.555,14.037 2.99,13.99 3.277,13.958 3.764,14.252 3.786,13.611 3.807,12.995 3.437,12.892 2.934,12.907 2.375,12.923 1.812,12.875 1.256,12.918 0.67,12.964 0.39,12.767 0.307,12.161 -0.099,9.193 -0.57,6.234 -0.944,3.263 -1.11,1.944 -0.313,1.438 0.938,1.969 1.266,2.108 1.614,2.263 1.869,2.5 2.581,3.161 2.914,2.72 3.311,2.127 3.856,1.314 3.042,1.289 2.706,1.059 1.811,0.446 0.865,-0.084 0,0"
         style="fill:#026da7;fill-opacity:1;fill-rule:nonzero;stroke:none"
         transform="matrix(1.3333333,0,0,-1.3333333,1395.5761,602.76347)"
         clip-path="url(#clipPath29)"
         id="path81" />
      <path
         d="m 0,0 c -2.189,-0.037 -3.367,1.375 -3.1,3.543 0.348,2.812 0.74,5.62 1.193,8.417 0.128,0.785 -0.044,0.995 -0.803,0.96 -0.35,-0.016 -0.961,-0.303 -0.97,0.475 -0.01,0.8 0.601,0.622 1.025,0.583 0.778,-0.072 1.111,0.135 1.18,1 0.116,1.468 0.403,2.923 0.634,4.382 0.086,0.547 1.621,1.386 2.048,1.116 C 1.555,20.255 1.357,19.885 1.32,19.601 1.119,18.057 0.91,16.514 0.647,14.98 0.512,14.197 0.722,13.884 1.543,13.981 2.055,14.042 2.581,14.004 3.1,13.987 3.385,13.978 3.775,14.115 3.744,13.565 3.719,13.127 3.548,12.899 3.093,12.903 2.534,12.909 1.966,12.843 1.416,12.914 0.585,13.021 0.312,12.654 0.212,11.882 -0.154,9.072 -0.568,6.268 -0.971,3.462 -1.054,2.882 -1.047,2.306 -0.55,1.93 -0.034,1.539 0.526,1.784 1.036,2.019 1.361,2.168 1.698,2.334 1.956,2.572 2.642,3.204 2.855,2.587 3.214,2.179 3.76,1.557 3.237,1.382 2.838,1.137 1.883,0.552 0.947,-0.084 0,0"
         style="fill:#026da7;fill-opacity:1;fill-rule:nonzero;stroke:none"
         transform="matrix(1.3333333,0,0,-1.3333333,1503.4713,602.75053)"
         clip-path="url(#clipPath30)"
         id="path82" />
      <path
         d="M 0,0 C 0.306,2.113 0.677,4.677 1.047,7.241 1.099,7.596 1.102,7.964 1.197,8.306 1.424,9.12 1.11,9.385 0.315,9.326 -0.031,9.3 -0.528,9.14 -0.537,9.819 c -0.011,0.721 0.498,0.627 0.904,0.574 0.908,-0.119 1.25,0.213 1.313,1.148 0.091,1.349 0.35,2.688 0.558,4.027 0.12,0.766 1.289,1.538 2.013,1.335 0.564,-0.158 0.235,-0.607 0.201,-0.888 -0.192,-1.583 -0.414,-3.163 -0.673,-4.736 -0.11,-0.666 0.038,-0.956 0.764,-0.885 0.553,0.054 1.118,0.031 1.675,10e-4 0.26,-0.013 0.7,0.196 0.663,-0.376 C 6.856,9.623 6.744,9.312 6.26,9.316 5.621,9.32 4.98,9.28 4.344,9.322 3.758,9.361 3.463,9.16 3.381,8.56 2.982,5.637 2.521,2.722 2.164,-0.206 1.983,-1.692 2.781,-2.21 4.13,-1.589 c 0.288,0.132 0.58,0.285 0.818,0.49 0.605,0.523 0.941,0.316 1.386,-0.276 C 6.884,-2.106 6.302,-2.246 5.899,-2.486 5.116,-2.953 4.365,-3.473 3.4,-3.558 1.195,-3.751 0.012,-2.693 0,0"
         style="fill:#026da7;fill-opacity:1;fill-rule:nonzero;stroke:none"
         transform="matrix(1.3333333,0,0,-1.3333333,1200.3757,597.96653)"
         clip-path="url(#clipPath31)"
         id="path83" />
      <path
         d="M 0,0 C 0.806,0.734 1.417,1.417 2.143,1.987 2.746,2.46 3.404,2.874 4.192,2.867 4.623,2.864 5.421,3.166 5.314,2.315 5.241,1.737 5.615,0.792 4.295,0.759 2.042,0.702 -0.102,-1.472 -0.403,-3.708 c -0.313,-2.33 -0.69,-4.651 -0.968,-6.984 -0.152,-1.276 -1.07,-0.779 -1.718,-0.822 -0.918,-0.061 -0.481,0.623 -0.43,1.002 0.558,4.105 1.163,8.203 1.695,12.311 0.101,0.779 0.469,0.856 1.106,0.866 C 0.015,2.676 0.017,2.25 0.004,1.734 -0.012,1.156 0,0.578 0,0"
         style="fill:#026da7;fill-opacity:1;fill-rule:nonzero;stroke:none"
         transform="matrix(1.3333333,0,0,-1.3333333,1408.4872,587.13213)"
         clip-path="url(#clipPath32)"
         id="path84" />
      <path
         d="M 0,0 C 0.702,0.773 1.132,1.294 1.614,1.763 2.276,2.41 3.012,2.994 3.961,3.107 4.452,3.166 5.151,3.475 5.387,2.725 5.633,1.942 5.024,1.154 4.222,1.068 2.127,0.843 -0.03,-1.222 -0.334,-3.318 c -0.334,-2.29 -0.644,-4.583 -0.975,-6.874 -0.135,-0.929 -1.31,-1.49 -2.098,-1.026 -0.346,0.203 -0.171,0.491 -0.135,0.742 0.595,4.188 1.226,8.37 1.772,12.564 0.105,0.8 0.47,0.837 1.094,0.851 C 0.1,2.956 0.002,2.462 0,1.984 -0.001,1.439 0,0.894 0,0"
         style="fill:#026da7;fill-opacity:1;fill-rule:nonzero;stroke:none"
         transform="matrix(1.3333333,0,0,-1.3333333,1217.3396,587.49733)"
         clip-path="url(#clipPath33)"
         id="path85" />
      <path
         d="m 0,0 c -0.945,-0.188 -1.144,0.135 -0.997,1.084 0.608,3.935 1.113,7.885 1.674,11.828 0.181,1.271 0.522,1.511 1.799,1.233 1.07,-0.233 0.33,-0.989 0.273,-1.429 C 2.25,8.806 1.66,4.908 1.146,1 1.045,0.231 0.856,-0.225 0,0"
         style="fill:#026da7;fill-opacity:1;fill-rule:nonzero;stroke:none"
         transform="matrix(1.3333333,0,0,-1.3333333,1543.8447,602.47667)"
         clip-path="url(#clipPath34)"
         id="path86" />
      <path
         d="m 0,0 c -0.859,-0.17 -1.106,0.061 -0.961,0.994 0.637,4.09 1.231,8.187 1.727,12.296 0.161,1.333 1.033,0.82 1.659,0.842 C 3.394,14.166 2.924,13.415 2.87,13.01 2.336,9.026 1.755,5.049 1.216,1.066 1.112,0.296 0.93,-0.266 0,0"
         style="fill:#026da7;fill-opacity:1;fill-rule:nonzero;stroke:none"
         transform="matrix(1.3333333,0,0,-1.3333333,1513.7719,602.4764)"
         clip-path="url(#clipPath35)"
         id="path87" />
      <path
         d="m 0,0 c 2.138,-0.467 1.778,0.128 1.337,-2.063 -0.298,-1.485 -0.655,-2.935 -2.459,-3.282 -0.352,-0.067 -0.8,-0.347 -1.023,0.218 -0.217,0.551 0.086,0.721 0.57,0.926 0.994,0.42 0.989,0.658 0.081,1.282 -0.204,0.14 -0.235,0.285 -0.167,0.497 0.23,0.72 0.445,1.446 0.687,2.163 C -0.839,0.143 -0.501,0.095 0,0"
         style="fill:#026da7;fill-opacity:1;fill-rule:nonzero;stroke:none"
         transform="matrix(1.3333333,0,0,-1.3333333,1335.7627,598.91973)"
         clip-path="url(#clipPath36)"
         id="path88" />
      <path
         d="M 0,0 C -0.004,-1.136 -0.887,-2.106 -1.768,-2.05 -2.656,-1.993 -3.005,-1.413 -3,-0.595 -2.995,0.366 -2.176,1.23 -1.301,1.222 -0.401,1.215 -0.051,0.667 0,0"
         style="fill:#026da7;fill-opacity:1;fill-rule:nonzero;stroke:none"
         transform="matrix(1.3333333,0,0,-1.3333333,1549.4213,577.67947)"
         clip-path="url(#clipPath37)"
         id="path89" />
      <path
         d="m 0,0 c 0.026,-1.014 -0.785,-1.973 -1.696,-1.945 -0.874,0.027 -1.267,0.533 -1.257,1.397 0.011,1.006 0.712,1.832 1.617,1.875 C -0.535,1.364 -0.022,0.855 0,0"
         style="fill:#026da7;fill-opacity:1;fill-rule:nonzero;stroke:none"
         transform="matrix(1.3333333,0,0,-1.3333333,1519.3852,577.81693)"
         clip-path="url(#clipPath38)"
         id="path90" />
      <path
         d="m 0,0 c -1,-0.827 -1.974,-1.627 -2.939,-2.435 -0.27,-0.226 -0.533,-0.327 -0.854,-0.11 -0.447,0.302 -0.042,0.543 0.067,0.785 0.146,0.323 0.341,0.624 0.52,0.931 C -2.113,1.048 -2.113,1.048 0,0"
         style="fill:#026da7;fill-opacity:1;fill-rule:nonzero;stroke:none"
         transform="matrix(1.3333333,0,0,-1.3333333,1331.6271,577.27013)"
         clip-path="url(#clipPath39)"
         id="path91" />
      <path
         d="m 0,0 c 0.063,-9.965 -5.022,-17.013 -12.836,-22.486 -1.934,-1.354 -4.025,-2.441 -6.29,-3.17 -1.518,-0.488 -3.054,-0.611 -4.603,-0.267 -2.695,0.599 -4.109,2.428 -4.224,5.192 -0.451,10.849 4.597,18.609 13.531,24.2 3.781,2.365 7.888,4.004 12.087,5.454 1.056,0.365 1.362,0.055 1.526,-0.941 C -0.374,5.341 0.061,2.705 0,0"
         style="fill:#81ccdf;fill-opacity:1;fill-rule:nonzero;stroke:none"
         transform="matrix(1.3333333,0,0,-1.3333333,1109.5636,464.87147)"
         clip-path="url(#clipPath40)"
         id="path92" />
    </g>
  </g>
</svg>
