<?xml version="1.0" encoding="UTF-8" standalone="no"?>
<!-- Created with Inkscape (http://www.inkscape.org/) -->

<svg
   version="1.1"
   id="svg1"
   width="448.436"
   height="137.63867"
   viewBox="0 0 448.436 137.63867"
   sodipodi:docname="logo_spf_en.svg"
   inkscape:version="1.3.2 (091e20e, 2023-11-25, custom)"
   xmlns:inkscape="http://www.inkscape.org/namespaces/inkscape"
   xmlns:sodipodi="http://sodipodi.sourceforge.net/DTD/sodipodi-0.dtd"
   xmlns="http://www.w3.org/2000/svg"
   xmlns:svg="http://www.w3.org/2000/svg">
  <defs
     id="defs1">
    <clipPath
       clipPathUnits="userSpaceOnUse"
       id="clipPath2">
      <path
         d="M 28.045,72.132 C 16.555,58.847 18.011,38.763 31.297,27.274 v 0 c 13.284,-11.49 33.368,-10.034 44.858,3.25 v 0 c 11.49,13.286 10.034,33.37 -3.251,44.86 v 0 c -6.014,5.201 -13.418,7.749 -20.79,7.749 v 0 C 43.199,83.132 34.334,79.404 28.045,72.132"
         transform="translate(-45.708901,-43.938701)"
         id="path2" />
    </clipPath>
    <clipPath
       clipPathUnits="userSpaceOnUse"
       id="clipPath4">
      <path
         d="M 28.045,72.132 C 16.555,58.847 18.011,38.763 31.297,27.274 v 0 c 13.284,-11.49 33.368,-10.034 44.858,3.25 v 0 c 11.49,13.286 10.034,33.37 -3.251,44.86 v 0 c -6.014,5.201 -13.418,7.749 -20.79,7.749 v 0 C 43.199,83.132 34.334,79.404 28.045,72.132"
         transform="translate(-83.8636,-49.898701)"
         id="path4" />
    </clipPath>
    <clipPath
       clipPathUnits="userSpaceOnUse"
       id="clipPath6">
      <path
         d="M 28.045,72.132 C 16.555,58.847 18.011,38.763 31.297,27.274 v 0 c 13.284,-11.49 33.368,-10.034 44.858,3.25 v 0 c 11.49,13.286 10.034,33.37 -3.251,44.86 v 0 c -6.014,5.201 -13.418,7.749 -20.79,7.749 v 0 C 43.199,83.132 34.334,79.404 28.045,72.132"
         transform="translate(-20.298201,-52.838901)"
         id="path6" />
    </clipPath>
    <clipPath
       clipPathUnits="userSpaceOnUse"
       id="clipPath8">
      <path
         d="M 28.045,72.132 C 16.555,58.847 18.011,38.763 31.297,27.274 v 0 c 13.284,-11.49 33.368,-10.034 44.858,3.25 v 0 c 11.49,13.286 10.034,33.37 -3.251,44.86 v 0 c -6.014,5.201 -13.418,7.749 -20.79,7.749 v 0 C 43.199,83.132 34.334,79.404 28.045,72.132"
         transform="translate(-20.289601,-50.101701)"
         id="path8" />
    </clipPath>
    <clipPath
       clipPathUnits="userSpaceOnUse"
       id="clipPath10">
      <path
         d="M 28.045,72.132 C 16.555,58.847 18.011,38.763 31.297,27.274 v 0 c 13.284,-11.49 33.368,-10.034 44.858,3.25 v 0 c 11.49,13.286 10.034,33.37 -3.251,44.86 v 0 c -6.014,5.201 -13.418,7.749 -20.79,7.749 v 0 C 43.199,83.132 34.334,79.404 28.045,72.132"
         transform="translate(-83.8723,-52.636002)"
         id="path10" />
    </clipPath>
    <clipPath
       clipPathUnits="userSpaceOnUse"
       id="clipPath13">
      <path
         d="M 0,103.229 H 336.327 V 0 H 0 Z"
         transform="translate(-114.3931,-62.374501)"
         id="path13" />
    </clipPath>
    <clipPath
       clipPathUnits="userSpaceOnUse"
       id="clipPath15">
      <path
         d="M 0,103.229 H 336.327 V 0 H 0 Z"
         transform="translate(-125.085,-63.473101)"
         id="path15" />
    </clipPath>
    <clipPath
       clipPathUnits="userSpaceOnUse"
       id="clipPath17">
      <path
         d="M 0,103.229 H 336.327 V 0 H 0 Z"
         transform="translate(-129.2148,-62.275902)"
         id="path17" />
    </clipPath>
    <clipPath
       clipPathUnits="userSpaceOnUse"
       id="clipPath19">
      <path
         d="M 0,103.229 H 336.327 V 0 H 0 Z"
         transform="translate(-133.7524,-62.331001)"
         id="path19" />
    </clipPath>
    <clipPath
       clipPathUnits="userSpaceOnUse"
       id="clipPath21">
      <path
         d="M 0,103.229 H 336.327 V 0 H 0 Z"
         transform="translate(-137.4687,-70.905702)"
         id="path21" />
    </clipPath>
    <clipPath
       clipPathUnits="userSpaceOnUse"
       id="clipPath23">
      <path
         d="M 0,103.229 H 336.327 V 0 H 0 Z"
         id="path23" />
    </clipPath>
    <clipPath
       clipPathUnits="userSpaceOnUse"
       id="clipPath25">
      <path
         d="M 0,103.229 H 336.327 V 0 H 0 Z"
         transform="translate(-115.2822,-48.664501)"
         id="path25" />
    </clipPath>
    <clipPath
       clipPathUnits="userSpaceOnUse"
       id="clipPath27">
      <path
         d="M 0,103.229 H 336.327 V 0 H 0 Z"
         transform="translate(-122.80131,-48.664501)"
         id="path27" />
    </clipPath>
    <clipPath
       clipPathUnits="userSpaceOnUse"
       id="clipPath29">
      <path
         d="M 0,103.229 H 336.327 V 0 H 0 Z"
         transform="translate(-130.5918,-48.245101)"
         id="path29" />
    </clipPath>
    <clipPath
       clipPathUnits="userSpaceOnUse"
       id="clipPath31">
      <path
         d="M 0,103.229 H 336.327 V 0 H 0 Z"
         transform="translate(-138.7959,-47.318801)"
         id="path31" />
    </clipPath>
    <clipPath
       clipPathUnits="userSpaceOnUse"
       id="clipPath33">
      <path
         d="M 0,103.229 H 336.327 V 0 H 0 Z"
         transform="translate(-146.67921,-55.702101)"
         id="path33" />
    </clipPath>
    <clipPath
       clipPathUnits="userSpaceOnUse"
       id="clipPath35">
      <path
         d="M 0,103.229 H 336.327 V 0 H 0 Z"
         transform="translate(-158.4453,-48.269501)"
         id="path35" />
    </clipPath>
    <clipPath
       clipPathUnits="userSpaceOnUse"
       id="clipPath37">
      <path
         d="M 0,103.229 H 336.327 V 0 H 0 Z"
         transform="translate(-161.7046,-48.306601)"
         id="path37" />
    </clipPath>
    <clipPath
       clipPathUnits="userSpaceOnUse"
       id="clipPath39">
      <path
         d="M 0,103.229 H 336.327 V 0 H 0 Z"
         transform="translate(-164.9517,-51.800802)"
         id="path39" />
    </clipPath>
    <clipPath
       clipPathUnits="userSpaceOnUse"
       id="clipPath41">
      <path
         d="M 0,103.229 H 336.327 V 0 H 0 Z"
         transform="translate(-175.92141,-47.547301)"
         id="path41" />
    </clipPath>
    <clipPath
       clipPathUnits="userSpaceOnUse"
       id="clipPath43">
      <path
         d="M 0,103.229 H 336.327 V 0 H 0 Z"
         transform="translate(-187.7803,-48.269501)"
         id="path43" />
    </clipPath>
    <clipPath
       clipPathUnits="userSpaceOnUse"
       id="clipPath45">
      <path
         d="M 0,103.229 H 336.327 V 0 H 0 Z"
         transform="translate(-191.793,-48.380801)"
         id="path45" />
    </clipPath>
    <clipPath
       clipPathUnits="userSpaceOnUse"
       id="clipPath47">
      <path
         d="M 0,103.229 H 336.327 V 0 H 0 Z"
         transform="translate(-197.2627,-47.170901)"
         id="path47" />
    </clipPath>
    <clipPath
       clipPathUnits="userSpaceOnUse"
       id="clipPath49">
      <path
         d="M 0,103.229 H 336.327 V 0 H 0 Z"
         transform="translate(-205.15231,-47.127401)"
         id="path49" />
    </clipPath>
    <clipPath
       clipPathUnits="userSpaceOnUse"
       id="clipPath51">
      <path
         d="M 0,103.229 H 336.327 V 0 H 0 Z"
         transform="translate(-209.8564,-45.751001)"
         id="path51" />
    </clipPath>
    <clipPath
       clipPathUnits="userSpaceOnUse"
       id="clipPath53">
      <path
         d="M 0,103.229 H 336.327 V 0 H 0 Z"
         id="path53" />
    </clipPath>
    <clipPath
       clipPathUnits="userSpaceOnUse"
       id="clipPath55">
      <path
         d="M 0,103.229 H 336.327 V 0 H 0 Z"
         transform="translate(-111.49221,-36.597201)"
         id="path55" />
    </clipPath>
    <clipPath
       clipPathUnits="userSpaceOnUse"
       id="clipPath57">
      <path
         d="M 0,103.229 H 336.327 V 0 H 0 Z"
         transform="translate(-120.5967,-31.664501)"
         id="path57" />
    </clipPath>
    <clipPath
       clipPathUnits="userSpaceOnUse"
       id="clipPath59">
      <path
         d="M 0,103.229 H 336.327 V 0 H 0 Z"
         transform="translate(-125.5542,-33.103001)"
         id="path59" />
    </clipPath>
    <clipPath
       clipPathUnits="userSpaceOnUse"
       id="clipPath61">
      <path
         d="M 0,103.229 H 336.327 V 0 H 0 Z"
         transform="translate(-128.80131,-33.090801)"
         id="path61" />
    </clipPath>
    <clipPath
       clipPathUnits="userSpaceOnUse"
       id="clipPath63">
      <path
         d="M 0,103.229 H 336.327 V 0 H 0 Z"
         transform="translate(-137.5801,-33.460901)"
         id="path63" />
    </clipPath>
    <clipPath
       clipPathUnits="userSpaceOnUse"
       id="clipPath65">
      <path
         d="M 0,103.229 H 336.327 V 0 H 0 Z"
         transform="translate(-140.92581,-36.597201)"
         id="path65" />
    </clipPath>
    <clipPath
       clipPathUnits="userSpaceOnUse"
       id="clipPath67">
      <path
         d="M 0,103.229 H 336.327 V 0 H 0 Z"
         transform="translate(-148.2471,-36.597201)"
         id="path67" />
    </clipPath>
    <clipPath
       clipPathUnits="userSpaceOnUse"
       id="clipPath69">
      <path
         d="M 0,103.229 H 336.327 V 0 H 0 Z"
         transform="translate(-160.2358,-31.967301)"
         id="path69" />
    </clipPath>
    <clipPath
       clipPathUnits="userSpaceOnUse"
       id="clipPath71">
      <path
         d="M 0,103.229 H 336.327 V 0 H 0 Z"
         transform="translate(-166.4824,-36.597201)"
         id="path71" />
    </clipPath>
    <clipPath
       clipPathUnits="userSpaceOnUse"
       id="clipPath73">
      <path
         d="M 0,103.229 H 336.327 V 0 H 0 Z"
         transform="translate(-175.5322,-31.923801)"
         id="path73" />
    </clipPath>
  </defs>
  <sodipodi:namedview
     id="namedview1"
     pagecolor="#505050"
     bordercolor="#eeeeee"
     borderopacity="1"
     inkscape:showpageshadow="0"
     inkscape:pageopacity="0"
     inkscape:pagecheckerboard="0"
     inkscape:deskcolor="#d1d1d1"
     inkscape:zoom="0.62757783"
     inkscape:cx="246.98132"
     inkscape:cy="61.346972"
     inkscape:window-width="1920"
     inkscape:window-height="991"
     inkscape:window-x="-9"
     inkscape:window-y="-9"
     inkscape:window-maximized="1"
     inkscape:current-layer="layer-MC1">
    <inkscape:page
       x="0"
       y="0"
       inkscape:label="1"
       id="page1"
       width="448.436"
       height="137.63867"
       margin="0 37.728001 0.38133332 0.64764398"
       bleed="0" />
  </sodipodi:namedview>
  <g
     id="layer-MC0"
     inkscape:groupmode="layer"
     inkscape:label="Symbol">
    <path
       id="path1"
       d="m 0,0 c -4.081,3.53 -4.529,9.7 -0.999,13.781 3.53,4.081 9.7,4.529 13.781,0.999 4.082,-3.53 4.529,-9.7 0.999,-13.781 C 10.251,-3.083 4.081,-3.53 0,0"
       style="fill:#107abd;fill-opacity:1;fill-rule:nonzero;stroke:none"
       transform="matrix(1.3333333,0,0,-1.3333333,60.9452,79.053733)"
       clip-path="url(#clipPath2)" />
    <path
       id="path3"
       d="m 0,0 c 0.001,0.024 0.002,0.047 0.003,0.071 0.016,0.328 0.022,0.657 0.027,0.985 0,0.015 0,0.03 0,0.045 C 0.038,1.757 0.025,2.415 -0.009,3.071 -0.011,3.116 -0.014,3.16 -0.016,3.204 -0.031,3.473 -0.046,3.741 -0.071,4.008 -0.077,4.072 -0.081,4.136 -0.087,4.2 -0.142,4.847 -0.218,5.492 -0.314,6.136 -0.323,6.195 -0.332,6.255 -0.342,6.314 -0.385,6.596 -0.434,6.876 -0.483,7.156 -0.491,7.198 -0.498,7.24 -0.506,7.282 -0.566,7.605 -0.63,7.927 -0.7,8.248 -0.701,8.25 -0.701,8.252 -0.702,8.253 -0.769,8.56 -0.842,8.866 -0.918,9.171 -0.945,9.278 -0.973,9.384 -1,9.491 c -0.058,0.23 -0.124,0.458 -0.188,0.687 -0.013,0.048 -0.027,0.096 -0.041,0.144 -0.09,0.31 -0.184,0.619 -0.284,0.928 -0.013,0.037 -0.026,0.075 -0.038,0.112 -0.087,0.266 -0.178,0.53 -0.273,0.793 -0.028,0.078 -0.056,0.156 -0.085,0.234 -0.091,0.25 -0.186,0.499 -0.284,0.747 -0.022,0.053 -0.042,0.106 -0.063,0.159 -0.12,0.298 -0.244,0.594 -0.373,0.889 -0.026,0.059 -0.054,0.117 -0.08,0.176 -0.105,0.237 -0.214,0.473 -0.325,0.707 -0.039,0.082 -0.078,0.164 -0.118,0.245 -0.119,0.245 -0.241,0.488 -0.367,0.731 -0.024,0.046 -0.046,0.092 -0.07,0.138 -0.15,0.284 -0.304,0.567 -0.463,0.847 -0.039,0.071 -0.081,0.141 -0.121,0.212 -0.124,0.216 -0.251,0.43 -0.38,0.644 -0.05,0.081 -0.099,0.163 -0.15,0.244 -0.153,0.248 -0.31,0.495 -0.471,0.74 -0.019,0.029 -0.037,0.058 -0.056,0.086 -0.179,0.271 -0.365,0.54 -0.553,0.808 -0.053,0.074 -0.108,0.149 -0.161,0.223 -0.145,0.201 -0.292,0.401 -0.443,0.6 -0.058,0.076 -0.115,0.153 -0.174,0.23 -0.202,0.262 -0.407,0.523 -0.619,0.781 -4.213,5.136 -9.627,8.88 -15.628,10.348 -9.513,2.327 -6.769,-8.642 -0.85,-15.859 0.078,-0.096 0.15,-0.198 0.23,-0.296 L -12.603,2.786 V 2.785 c 5.839,-7.118 7.233,-20.631 0.115,-26.469 -0.201,-0.165 -0.405,-0.322 -0.611,-0.476 l 0.081,-0.098 c 0.479,0.35 0.952,0.714 1.417,1.095 4.966,4.073 8.379,9.338 10.168,15.041 0.034,0.107 0.063,0.212 0.136,0.339 0.339,0.588 0.534,1.242 0.547,1.92 0.006,0.308 0.062,0.554 0.114,0.805 0.204,0.982 0.361,1.972 0.472,2.968 0.004,0.032 0.007,0.064 0.011,0.096 C -0.082,-1.331 -0.03,-0.666 0,0"
       style="fill:#76c4ae;fill-opacity:1;fill-rule:nonzero;stroke:none"
       transform="matrix(1.3333333,0,0,-1.3333333,111.81813,71.107067)"
       clip-path="url(#clipPath4)" />
    <path
       id="path5"
       d="m 0,0 c -0.001,-0.024 -0.002,-0.047 -0.003,-0.071 -0.016,-0.328 -0.022,-0.657 -0.027,-0.985 0,-0.015 0,-0.03 0,-0.045 -0.008,-0.656 0.005,-1.314 0.039,-1.97 C 0.011,-3.116 0.014,-3.16 0.016,-3.204 0.031,-3.473 0.046,-3.741 0.071,-4.008 0.076,-4.072 0.081,-4.136 0.087,-4.2 0.142,-4.847 0.218,-5.492 0.314,-6.136 0.323,-6.195 0.332,-6.255 0.342,-6.314 0.385,-6.596 0.433,-6.876 0.483,-7.156 0.491,-7.198 0.498,-7.24 0.506,-7.282 0.566,-7.605 0.63,-7.927 0.7,-8.248 0.701,-8.25 0.701,-8.252 0.702,-8.253 0.769,-8.56 0.842,-8.866 0.918,-9.171 0.945,-9.277 0.973,-9.384 1,-9.491 c 0.058,-0.23 0.124,-0.458 0.188,-0.687 0.013,-0.048 0.027,-0.096 0.041,-0.144 0.09,-0.31 0.184,-0.619 0.284,-0.928 0.012,-0.037 0.026,-0.075 0.038,-0.112 0.087,-0.266 0.178,-0.53 0.273,-0.793 0.028,-0.078 0.056,-0.156 0.085,-0.234 0.091,-0.25 0.186,-0.499 0.284,-0.747 0.021,-0.053 0.042,-0.106 0.063,-0.159 0.12,-0.298 0.244,-0.594 0.373,-0.889 0.026,-0.059 0.054,-0.117 0.08,-0.176 0.105,-0.237 0.214,-0.473 0.325,-0.707 0.039,-0.082 0.078,-0.164 0.118,-0.245 0.119,-0.245 0.241,-0.488 0.367,-0.731 0.024,-0.046 0.046,-0.092 0.07,-0.138 0.15,-0.284 0.304,-0.567 0.463,-0.847 0.039,-0.071 0.081,-0.141 0.121,-0.212 0.124,-0.215 0.251,-0.43 0.38,-0.644 0.05,-0.081 0.099,-0.163 0.149,-0.244 0.154,-0.248 0.311,-0.495 0.472,-0.74 0.019,-0.029 0.037,-0.058 0.055,-0.086 0.18,-0.271 0.365,-0.54 0.554,-0.807 0.053,-0.075 0.108,-0.15 0.161,-0.224 0.145,-0.201 0.292,-0.401 0.443,-0.599 0.058,-0.077 0.115,-0.154 0.174,-0.231 0.202,-0.262 0.407,-0.523 0.619,-0.781 4.213,-5.136 9.627,-8.88 15.628,-10.348 9.514,-2.327 6.769,8.642 0.851,15.859 -0.079,0.096 -0.151,0.198 -0.231,0.296 L 12.603,-2.786 v 10e-4 C 6.765,4.333 5.37,17.846 12.488,23.684 c 0.201,0.165 0.405,0.322 0.611,0.476 l -0.081,0.098 C 12.539,23.908 12.066,23.544 11.602,23.163 6.635,19.09 3.222,13.825 1.433,8.122 1.399,8.015 1.37,7.91 1.297,7.783 0.958,7.195 0.763,6.541 0.75,5.863 0.744,5.555 0.688,5.309 0.636,5.058 0.432,4.076 0.275,3.086 0.164,2.09 0.16,2.058 0.157,2.026 0.153,1.994 0.082,1.331 0.03,0.666 0,0"
       style="fill:#76c4ae;fill-opacity:1;fill-rule:nonzero;stroke:none"
       transform="matrix(1.3333333,0,0,-1.3333333,27.064267,67.1868)"
       clip-path="url(#clipPath6)" />
    <path
       id="path7"
       d="m 0,0 c -0.001,0.024 -0.001,0.047 -0.002,0.071 -0.015,0.328 -0.018,0.657 -0.021,0.986 0,0.014 0,0.029 0,0.044 -0.003,0.657 0.014,1.314 0.051,1.97 C 0.031,3.116 0.034,3.16 0.037,3.204 0.053,3.472 0.07,3.74 0.096,4.008 0.102,4.072 0.107,4.136 0.113,4.2 c 0.06,0.646 0.14,1.291 0.24,1.933 0.009,0.06 0.019,0.119 0.029,0.179 0.045,0.281 0.095,0.561 0.147,0.841 0.008,0.042 0.015,0.084 0.023,0.125 0.062,0.323 0.129,0.645 0.201,0.966 0,10e-4 0.001,0.003 0.001,0.005 0.069,0.306 0.144,0.611 0.223,0.916 0.027,0.106 0.056,0.213 0.084,0.319 0.059,0.23 0.126,0.458 0.192,0.686 0.014,0.048 0.027,0.096 0.041,0.144 0.093,0.309 0.189,0.618 0.291,0.926 0.013,0.037 0.026,0.075 0.039,0.112 0.088,0.265 0.181,0.529 0.277,0.791 0.029,0.078 0.058,0.156 0.087,0.234 0.093,0.249 0.189,0.497 0.289,0.745 0.022,0.053 0.042,0.106 0.064,0.159 0.121,0.296 0.248,0.592 0.379,0.886 0.026,0.058 0.054,0.117 0.08,0.176 0.107,0.236 0.217,0.471 0.33,0.705 0.04,0.081 0.079,0.162 0.12,0.244 0.12,0.244 0.244,0.486 0.371,0.728 0.024,0.046 0.047,0.092 0.072,0.138 0.151,0.283 0.307,0.564 0.467,0.844 0.04,0.071 0.082,0.141 0.123,0.211 0.126,0.215 0.254,0.429 0.385,0.641 0.049,0.082 0.099,0.163 0.15,0.244 0.155,0.247 0.314,0.493 0.476,0.737 0.019,0.028 0.037,0.057 0.056,0.085 0.182,0.27 0.369,0.538 0.559,0.804 0.054,0.075 0.109,0.149 0.163,0.223 0.146,0.2 0.294,0.399 0.446,0.596 0.058,0.077 0.117,0.153 0.176,0.229 0.204,0.261 0.41,0.521 0.623,0.777 4.246,5.11 9.685,8.819 15.694,10.249 9.528,2.266 6.714,-8.685 0.75,-15.864 -0.08,-0.096 -0.152,-0.198 -0.233,-0.294 L 12.62,2.706 V 2.705 C 6.737,-4.376 5.256,-17.88 12.337,-23.764 c 0.199,-0.165 0.402,-0.324 0.607,-0.479 l -0.082,-0.098 c -0.476,0.353 -0.947,0.72 -1.409,1.104 -4.94,4.105 -8.319,9.392 -10.072,15.106 -0.033,0.107 -0.061,0.213 -0.134,0.34 -0.335,0.59 -0.526,1.245 -0.534,1.924 C 0.709,-5.56 0.654,-5.313 0.604,-5.062 0.406,-4.079 0.255,-3.087 0.151,-2.091 0.147,-2.059 0.144,-2.027 0.141,-1.995 0.073,-1.331 0.026,-0.666 0,0"
       style="fill:#107abd;fill-opacity:1;fill-rule:nonzero;stroke:none"
       transform="matrix(1.3333333,0,0,-1.3333333,27.0528,70.8364)"
       clip-path="url(#clipPath8)" />
    <path
       id="path9"
       d="m 0,0 c 0.001,-0.024 0.001,-0.047 0.002,-0.071 0.015,-0.328 0.018,-0.657 0.021,-0.986 0,-0.014 0,-0.029 0,-0.044 C 0.026,-1.758 0.009,-2.415 -0.028,-3.071 -0.031,-3.116 -0.034,-3.16 -0.037,-3.204 -0.053,-3.472 -0.07,-3.74 -0.096,-4.008 -0.102,-4.072 -0.107,-4.136 -0.113,-4.2 c -0.06,-0.646 -0.14,-1.291 -0.24,-1.933 -0.009,-0.06 -0.019,-0.119 -0.029,-0.179 -0.045,-0.281 -0.095,-0.561 -0.147,-0.841 -0.008,-0.042 -0.015,-0.084 -0.023,-0.125 -0.062,-0.323 -0.129,-0.645 -0.201,-0.966 0,-10e-4 -0.001,-0.003 -0.001,-0.005 -0.069,-0.306 -0.144,-0.611 -0.223,-0.916 -0.027,-0.106 -0.056,-0.213 -0.084,-0.319 -0.059,-0.23 -0.126,-0.458 -0.192,-0.686 -0.014,-0.048 -0.027,-0.096 -0.041,-0.144 -0.093,-0.309 -0.189,-0.618 -0.291,-0.926 -0.012,-0.037 -0.026,-0.075 -0.039,-0.112 -0.088,-0.265 -0.181,-0.529 -0.277,-0.791 -0.029,-0.078 -0.058,-0.156 -0.087,-0.234 -0.093,-0.249 -0.189,-0.497 -0.289,-0.745 -0.022,-0.053 -0.042,-0.106 -0.064,-0.159 -0.121,-0.296 -0.248,-0.592 -0.379,-0.886 -0.026,-0.058 -0.054,-0.117 -0.08,-0.176 -0.107,-0.236 -0.217,-0.471 -0.33,-0.705 -0.04,-0.081 -0.079,-0.162 -0.12,-0.244 -0.12,-0.244 -0.244,-0.486 -0.371,-0.728 -0.024,-0.046 -0.047,-0.092 -0.072,-0.138 -0.151,-0.283 -0.307,-0.564 -0.467,-0.844 -0.04,-0.071 -0.082,-0.141 -0.123,-0.211 -0.126,-0.215 -0.254,-0.429 -0.384,-0.641 -0.05,-0.082 -0.1,-0.163 -0.151,-0.244 -0.155,-0.247 -0.314,-0.493 -0.476,-0.737 -0.019,-0.028 -0.037,-0.057 -0.056,-0.085 -0.182,-0.27 -0.369,-0.538 -0.559,-0.804 -0.054,-0.075 -0.109,-0.149 -0.163,-0.223 -0.146,-0.2 -0.294,-0.399 -0.446,-0.596 -0.058,-0.077 -0.117,-0.153 -0.176,-0.229 -0.203,-0.261 -0.41,-0.521 -0.623,-0.777 -4.246,-5.11 -9.685,-8.819 -15.694,-10.249 -9.528,-2.266 -6.714,8.685 -0.75,15.864 0.08,0.096 0.152,0.198 0.233,0.294 l 10.908,12.934 v 10e-4 c 5.883,7.081 7.364,20.585 0.283,26.469 -0.199,0.165 -0.402,0.324 -0.607,0.479 l 0.081,0.098 c 0.477,-0.353 0.948,-0.72 1.41,-1.104 4.94,-4.105 8.319,-9.392 10.072,-15.106 0.033,-0.107 0.061,-0.213 0.134,-0.34 0.335,-0.59 0.526,-1.245 0.534,-1.924 C -0.709,5.56 -0.654,5.313 -0.604,5.062 -0.406,4.079 -0.255,3.087 -0.151,2.091 -0.147,2.059 -0.144,2.027 -0.141,1.994 -0.073,1.331 -0.026,0.666 0,0"
       style="fill:#107abd;fill-opacity:1;fill-rule:nonzero;stroke:none"
       transform="matrix(1.3333333,0,0,-1.3333333,111.82973,67.457333)"
       clip-path="url(#clipPath10)" />
  </g>
  <g
     id="layer-MC1"
     inkscape:groupmode="layer"
     inkscape:label="TEXT">
    <path
       id="path11"
       d="m 109.751,70.721 h 1.753 v -8.643 h -1.753 z m -4.926,-3.432 h 6.099 v -1.581 h -6.099 z m -0.765,3.432 h 1.753 v -8.643 h -1.753 z"
       style="fill:#107abd;fill-opacity:1;fill-rule:nonzero;stroke:none"
       transform="matrix(1.3333333,0,0,-1.3333333,0,137.63867)" />
    <path
       id="path12"
       d="m 0,0 c -0.502,0.271 -0.881,0.648 -1.136,1.13 -0.255,0.481 -0.383,1.039 -0.383,1.673 0,0.658 0.128,1.234 0.383,1.728 C -0.881,5.025 -0.502,5.406 0,5.673 0.502,5.94 1.103,6.075 1.803,6.075 2.51,6.075 3.107,5.947 3.593,5.692 4.078,5.437 4.447,5.074 4.698,4.605 4.949,4.136 5.079,3.581 5.087,2.938 V 2.79 C 5.087,2.741 5.084,2.691 5.081,2.642 5.076,2.593 5.07,2.543 5.062,2.494 h -5.778 l 0.037,1 H 3.815 L 3.235,2.876 C 3.268,3.329 3.237,3.704 3.142,4 3.047,4.296 2.887,4.519 2.661,4.667 2.434,4.815 2.14,4.889 1.778,4.889 1.391,4.889 1.08,4.796 0.846,4.611 0.611,4.426 0.446,4.187 0.352,3.896 0.257,3.603 0.21,3.264 0.21,2.876 0.21,2.449 0.275,2.084 0.407,1.784 0.539,1.483 0.73,1.257 0.981,1.105 1.232,0.953 1.531,0.876 1.876,0.876 c 0.395,0 0.715,0.073 0.957,0.217 0.243,0.143 0.402,0.327 0.476,0.549 H 5.013 C 4.864,0.975 4.515,0.467 3.963,0.117 3.412,-0.233 2.7,-0.408 1.827,-0.408 1.111,-0.408 0.502,-0.271 0,0"
       style="fill:#107abd;fill-opacity:1;fill-rule:nonzero;stroke:none"
       transform="matrix(1.3333333,0,0,-1.3333333,152.52413,54.472667)"
       clip-path="url(#clipPath13)" />
    <path
       id="path14"
       d="M 0,0 V 3.507 L 0.234,4.865 H 1.691 V -0.037 L 1.876,-1.395 H 0.284 Z M -0.408,0.395 C -0.136,0.716 0,1.169 0,1.753 c 0,0.568 -0.136,1.011 -0.408,1.328 -0.271,0.316 -0.65,0.475 -1.135,0.475 -0.486,0 -0.863,-0.159 -1.13,-0.475 -0.267,-0.317 -0.401,-0.76 -0.401,-1.328 0,-0.395 0.059,-0.728 0.178,-1 0.12,-0.272 0.295,-0.479 0.525,-0.623 0.231,-0.144 0.507,-0.216 0.828,-0.216 0.485,0 0.864,0.16 1.135,0.481 m -3.117,-1.494 c -0.424,0.272 -0.743,0.653 -0.957,1.142 -0.214,0.49 -0.321,1.06 -0.321,1.71 0,0.634 0.107,1.194 0.321,1.68 0.214,0.485 0.533,0.864 0.957,1.135 0.424,0.272 0.928,0.408 1.512,0.408 0.535,0 0.998,-0.123 1.389,-0.371 C -0.233,4.358 0.068,3.994 0.278,3.513 0.488,3.031 0.593,2.445 0.593,1.753 0.593,1.572 0.584,1.408 0.568,1.259 0.526,0.659 0.395,0.154 0.173,-0.253 -0.049,-0.66 -0.346,-0.971 -0.716,-1.185 c -0.37,-0.214 -0.803,-0.321 -1.297,-0.321 -0.584,0 -1.088,0.136 -1.512,0.407"
       style="fill:#107abd;fill-opacity:1;fill-rule:nonzero;stroke:none"
       transform="matrix(1.3333333,0,0,-1.3333333,166.78,53.007867)"
       clip-path="url(#clipPath15)" />
    <path
       id="path16"
       d="M 0,0 C -0.333,0.173 -0.574,0.442 -0.722,0.809 -0.87,1.175 -0.944,1.662 -0.944,2.271 V 7.235 8.63 H 0.759 V 2.222 C 0.759,1.975 0.786,1.78 0.84,1.636 0.893,1.492 0.984,1.387 1.111,1.321 1.239,1.255 1.414,1.222 1.636,1.222 h 0.58 V -0.259 H 1.315 C 0.772,-0.259 0.333,-0.173 0,0"
       style="fill:#107abd;fill-opacity:1;fill-rule:nonzero;stroke:none"
       transform="matrix(1.3333333,0,0,-1.3333333,172.2864,54.604133)"
       clip-path="url(#clipPath17)" />
    <path
       id="path18"
       d="M 0,0 C -0.362,0.169 -0.636,0.449 -0.821,0.84 -1.006,1.23 -1.099,1.751 -1.099,2.401 V 5.698 L -0.58,7.933 H 0.605 V 2.365 C 0.605,2.093 0.634,1.877 0.691,1.716 0.749,1.556 0.852,1.434 1,1.352 1.148,1.27 1.35,1.229 1.605,1.229 H 2.691 V -0.253 H 1.383 C 0.823,-0.253 0.362,-0.168 0,0 M -2.519,6.007 H 2.494 V 4.599 h -5.013 z"
       style="fill:#107abd;fill-opacity:1;fill-rule:nonzero;stroke:none"
       transform="matrix(1.3333333,0,0,-1.3333333,178.33653,54.530667)"
       clip-path="url(#clipPath19)" />
    <path
       id="path20"
       d="M 0,0 H 1.704 V -3.852 L 1.506,-3.63 c 0.189,0.396 0.459,0.69 0.809,0.883 0.35,0.193 0.759,0.29 1.228,0.29 0.807,0 1.394,-0.239 1.76,-0.716 0.366,-0.477 0.549,-1.181 0.549,-2.111 V -8.828 H 4.148 v 3.347 c 0,0.534 -0.099,0.936 -0.296,1.203 -0.198,0.267 -0.498,0.402 -0.901,0.402 -0.429,0 -0.743,-0.135 -0.945,-0.402 C 1.804,-4.545 1.704,-4.955 1.704,-5.506 V -8.828 H 0 Z"
       style="fill:#107abd;fill-opacity:1;fill-rule:nonzero;stroke:none"
       transform="matrix(1.3333333,0,0,-1.3333333,183.2916,43.097733)"
       clip-path="url(#clipPath21)" />
    <path
       id="path22"
       d="m 105.665,51.455 h 3.951 v -1.568 h -3.951 z m -1.605,4.062 h 5.914 v -1.568 h -4.63 l 0.469,0.407 v -7.482 h -1.753 z"
       style="fill:#107abd;fill-opacity:1;fill-rule:nonzero;stroke:none"
       transform="matrix(1.3333333,0,0,-1.3333333,0,137.63867)"
       clip-path="url(#clipPath23)" />
    <path
       id="path24"
       d="m 0,0 c 0.279,0.321 0.419,0.774 0.419,1.358 0,0.379 -0.063,0.702 -0.191,0.97 -0.127,0.267 -0.312,0.473 -0.555,0.617 -0.243,0.144 -0.537,0.216 -0.883,0.216 -0.511,0 -0.904,-0.159 -1.179,-0.475 -0.276,-0.317 -0.413,-0.76 -0.413,-1.328 0,-0.395 0.061,-0.728 0.184,-1 0.124,-0.272 0.305,-0.479 0.544,-0.623 0.238,-0.144 0.526,-0.216 0.864,-0.216 0.526,0 0.93,0.16 1.21,0.481 m -3.019,-1.487 c -0.498,0.275 -0.874,0.658 -1.129,1.148 -0.255,0.489 -0.383,1.055 -0.383,1.697 0,0.626 0.128,1.184 0.383,1.673 0.255,0.49 0.631,0.871 1.129,1.142 0.498,0.272 1.105,0.408 1.821,0.408 0.708,0 1.313,-0.136 1.815,-0.408 C 1.119,3.902 1.5,3.521 1.759,3.031 2.019,2.542 2.148,1.984 2.148,1.358 2.148,0.716 2.019,0.15 1.759,-0.339 1.5,-0.829 1.119,-1.212 0.617,-1.487 0.115,-1.763 -0.49,-1.901 -1.198,-1.901 c -0.716,0 -1.323,0.138 -1.821,0.414"
       style="fill:#107abd;fill-opacity:1;fill-rule:nonzero;stroke:none"
       transform="matrix(1.3333333,0,0,-1.3333333,153.7096,72.752667)"
       clip-path="url(#clipPath25)" />
    <path
       id="path26"
       d="m 0,0 c 0.279,0.321 0.419,0.774 0.419,1.358 0,0.379 -0.063,0.702 -0.191,0.97 -0.127,0.267 -0.312,0.473 -0.555,0.617 -0.243,0.144 -0.537,0.216 -0.883,0.216 -0.511,0 -0.904,-0.159 -1.179,-0.475 -0.276,-0.317 -0.414,-0.76 -0.414,-1.328 0,-0.395 0.062,-0.728 0.185,-1 0.124,-0.272 0.305,-0.479 0.544,-0.623 0.238,-0.144 0.526,-0.216 0.864,-0.216 0.526,0 0.93,0.16 1.21,0.481 m -3.019,-1.487 c -0.498,0.275 -0.875,0.658 -1.129,1.148 -0.256,0.489 -0.383,1.055 -0.383,1.697 0,0.626 0.127,1.184 0.383,1.673 0.254,0.49 0.631,0.871 1.129,1.142 0.498,0.272 1.105,0.408 1.821,0.408 0.708,0 1.313,-0.136 1.815,-0.408 C 1.119,3.902 1.5,3.521 1.759,3.031 2.019,2.542 2.148,1.984 2.148,1.358 2.148,0.716 2.019,0.15 1.759,-0.339 1.5,-0.829 1.119,-1.212 0.617,-1.487 0.115,-1.763 -0.49,-1.901 -1.198,-1.901 c -0.716,0 -1.323,0.138 -1.821,0.414"
       style="fill:#107abd;fill-opacity:1;fill-rule:nonzero;stroke:none"
       transform="matrix(1.3333333,0,0,-1.3333333,163.73507,72.752667)"
       clip-path="url(#clipPath27)" />
    <path
       id="path28"
       d="M 0,0 V 7.457 H 1.691 V -0.037 L 1.876,-1.371 H 0.284 Z M -0.408,0.419 C -0.136,0.741 0,1.193 0,1.778 c 0,0.568 -0.138,1.01 -0.414,1.327 -0.275,0.317 -0.652,0.476 -1.129,0.476 -0.486,0 -0.865,-0.159 -1.136,-0.476 -0.272,-0.317 -0.408,-0.759 -0.408,-1.327 0,-0.395 0.062,-0.729 0.186,-1 0.123,-0.272 0.3,-0.48 0.53,-0.624 0.231,-0.144 0.507,-0.216 0.828,-0.216 0.485,0 0.864,0.161 1.135,0.481 m -3.123,-1.493 c -0.42,0.271 -0.737,0.652 -0.951,1.142 -0.214,0.49 -0.321,1.059 -0.321,1.71 0,0.634 0.107,1.193 0.321,1.679 0.214,0.485 0.531,0.864 0.951,1.136 C -3.111,4.864 -2.609,5 -2.025,5 -1.49,5 -1.027,4.877 -0.636,4.63 -0.245,4.383 0.053,4.019 0.259,3.537 0.465,3.056 0.568,2.469 0.568,1.778 0.568,1.597 0.563,1.432 0.556,1.284 0.506,0.683 0.37,0.179 0.148,-0.229 c -0.222,-0.407 -0.517,-0.718 -0.883,-0.932 -0.366,-0.214 -0.796,-0.321 -1.29,-0.321 -0.584,0 -1.086,0.136 -1.506,0.408"
       style="fill:#107abd;fill-opacity:1;fill-rule:nonzero;stroke:none"
       transform="matrix(1.3333333,0,0,-1.3333333,174.1224,73.311867)"
       clip-path="url(#clipPath29)" />
    <path
       id="path30"
       d="m 0,0 c -0.679,0.378 -1.204,0.903 -1.574,1.574 -0.371,0.671 -0.556,1.443 -0.556,2.315 0,0.864 0.185,1.632 0.556,2.303 0.37,0.671 0.895,1.193 1.574,1.568 0.679,0.374 1.467,0.562 2.364,0.562 0.799,0 1.509,-0.146 2.13,-0.439 C 5.115,7.591 5.622,7.18 6.013,6.649 6.403,6.118 6.661,5.499 6.784,4.791 H 4.957 C 4.8,5.408 4.498,5.883 4.049,6.217 3.601,6.55 3.039,6.717 2.364,6.717 1.821,6.717 1.346,6.604 0.938,6.377 0.531,6.151 0.216,5.824 -0.006,5.396 -0.229,4.968 -0.34,4.458 -0.34,3.865 -0.34,3.272 -0.229,2.764 -0.006,2.34 0.216,1.916 0.531,1.593 0.938,1.371 1.346,1.148 1.821,1.037 2.364,1.037 c 0.675,0 1.239,0.167 1.692,0.5 0.452,0.334 0.753,0.801 0.901,1.401 H 6.796 C 6.665,2.239 6.403,1.625 6.013,1.099 5.622,0.572 5.115,0.163 4.494,-0.129 3.873,-0.422 3.163,-0.568 2.364,-0.568 1.467,-0.568 0.679,-0.378 0,0"
       style="fill:#107abd;fill-opacity:1;fill-rule:nonzero;stroke:none"
       transform="matrix(1.3333333,0,0,-1.3333333,185.0612,74.546933)"
       clip-path="url(#clipPath31)" />
    <path
       id="path32"
       d="M 0,0 H 1.704 V -3.852 L 1.506,-3.63 c 0.189,0.396 0.459,0.69 0.809,0.883 0.35,0.193 0.759,0.29 1.228,0.29 0.807,0 1.394,-0.239 1.76,-0.716 0.366,-0.477 0.549,-1.181 0.549,-2.111 V -8.828 H 4.148 v 3.347 c 0,0.534 -0.099,0.936 -0.296,1.203 -0.198,0.267 -0.498,0.402 -0.901,0.402 -0.429,0 -0.743,-0.135 -0.945,-0.402 C 1.804,-4.545 1.704,-4.955 1.704,-5.506 V -8.828 H 0 Z"
       style="fill:#107abd;fill-opacity:1;fill-rule:nonzero;stroke:none"
       transform="matrix(1.3333333,0,0,-1.3333333,195.57227,63.3692)"
       clip-path="url(#clipPath33)" />
    <path
       id="path34"
       d="M 0,0 V 3.507 L 0.234,4.865 H 1.691 V -0.037 L 1.876,-1.395 H 0.284 Z M -0.408,0.395 C -0.136,0.716 0,1.169 0,1.753 c 0,0.568 -0.136,1.011 -0.408,1.328 -0.271,0.316 -0.65,0.475 -1.135,0.475 -0.486,0 -0.863,-0.159 -1.13,-0.475 -0.267,-0.317 -0.401,-0.76 -0.401,-1.328 0,-0.395 0.059,-0.728 0.178,-1 0.12,-0.272 0.295,-0.479 0.525,-0.623 0.231,-0.144 0.507,-0.216 0.828,-0.216 0.485,0 0.864,0.16 1.135,0.481 m -3.117,-1.494 c -0.424,0.272 -0.743,0.653 -0.957,1.142 -0.214,0.49 -0.321,1.06 -0.321,1.71 0,0.634 0.107,1.194 0.321,1.68 0.214,0.485 0.533,0.864 0.957,1.135 0.424,0.272 0.928,0.408 1.512,0.408 0.535,0 0.998,-0.123 1.389,-0.371 C -0.233,4.358 0.068,3.994 0.278,3.513 0.488,3.031 0.593,2.445 0.593,1.753 0.593,1.572 0.584,1.408 0.568,1.259 0.526,0.659 0.395,0.154 0.173,-0.253 -0.049,-0.66 -0.346,-0.971 -0.716,-1.185 c -0.37,-0.214 -0.803,-0.321 -1.297,-0.321 -0.584,0 -1.088,0.136 -1.512,0.407"
       style="fill:#107abd;fill-opacity:1;fill-rule:nonzero;stroke:none"
       transform="matrix(1.3333333,0,0,-1.3333333,211.2604,73.279333)"
       clip-path="url(#clipPath35)" />
    <path
       id="path36"
       d="M 0,0 V 3.42 4.828 H 1.704 V 0 -1.432 l -1.704,0 z m 0.099,6.019 c -0.173,0.161 -0.26,0.389 -0.26,0.685 0,0.28 0.087,0.498 0.26,0.655 0.172,0.156 0.427,0.234 0.765,0.234 0.329,0 0.58,-0.078 0.753,-0.234 C 1.79,7.202 1.876,6.984 1.876,6.704 1.876,6.408 1.792,6.18 1.624,6.019 1.455,5.858 1.202,5.778 0.864,5.778 c -0.338,0 -0.593,0.08 -0.765,0.241"
       style="fill:#107abd;fill-opacity:1;fill-rule:nonzero;stroke:none"
       transform="matrix(1.3333333,0,0,-1.3333333,215.60613,73.229867)"
       clip-path="url(#clipPath37)" />
    <path
       id="path38"
       d="M 0,0 -0.185,1.333 H 1.42 L 1.729,-0.086 1.432,0.111 c 0.181,0.445 0.453,0.778 0.815,1 0.362,0.222 0.798,0.334 1.309,0.334 0.798,0 1.381,-0.239 1.747,-0.716 0.366,-0.478 0.549,-1.182 0.549,-2.112 V -4.926 H 4.148 v 3.346 c 0,0.543 -0.098,0.946 -0.296,1.21 C 3.655,-0.107 3.354,0.025 2.951,0.025 2.523,0.025 2.208,-0.109 2.006,-0.376 1.805,-0.644 1.704,-1.058 1.704,-1.617 V -4.926 H 0 Z"
       style="fill:#107abd;fill-opacity:1;fill-rule:nonzero;stroke:none"
       transform="matrix(1.3333333,0,0,-1.3333333,219.9356,68.570933)"
       clip-path="url(#clipPath39)" />
    <path
       id="path40"
       d="m 0,0 c -0.613,0.531 -0.92,1.273 -0.92,2.229 h 1.815 c 0,-0.536 0.173,-0.931 0.519,-1.186 0.345,-0.255 0.81,-0.382 1.395,-0.382 0.535,0 0.942,0.09 1.222,0.271 0.28,0.181 0.42,0.457 0.42,0.827 0,0.247 -0.064,0.449 -0.192,0.605 C 4.132,2.521 3.94,2.65 3.685,2.753 3.43,2.856 3.06,2.969 2.574,3.093 2.492,3.109 2.397,3.134 2.29,3.167 1.615,3.332 1.076,3.504 0.673,3.686 0.27,3.867 -0.048,4.122 -0.278,4.451 c -0.23,0.329 -0.346,0.757 -0.346,1.284 0,0.782 0.297,1.37 0.889,1.765 0.593,0.396 1.379,0.593 2.359,0.593 0.749,0 1.372,-0.111 1.87,-0.333 C 4.992,7.538 5.358,7.231 5.593,6.84 5.828,6.449 5.945,5.999 5.945,5.488 H 4.179 C 4.179,5.85 4.039,6.134 3.759,6.34 3.479,6.546 3.08,6.649 2.562,6.649 2.134,6.649 1.796,6.581 1.549,6.445 1.302,6.309 1.179,6.081 1.179,5.76 1.179,5.529 1.241,5.344 1.364,5.204 1.488,5.064 1.668,4.947 1.907,4.852 2.146,4.757 2.488,4.657 2.932,4.55 H 2.944 2.957 C 3.014,4.542 3.068,4.529 3.117,4.513 3.858,4.332 4.44,4.152 4.864,3.976 5.288,3.798 5.625,3.55 5.877,3.229 6.128,2.908 6.253,2.471 6.253,1.92 6.253,1.081 5.949,0.417 5.34,-0.068 4.73,-0.554 3.862,-0.796 2.734,-0.796 1.524,-0.796 0.613,-0.531 0,0"
       style="fill:#107abd;fill-opacity:1;fill-rule:nonzero;stroke:none"
       transform="matrix(1.3333333,0,0,-1.3333333,234.56187,74.242267)"
       clip-path="url(#clipPath41)" />
    <path
       id="path42"
       d="M 0,0 V 3.507 L 0.234,4.865 H 1.691 V -0.037 L 1.877,-1.395 H 0.284 Z M -0.407,0.395 C -0.136,0.716 0,1.169 0,1.753 c 0,0.568 -0.136,1.011 -0.407,1.328 -0.272,0.316 -0.651,0.475 -1.136,0.475 -0.486,0 -0.862,-0.159 -1.13,-0.475 -0.267,-0.317 -0.401,-0.76 -0.401,-1.328 0,-0.395 0.059,-0.728 0.178,-1 0.121,-0.272 0.295,-0.479 0.526,-0.623 0.23,-0.144 0.506,-0.216 0.827,-0.216 0.485,0 0.864,0.16 1.136,0.481 m -3.117,-1.494 c -0.425,0.272 -0.744,0.653 -0.958,1.142 -0.214,0.49 -0.321,1.06 -0.321,1.71 0,0.634 0.107,1.194 0.321,1.68 0.214,0.485 0.533,0.864 0.958,1.135 0.423,0.272 0.927,0.408 1.511,0.408 0.535,0 0.998,-0.123 1.39,-0.371 C -0.232,4.358 0.068,3.994 0.278,3.513 0.488,3.031 0.593,2.445 0.593,1.753 0.593,1.572 0.585,1.408 0.568,1.259 0.526,0.659 0.396,0.154 0.173,-0.253 -0.049,-0.66 -0.346,-0.971 -0.716,-1.185 c -0.37,-0.214 -0.803,-0.321 -1.297,-0.321 -0.584,0 -1.088,0.136 -1.511,0.407"
       style="fill:#107abd;fill-opacity:1;fill-rule:nonzero;stroke:none"
       transform="matrix(1.3333333,0,0,-1.3333333,250.37373,73.279333)"
       clip-path="url(#clipPath43)" />
    <path
       id="path44"
       d="m 0,0 v 4.506 c 0,0.634 0.087,1.144 0.26,1.532 0.173,0.386 0.433,0.666 0.784,0.839 0.35,0.173 0.8,0.259 1.352,0.259 h 1 V 5.778 H 2.655 C 2.408,5.778 2.215,5.739 2.074,5.661 1.935,5.583 1.836,5.465 1.778,5.309 1.721,5.152 1.691,4.947 1.691,4.692 V 0 -1.506 H 0 Z M -1.357,4.494 H 3.495 V 3.013 h -4.852 z"
       style="fill:#107abd;fill-opacity:1;fill-rule:nonzero;stroke:none"
       transform="matrix(1.3333333,0,0,-1.3333333,255.724,73.130933)"
       clip-path="url(#clipPath45)" />
    <path
       id="path46"
       d="m 0,0 c -0.503,0.271 -0.881,0.648 -1.136,1.13 -0.256,0.481 -0.383,1.039 -0.383,1.673 0,0.658 0.127,1.234 0.383,1.728 C -0.881,5.025 -0.503,5.406 0,5.673 0.502,5.94 1.103,6.075 1.803,6.075 2.51,6.075 3.106,5.947 3.593,5.692 4.078,5.437 4.446,5.074 4.697,4.605 4.948,4.136 5.078,3.581 5.087,2.938 V 2.79 C 5.087,2.741 5.084,2.691 5.08,2.642 5.076,2.593 5.07,2.543 5.062,2.494 h -5.779 l 0.037,1 H 3.814 L 3.234,2.876 C 3.268,3.329 3.236,3.704 3.142,4 3.047,4.296 2.887,4.519 2.66,4.667 2.434,4.815 2.14,4.889 1.777,4.889 1.391,4.889 1.08,4.796 0.846,4.611 0.611,4.426 0.446,4.187 0.352,3.896 0.257,3.603 0.21,3.264 0.21,2.876 0.21,2.449 0.275,2.084 0.407,1.784 0.539,1.483 0.73,1.257 0.981,1.105 1.232,0.953 1.53,0.876 1.876,0.876 c 0.395,0 0.715,0.073 0.957,0.217 0.243,0.143 0.401,0.327 0.476,0.549 H 5.013 C 4.864,0.975 4.515,0.467 3.963,0.117 3.411,-0.233 2.699,-0.408 1.827,-0.408 1.111,-0.408 0.502,-0.271 0,0"
       style="fill:#107abd;fill-opacity:1;fill-rule:nonzero;stroke:none"
       transform="matrix(1.3333333,0,0,-1.3333333,263.01693,74.744133)"
       clip-path="url(#clipPath47)" />
    <path
       id="path48"
       d="M 0,0 C -0.362,0.169 -0.636,0.449 -0.821,0.84 -1.007,1.23 -1.099,1.751 -1.099,2.401 V 5.698 L -0.58,7.933 H 0.604 V 2.365 C 0.604,2.093 0.634,1.877 0.691,1.716 0.749,1.556 0.852,1.434 1,1.352 1.148,1.27 1.35,1.229 1.604,1.229 H 2.691 V -0.253 H 1.383 C 0.822,-0.253 0.362,-0.168 0,0 M -2.519,6.007 H 2.494 V 4.599 h -5.013 z"
       style="fill:#107abd;fill-opacity:1;fill-rule:nonzero;stroke:none"
       transform="matrix(1.3333333,0,0,-1.3333333,273.5364,74.802133)"
       clip-path="url(#clipPath49)" />
    <path
       id="path50"
       d="M 0,0 H 1.296 C 1.847,0 2.269,0.134 2.561,0.401 2.854,0.669 2.999,1.12 2.999,1.753 V 2.63 L 3.197,2.383 C 2.999,2.013 2.733,1.732 2.4,1.543 2.067,1.354 1.674,1.259 1.222,1.259 c -0.799,0 -1.379,0.237 -1.741,0.71 -0.362,0.473 -0.543,1.175 -0.543,2.105 V 7.383 H 0.641 V 4.235 c 0,-0.544 0.092,-0.939 0.278,-1.185 0.185,-0.247 0.476,-0.371 0.87,-0.371 0.42,0 0.727,0.13 0.92,0.389 0.193,0.26 0.29,0.652 0.29,1.179 V 7.383 H 4.703 V 2.235 C 4.703,1.329 4.555,0.611 4.259,0.08 3.962,-0.451 3.563,-0.821 3.061,-1.031 2.559,-1.241 1.966,-1.346 1.283,-1.346 H 0 Z"
       style="fill:#107abd;fill-opacity:1;fill-rule:nonzero;stroke:none"
       transform="matrix(1.3333333,0,0,-1.3333333,279.80853,76.637333)"
       clip-path="url(#clipPath51)" />
    <path
       id="path52"
       d="m 105.665,36.746 h 3.976 V 35.35 h -3.976 z m -1.285,-4.76 c -0.213,0.21 -0.32,0.479 -0.32,0.808 v 7.519 h 6.111 v -1.567 h -4.827 l 0.469,0.407 v -6.321 l -0.469,0.407 h 4.827 v -1.568 h -4.988 c -0.321,0 -0.588,0.105 -0.803,0.315"
       style="fill:#107abd;fill-opacity:1;fill-rule:nonzero;stroke:none"
       transform="matrix(1.3333333,0,0,-1.3333333,0,137.63867)"
       clip-path="url(#clipPath53)" />
    <path
       id="path54"
       d="M 0,0 -0.185,1.333 H 1.419 L 1.728,-0.086 1.432,0.111 c 0.181,0.445 0.452,0.778 0.815,1 0.362,0.222 0.798,0.334 1.308,0.334 0.799,0 1.381,-0.239 1.747,-0.716 0.366,-0.478 0.55,-1.182 0.55,-2.112 V -4.926 H 4.148 v 3.346 c 0,0.543 -0.099,0.946 -0.296,1.21 C 3.654,-0.107 3.354,0.025 2.95,0.025 2.522,0.025 2.208,-0.109 2.006,-0.376 1.804,-0.644 1.703,-1.058 1.703,-1.617 V -4.926 H 0 Z"
       style="fill:#107abd;fill-opacity:1;fill-rule:nonzero;stroke:none"
       transform="matrix(1.3333333,0,0,-1.3333333,148.65627,88.8424)"
       clip-path="url(#clipPath55)" />
    <path
       id="path56"
       d="M 0,0 C -0.16,0.086 -0.29,0.208 -0.389,0.364 -0.487,0.521 -0.59,0.73 -0.697,0.994 l -2.074,5.272 h 1.777 L 0.624,1.723 2.253,6.266 H 4.031 L 1.957,0.994 C 1.85,0.73 1.747,0.523 1.648,0.371 1.55,0.218 1.418,0.097 1.253,0.006 1.088,-0.084 0.879,-0.129 0.624,-0.129 0.369,-0.129 0.161,-0.086 0,0"
       style="fill:#107abd;fill-opacity:1;fill-rule:nonzero;stroke:none"
       transform="matrix(1.3333333,0,0,-1.3333333,160.7956,95.419333)"
       clip-path="url(#clipPath57)" />
    <path
       id="path58"
       d="M 0,0 V 3.42 4.828 H 1.704 V 0 -1.432 l -1.704,0 z m 0.099,6.019 c -0.173,0.161 -0.26,0.389 -0.26,0.685 0,0.28 0.087,0.498 0.26,0.655 0.172,0.156 0.427,0.234 0.765,0.234 0.329,0 0.58,-0.078 0.753,-0.234 C 1.79,7.202 1.876,6.984 1.876,6.704 1.876,6.408 1.792,6.18 1.624,6.019 1.455,5.858 1.202,5.778 0.864,5.778 c -0.338,0 -0.593,0.08 -0.765,0.241"
       style="fill:#107abd;fill-opacity:1;fill-rule:nonzero;stroke:none"
       transform="matrix(1.3333333,0,0,-1.3333333,167.4056,93.501333)"
       clip-path="url(#clipPath59)" />
    <path
       id="path60"
       d="M 0,0 V 3.235 L -0.025,3.704 -0.185,4.84 H 1.42 L 1.654,3.753 c 0.157,0.379 0.377,0.665 0.661,0.858 0.284,0.194 0.656,0.29 1.117,0.29 H 3.766 V 3.124 H 3.321 C 2.852,3.124 2.506,3.074 2.284,2.976 2.062,2.877 1.91,2.698 1.827,2.438 1.745,2.179 1.704,1.782 1.704,1.247 V 0 -1.42 H 0 Z"
       style="fill:#107abd;fill-opacity:1;fill-rule:nonzero;stroke:none"
       transform="matrix(1.3333333,0,0,-1.3333333,171.73507,93.5176)"
       clip-path="url(#clipPath61)" />
    <path
       id="path62"
       d="m 0,0 c 0.279,0.321 0.419,0.774 0.419,1.358 0,0.379 -0.063,0.702 -0.191,0.97 -0.127,0.267 -0.312,0.473 -0.555,0.617 -0.243,0.144 -0.537,0.216 -0.883,0.216 -0.511,0 -0.904,-0.159 -1.179,-0.475 -0.276,-0.317 -0.414,-0.76 -0.414,-1.328 0,-0.395 0.062,-0.728 0.185,-1 0.124,-0.272 0.305,-0.479 0.544,-0.623 0.238,-0.144 0.526,-0.216 0.864,-0.216 0.526,0 0.93,0.16 1.21,0.481 m -3.019,-1.487 c -0.498,0.275 -0.875,0.658 -1.129,1.148 -0.256,0.489 -0.383,1.055 -0.383,1.697 0,0.626 0.127,1.184 0.383,1.673 0.254,0.49 0.631,0.871 1.129,1.142 0.498,0.272 1.105,0.408 1.821,0.408 0.708,0 1.313,-0.136 1.815,-0.408 C 1.119,3.902 1.5,3.521 1.759,3.031 2.019,2.542 2.148,1.984 2.148,1.358 2.148,0.716 2.019,0.15 1.759,-0.339 1.5,-0.829 1.119,-1.212 0.617,-1.487 0.115,-1.763 -0.49,-1.901 -1.198,-1.901 c -0.716,0 -1.323,0.138 -1.821,0.414"
       style="fill:#107abd;fill-opacity:1;fill-rule:nonzero;stroke:none"
       transform="matrix(1.3333333,0,0,-1.3333333,183.44013,93.024133)"
       clip-path="url(#clipPath63)" />
    <path
       id="path64"
       d="M 0,0 -0.185,1.333 H 1.42 L 1.729,-0.086 1.432,0.111 c 0.181,0.445 0.453,0.778 0.815,1 0.362,0.222 0.798,0.334 1.309,0.334 0.798,0 1.381,-0.239 1.747,-0.716 0.366,-0.478 0.549,-1.182 0.549,-2.112 V -4.926 H 4.148 v 3.346 c 0,0.543 -0.098,0.946 -0.296,1.21 C 3.655,-0.107 3.354,0.025 2.951,0.025 2.523,0.025 2.208,-0.109 2.006,-0.376 1.805,-0.644 1.704,-1.058 1.704,-1.617 V -4.926 H 0 Z"
       style="fill:#107abd;fill-opacity:1;fill-rule:nonzero;stroke:none"
       transform="matrix(1.3333333,0,0,-1.3333333,187.90107,88.8424)"
       clip-path="url(#clipPath65)" />
    <path
       id="path66"
       d="M 0,0 -0.185,1.333 H 1.42 L 1.729,-0.062 1.42,0.124 C 1.601,0.56 1.86,0.889 2.198,1.111 2.535,1.333 2.934,1.445 3.396,1.445 3.93,1.445 4.36,1.319 4.686,1.068 5.011,0.817 5.239,0.444 5.371,-0.049 L 5.087,-0.037 C 5.251,0.44 5.515,0.807 5.877,1.062 6.239,1.317 6.675,1.445 7.186,1.445 7.943,1.445 8.495,1.21 8.84,0.741 9.186,0.271 9.359,-0.437 9.359,-1.383 V -4.926 H 7.655 v 3.42 c 0,0.37 -0.039,0.669 -0.117,0.895 -0.079,0.226 -0.196,0.389 -0.352,0.487 -0.157,0.1 -0.346,0.149 -0.568,0.149 -0.363,0 -0.634,-0.124 -0.815,-0.371 -0.181,-0.247 -0.272,-0.633 -0.272,-1.16 v -3.42 H 3.828 v 3.42 c 0,0.37 -0.042,0.669 -0.124,0.895 -0.082,0.226 -0.2,0.389 -0.352,0.487 C 3.2,-0.024 3.013,0.025 2.791,0.025 2.428,0.025 2.156,-0.099 1.976,-0.346 1.794,-0.593 1.704,-0.979 1.704,-1.506 v -3.42 H 0 Z"
       style="fill:#107abd;fill-opacity:1;fill-rule:nonzero;stroke:none"
       transform="matrix(1.3333333,0,0,-1.3333333,197.6628,88.8424)"
       clip-path="url(#clipPath67)" />
    <path
       id="path68"
       d="m 0,0 c -0.502,0.271 -0.881,0.648 -1.136,1.13 -0.255,0.481 -0.383,1.039 -0.383,1.673 0,0.658 0.128,1.234 0.383,1.728 C -0.881,5.025 -0.502,5.406 0,5.673 0.502,5.94 1.103,6.075 1.802,6.075 2.51,6.075 3.106,5.947 3.592,5.692 4.078,5.437 4.446,5.074 4.697,4.605 4.948,4.136 5.078,3.581 5.086,2.938 V 2.79 C 5.086,2.741 5.084,2.691 5.08,2.642 5.076,2.593 5.07,2.543 5.062,2.494 h -5.778 l 0.037,1 H 3.814 L 3.234,2.876 C 3.267,3.329 3.236,3.704 3.142,4 3.047,4.296 2.886,4.519 2.66,4.667 2.434,4.815 2.14,4.889 1.777,4.889 1.39,4.889 1.08,4.796 0.846,4.611 0.611,4.426 0.446,4.187 0.352,3.896 0.257,3.603 0.21,3.264 0.21,2.876 0.21,2.449 0.275,2.084 0.407,1.784 0.539,1.483 0.73,1.257 0.981,1.105 1.232,0.953 1.53,0.876 1.876,0.876 2.271,0.876 2.59,0.949 2.833,1.093 3.076,1.236 3.234,1.42 3.308,1.642 H 5.012 C 4.864,0.975 4.514,0.467 3.963,0.117 3.411,-0.233 2.699,-0.408 1.827,-0.408 1.111,-0.408 0.502,-0.271 0,0"
       style="fill:#107abd;fill-opacity:1;fill-rule:nonzero;stroke:none"
       transform="matrix(1.3333333,0,0,-1.3333333,213.64773,95.0156)"
       clip-path="url(#clipPath69)" />
    <path
       id="path70"
       d="M 0,0 -0.185,1.333 H 1.42 L 1.729,-0.086 1.432,0.111 c 0.181,0.445 0.453,0.778 0.815,1 0.362,0.222 0.798,0.334 1.309,0.334 0.798,0 1.381,-0.239 1.747,-0.716 0.366,-0.478 0.549,-1.182 0.549,-2.112 V -4.926 H 4.148 v 3.346 c 0,0.543 -0.098,0.946 -0.296,1.21 C 3.655,-0.107 3.354,0.025 2.951,0.025 2.523,0.025 2.208,-0.109 2.006,-0.376 1.805,-0.644 1.704,-1.058 1.704,-1.617 V -4.926 H 0 Z"
       style="fill:#107abd;fill-opacity:1;fill-rule:nonzero;stroke:none"
       transform="matrix(1.3333333,0,0,-1.3333333,221.97653,88.8424)"
       clip-path="url(#clipPath71)" />
    <path
       id="path72"
       d="M 0,0 C -0.362,0.169 -0.636,0.449 -0.821,0.84 -1.006,1.23 -1.099,1.751 -1.099,2.401 V 5.698 L -0.58,7.933 H 0.605 V 2.365 C 0.605,2.093 0.634,1.877 0.691,1.716 0.749,1.556 0.852,1.434 1,1.352 1.148,1.27 1.35,1.229 1.605,1.229 H 2.691 V -0.253 H 1.383 C 0.823,-0.253 0.362,-0.168 0,0 M -2.519,6.007 H 2.494 V 4.599 h -5.013 z"
       style="fill:#107abd;fill-opacity:1;fill-rule:nonzero;stroke:none"
       transform="matrix(1.3333333,0,0,-1.3333333,234.04293,95.0736)"
       clip-path="url(#clipPath73)" />
  </g>
</svg>
