<?xml version="1.0" encoding="UTF-8" standalone="no"?>
<!-- Created with Inkscape (http://www.inkscape.org/) -->

<svg
   version="1.1"
   id="svg1"
   width="718.10931"
   height="204.17732"
   viewBox="0 0 718.10931 204.17732"
   sodipodi:docname="logo_ISIA.svg"
   inkscape:version="1.3.2 (091e20e, 2023-11-25, custom)"
   xmlns:inkscape="http://www.inkscape.org/namespaces/inkscape"
   xmlns:sodipodi="http://sodipodi.sourceforge.net/DTD/sodipodi-0.dtd"
   xmlns="http://www.w3.org/2000/svg"
   xmlns:svg="http://www.w3.org/2000/svg">
  <defs
     id="defs1">
    <clipPath
       clipPathUnits="userSpaceOnUse"
       id="clipPath2">
      <path
         d="M 0,0 H 669 V 372 H 0 Z"
         id="path2" />
    </clipPath>
    <clipPath
       clipPathUnits="userSpaceOnUse"
       id="clipPath3">
      <path
         d="M 0,0 H 669 V 372 H 0 Z"
         transform="scale(1,-1)"
         id="path3" />
    </clipPath>
    <clipPath
       clipPathUnits="userSpaceOnUse"
       id="clipPath4">
      <path
         d="M 0,0 H 669 V 372 H 0 Z"
         transform="scale(1,-1)"
         id="path4" />
    </clipPath>
    <clipPath
       clipPathUnits="userSpaceOnUse"
       id="clipPath5">
      <path
         d="M 0,0 H 669 V 372 H 0 Z"
         transform="scale(1,-1)"
         id="path5" />
    </clipPath>
    <clipPath
       clipPathUnits="userSpaceOnUse"
       id="clipPath6">
      <path
         d="M 0,0 H 669 V 372 H 0 Z"
         id="path6" />
    </clipPath>
    <clipPath
       clipPathUnits="userSpaceOnUse"
       id="clipPath7">
      <path
         d="M 0,0 H 669 V 372 H 0 Z"
         id="path7" />
    </clipPath>
    <clipPath
       clipPathUnits="userSpaceOnUse"
       id="clipPath8">
      <path
         d="M 0,0 H 669 V 372 H 0 Z"
         id="path8" />
    </clipPath>
    <clipPath
       clipPathUnits="userSpaceOnUse"
       id="clipPath9">
      <path
         d="M 0,0 H 669 V 372 H 0 Z"
         id="path9" />
    </clipPath>
    <clipPath
       clipPathUnits="userSpaceOnUse"
       id="clipPath10">
      <path
         d="M 0,0 H 669 V 372 H 0 Z"
         id="path10" />
    </clipPath>
    <clipPath
       clipPathUnits="userSpaceOnUse"
       id="clipPath11">
      <path
         d="M 0,0 H 669 V 372 H 0 Z"
         id="path11" />
    </clipPath>
    <clipPath
       clipPathUnits="userSpaceOnUse"
       id="clipPath12">
      <path
         d="M 0,0 H 669 V 372 H 0 Z"
         id="path12" />
    </clipPath>
    <clipPath
       clipPathUnits="userSpaceOnUse"
       id="clipPath13">
      <path
         d="M 0,0 H 669 V 372 H 0 Z"
         id="path13" />
    </clipPath>
    <clipPath
       clipPathUnits="userSpaceOnUse"
       id="clipPath14">
      <path
         d="M 0,0 H 669 V 372 H 0 Z"
         id="path14" />
    </clipPath>
    <clipPath
       clipPathUnits="userSpaceOnUse"
       id="clipPath15">
      <path
         d="M 0,0 H 669 V 372 H 0 Z"
         id="path15" />
    </clipPath>
    <clipPath
       clipPathUnits="userSpaceOnUse"
       id="clipPath16">
      <path
         d="M 0,0 H 669 V 372 H 0 Z"
         id="path16" />
    </clipPath>
    <clipPath
       clipPathUnits="userSpaceOnUse"
       id="clipPath17">
      <path
         d="M 0,0 H 669 V 372 H 0 Z"
         id="path17" />
    </clipPath>
    <clipPath
       clipPathUnits="userSpaceOnUse"
       id="clipPath18">
      <path
         d="M 0,0 H 669 V 372 H 0 Z"
         id="path18" />
    </clipPath>
    <clipPath
       clipPathUnits="userSpaceOnUse"
       id="clipPath19">
      <path
         d="M 0,0 H 669 V 372 H 0 Z"
         id="path19" />
    </clipPath>
    <clipPath
       clipPathUnits="userSpaceOnUse"
       id="clipPath20">
      <path
         d="M 0,0 H 669 V 372 H 0 Z"
         id="path20" />
    </clipPath>
    <clipPath
       clipPathUnits="userSpaceOnUse"
       id="clipPath21">
      <path
         d="M 0,0 H 669 V 372 H 0 Z"
         id="path21" />
    </clipPath>
    <clipPath
       clipPathUnits="userSpaceOnUse"
       id="clipPath22">
      <path
         d="M 0,0 H 669 V 372 H 0 Z"
         id="path22" />
    </clipPath>
    <clipPath
       clipPathUnits="userSpaceOnUse"
       id="clipPath23">
      <path
         d="M 0,0 H 669 V 372 H 0 Z"
         id="path23" />
    </clipPath>
    <clipPath
       clipPathUnits="userSpaceOnUse"
       id="clipPath24">
      <path
         d="M 0,0 H 669 V 372 H 0 Z"
         id="path24" />
    </clipPath>
    <clipPath
       clipPathUnits="userSpaceOnUse"
       id="clipPath25">
      <path
         d="M 0,0 H 669 V 372 H 0 Z"
         id="path25" />
    </clipPath>
    <clipPath
       clipPathUnits="userSpaceOnUse"
       id="clipPath26">
      <path
         d="M 0,0 H 669 V 372 H 0 Z"
         id="path26" />
    </clipPath>
    <clipPath
       clipPathUnits="userSpaceOnUse"
       id="clipPath27">
      <path
         d="M 0,0 H 669 V 372 H 0 Z"
         id="path27" />
    </clipPath>
    <clipPath
       clipPathUnits="userSpaceOnUse"
       id="clipPath28">
      <path
         d="M 0,0 H 669 V 372 H 0 Z"
         id="path28" />
    </clipPath>
    <clipPath
       clipPathUnits="userSpaceOnUse"
       id="clipPath29">
      <path
         d="M 0,0 H 669 V 372 H 0 Z"
         id="path29" />
    </clipPath>
    <clipPath
       clipPathUnits="userSpaceOnUse"
       id="clipPath30">
      <path
         d="M 0,0 H 669 V 372 H 0 Z"
         id="path30" />
    </clipPath>
    <clipPath
       clipPathUnits="userSpaceOnUse"
       id="clipPath31">
      <path
         d="M 0,0 H 669 V 372 H 0 Z"
         id="path31" />
    </clipPath>
    <clipPath
       clipPathUnits="userSpaceOnUse"
       id="clipPath32">
      <path
         d="M 0,0 H 669 V 372 H 0 Z"
         id="path32" />
    </clipPath>
    <clipPath
       clipPathUnits="userSpaceOnUse"
       id="clipPath33">
      <path
         d="M 0,0 H 669 V 372 H 0 Z"
         id="path33" />
    </clipPath>
    <clipPath
       clipPathUnits="userSpaceOnUse"
       id="clipPath34">
      <path
         d="M 0,0 H 669 V 372 H 0 Z"
         id="path34" />
    </clipPath>
    <clipPath
       clipPathUnits="userSpaceOnUse"
       id="clipPath35">
      <path
         d="M 0,0 H 669 V 372 H 0 Z"
         id="path35" />
    </clipPath>
    <clipPath
       clipPathUnits="userSpaceOnUse"
       id="clipPath36">
      <path
         d="M 0,0 H 669 V 372 H 0 Z"
         id="path36" />
    </clipPath>
    <clipPath
       clipPathUnits="userSpaceOnUse"
       id="clipPath37">
      <path
         d="M 0,0 H 669 V 372 H 0 Z"
         id="path37" />
    </clipPath>
    <clipPath
       clipPathUnits="userSpaceOnUse"
       id="clipPath38">
      <path
         d="M 0,0 H 669 V 372 H 0 Z"
         id="path38" />
    </clipPath>
    <clipPath
       clipPathUnits="userSpaceOnUse"
       id="clipPath39">
      <path
         d="M 0,0 H 669 V 372 H 0 Z"
         id="path39" />
    </clipPath>
    <clipPath
       clipPathUnits="userSpaceOnUse"
       id="clipPath40">
      <path
         d="M 0,0 H 669 V 372 H 0 Z"
         id="path40" />
    </clipPath>
    <clipPath
       clipPathUnits="userSpaceOnUse"
       id="clipPath41">
      <path
         d="M 0,0 H 669 V 372 H 0 Z"
         id="path41" />
    </clipPath>
    <clipPath
       clipPathUnits="userSpaceOnUse"
       id="clipPath42">
      <path
         d="M 0,0 H 669 V 372 H 0 Z"
         id="path42" />
    </clipPath>
    <clipPath
       clipPathUnits="userSpaceOnUse"
       id="clipPath43">
      <path
         d="M 0,0 H 669 V 372 H 0 Z"
         id="path43" />
    </clipPath>
    <clipPath
       clipPathUnits="userSpaceOnUse"
       id="clipPath44">
      <path
         d="M 0,0 H 669 V 372 H 0 Z"
         id="path44" />
    </clipPath>
    <clipPath
       clipPathUnits="userSpaceOnUse"
       id="clipPath45">
      <path
         d="M 0,0 H 669 V 372 H 0 Z"
         id="path45" />
    </clipPath>
    <clipPath
       clipPathUnits="userSpaceOnUse"
       id="clipPath46">
      <path
         d="M 0,0 H 669 V 372 H 0 Z"
         id="path46" />
    </clipPath>
    <clipPath
       clipPathUnits="userSpaceOnUse"
       id="clipPath47">
      <path
         d="M 0,0 H 669 V 372 H 0 Z"
         id="path47" />
    </clipPath>
    <clipPath
       clipPathUnits="userSpaceOnUse"
       id="clipPath48">
      <path
         d="M 0,0 H 669 V 372 H 0 Z"
         id="path48" />
    </clipPath>
    <clipPath
       clipPathUnits="userSpaceOnUse"
       id="clipPath49">
      <path
         d="M 0,0 H 669 V 372 H 0 Z"
         id="path49" />
    </clipPath>
    <clipPath
       clipPathUnits="userSpaceOnUse"
       id="clipPath50">
      <path
         d="M 0,0 H 669 V 372 H 0 Z"
         id="path50" />
    </clipPath>
    <clipPath
       clipPathUnits="userSpaceOnUse"
       id="clipPath51">
      <path
         d="M 0,0 H 669 V 372 H 0 Z"
         id="path51" />
    </clipPath>
    <clipPath
       clipPathUnits="userSpaceOnUse"
       id="clipPath52">
      <path
         d="M 0,0 H 669 V 372 H 0 Z"
         id="path52" />
    </clipPath>
    <clipPath
       clipPathUnits="userSpaceOnUse"
       id="clipPath104">
      <path
         d="m 36.852,36.852 h 596 v 298 h -596 z"
         transform="scale(1.3333333)"
         id="path104" />
    </clipPath>
    <clipPath
       clipPathUnits="userSpaceOnUse"
       id="clipPath104-2">
      <path
         d="m 36.852,36.852 h 596 v 298 h -596 z"
         transform="scale(1.3333333)"
         id="path104-2" />
    </clipPath>
    <clipPath
       clipPathUnits="userSpaceOnUse"
       id="clipPath2-3">
      <path
         d="M 0,0 H 669 V 372 H 0 Z"
         id="path2-1" />
    </clipPath>
    <clipPath
       clipPathUnits="userSpaceOnUse"
       id="clipPath3-3">
      <path
         d="M 0,0 H 669 V 372 H 0 Z"
         transform="scale(1,-1)"
         id="path3-3" />
    </clipPath>
    <clipPath
       clipPathUnits="userSpaceOnUse"
       id="clipPath4-0">
      <path
         d="M 0,0 H 669 V 372 H 0 Z"
         transform="scale(1,-1)"
         id="path4-0" />
    </clipPath>
    <clipPath
       clipPathUnits="userSpaceOnUse"
       id="clipPath5-8">
      <path
         d="M 0,0 H 669 V 372 H 0 Z"
         transform="scale(1,-1)"
         id="path5-4" />
    </clipPath>
    <clipPath
       clipPathUnits="userSpaceOnUse"
       id="clipPath6-9">
      <path
         d="M 0,0 H 669 V 372 H 0 Z"
         id="path6-3" />
    </clipPath>
    <clipPath
       clipPathUnits="userSpaceOnUse"
       id="clipPath7-2">
      <path
         d="M 0,0 H 669 V 372 H 0 Z"
         id="path7-1" />
    </clipPath>
    <clipPath
       clipPathUnits="userSpaceOnUse"
       id="clipPath8-7">
      <path
         d="M 0,0 H 669 V 372 H 0 Z"
         id="path8-2" />
    </clipPath>
    <clipPath
       clipPathUnits="userSpaceOnUse"
       id="clipPath9-9">
      <path
         d="M 0,0 H 669 V 372 H 0 Z"
         id="path9-3" />
    </clipPath>
    <clipPath
       clipPathUnits="userSpaceOnUse"
       id="clipPath10-5">
      <path
         d="M 0,0 H 669 V 372 H 0 Z"
         id="path10-8" />
    </clipPath>
    <clipPath
       clipPathUnits="userSpaceOnUse"
       id="clipPath11-6">
      <path
         d="M 0,0 H 669 V 372 H 0 Z"
         id="path11-5" />
    </clipPath>
    <clipPath
       clipPathUnits="userSpaceOnUse"
       id="clipPath12-6">
      <path
         d="M 0,0 H 669 V 372 H 0 Z"
         id="path12-0" />
    </clipPath>
    <clipPath
       clipPathUnits="userSpaceOnUse"
       id="clipPath13-5">
      <path
         d="M 0,0 H 669 V 372 H 0 Z"
         id="path13-9" />
    </clipPath>
    <clipPath
       clipPathUnits="userSpaceOnUse"
       id="clipPath14-9">
      <path
         d="M 0,0 H 669 V 372 H 0 Z"
         id="path14-3" />
    </clipPath>
    <clipPath
       clipPathUnits="userSpaceOnUse"
       id="clipPath15-6">
      <path
         d="M 0,0 H 669 V 372 H 0 Z"
         id="path15-0" />
    </clipPath>
    <clipPath
       clipPathUnits="userSpaceOnUse"
       id="clipPath16-1">
      <path
         d="M 0,0 H 669 V 372 H 0 Z"
         id="path16-4" />
    </clipPath>
    <clipPath
       clipPathUnits="userSpaceOnUse"
       id="clipPath17-4">
      <path
         d="M 0,0 H 669 V 372 H 0 Z"
         id="path17-1" />
    </clipPath>
    <clipPath
       clipPathUnits="userSpaceOnUse"
       id="clipPath18-1">
      <path
         d="M 0,0 H 669 V 372 H 0 Z"
         id="path18-1" />
    </clipPath>
    <clipPath
       clipPathUnits="userSpaceOnUse"
       id="clipPath19-4">
      <path
         d="M 0,0 H 669 V 372 H 0 Z"
         id="path19-1" />
    </clipPath>
    <clipPath
       clipPathUnits="userSpaceOnUse"
       id="clipPath20-2">
      <path
         d="M 0,0 H 669 V 372 H 0 Z"
         id="path20-3" />
    </clipPath>
    <clipPath
       clipPathUnits="userSpaceOnUse"
       id="clipPath21-9">
      <path
         d="M 0,0 H 669 V 372 H 0 Z"
         id="path21-1" />
    </clipPath>
    <clipPath
       clipPathUnits="userSpaceOnUse"
       id="clipPath22-4">
      <path
         d="M 0,0 H 669 V 372 H 0 Z"
         id="path22-6" />
    </clipPath>
    <clipPath
       clipPathUnits="userSpaceOnUse"
       id="clipPath23-6">
      <path
         d="M 0,0 H 669 V 372 H 0 Z"
         id="path23-0" />
    </clipPath>
    <clipPath
       clipPathUnits="userSpaceOnUse"
       id="clipPath24-6">
      <path
         d="M 0,0 H 669 V 372 H 0 Z"
         id="path24-4" />
    </clipPath>
    <clipPath
       clipPathUnits="userSpaceOnUse"
       id="clipPath25-3">
      <path
         d="M 0,0 H 669 V 372 H 0 Z"
         id="path25-8" />
    </clipPath>
    <clipPath
       clipPathUnits="userSpaceOnUse"
       id="clipPath26-4">
      <path
         d="M 0,0 H 669 V 372 H 0 Z"
         id="path26-5" />
    </clipPath>
    <clipPath
       clipPathUnits="userSpaceOnUse"
       id="clipPath27-6">
      <path
         d="M 0,0 H 669 V 372 H 0 Z"
         id="path27-8" />
    </clipPath>
    <clipPath
       clipPathUnits="userSpaceOnUse"
       id="clipPath28-6">
      <path
         d="M 0,0 H 669 V 372 H 0 Z"
         id="path28-0" />
    </clipPath>
    <clipPath
       clipPathUnits="userSpaceOnUse"
       id="clipPath29-9">
      <path
         d="M 0,0 H 669 V 372 H 0 Z"
         id="path29-9" />
    </clipPath>
    <clipPath
       clipPathUnits="userSpaceOnUse"
       id="clipPath30-7">
      <path
         d="M 0,0 H 669 V 372 H 0 Z"
         id="path30-8" />
    </clipPath>
    <clipPath
       clipPathUnits="userSpaceOnUse"
       id="clipPath31-3">
      <path
         d="M 0,0 H 669 V 372 H 0 Z"
         id="path31-6" />
    </clipPath>
    <clipPath
       clipPathUnits="userSpaceOnUse"
       id="clipPath32-1">
      <path
         d="M 0,0 H 669 V 372 H 0 Z"
         id="path32-0" />
    </clipPath>
    <clipPath
       clipPathUnits="userSpaceOnUse"
       id="clipPath33-9">
      <path
         d="M 0,0 H 669 V 372 H 0 Z"
         id="path33-6" />
    </clipPath>
    <clipPath
       clipPathUnits="userSpaceOnUse"
       id="clipPath34-2">
      <path
         d="M 0,0 H 669 V 372 H 0 Z"
         id="path34-3" />
    </clipPath>
    <clipPath
       clipPathUnits="userSpaceOnUse"
       id="clipPath35-8">
      <path
         d="M 0,0 H 669 V 372 H 0 Z"
         id="path35-9" />
    </clipPath>
    <clipPath
       clipPathUnits="userSpaceOnUse"
       id="clipPath36-8">
      <path
         d="M 0,0 H 669 V 372 H 0 Z"
         id="path36-8" />
    </clipPath>
    <clipPath
       clipPathUnits="userSpaceOnUse"
       id="clipPath37-6">
      <path
         d="M 0,0 H 669 V 372 H 0 Z"
         id="path37-5" />
    </clipPath>
    <clipPath
       clipPathUnits="userSpaceOnUse"
       id="clipPath38-6">
      <path
         d="M 0,0 H 669 V 372 H 0 Z"
         id="path38-1" />
    </clipPath>
    <clipPath
       clipPathUnits="userSpaceOnUse"
       id="clipPath39-7">
      <path
         d="M 0,0 H 669 V 372 H 0 Z"
         id="path39-4" />
    </clipPath>
    <clipPath
       clipPathUnits="userSpaceOnUse"
       id="clipPath40-7">
      <path
         d="M 0,0 H 669 V 372 H 0 Z"
         id="path40-7" />
    </clipPath>
    <clipPath
       clipPathUnits="userSpaceOnUse"
       id="clipPath41-5">
      <path
         d="M 0,0 H 669 V 372 H 0 Z"
         id="path41-2" />
    </clipPath>
    <clipPath
       clipPathUnits="userSpaceOnUse"
       id="clipPath42-4">
      <path
         d="M 0,0 H 669 V 372 H 0 Z"
         id="path42-3" />
    </clipPath>
    <clipPath
       clipPathUnits="userSpaceOnUse"
       id="clipPath43-0">
      <path
         d="M 0,0 H 669 V 372 H 0 Z"
         id="path43-5" />
    </clipPath>
    <clipPath
       clipPathUnits="userSpaceOnUse"
       id="clipPath44-1">
      <path
         d="M 0,0 H 669 V 372 H 0 Z"
         id="path44-4" />
    </clipPath>
    <clipPath
       clipPathUnits="userSpaceOnUse"
       id="clipPath45-3">
      <path
         d="M 0,0 H 669 V 372 H 0 Z"
         id="path45-2" />
    </clipPath>
    <clipPath
       clipPathUnits="userSpaceOnUse"
       id="clipPath46-9">
      <path
         d="M 0,0 H 669 V 372 H 0 Z"
         id="path46-6" />
    </clipPath>
    <clipPath
       clipPathUnits="userSpaceOnUse"
       id="clipPath47-6">
      <path
         d="M 0,0 H 669 V 372 H 0 Z"
         id="path47-3" />
    </clipPath>
    <clipPath
       clipPathUnits="userSpaceOnUse"
       id="clipPath48-6">
      <path
         d="M 0,0 H 669 V 372 H 0 Z"
         id="path48-3" />
    </clipPath>
    <clipPath
       clipPathUnits="userSpaceOnUse"
       id="clipPath49-1">
      <path
         d="M 0,0 H 669 V 372 H 0 Z"
         id="path49-2" />
    </clipPath>
    <clipPath
       clipPathUnits="userSpaceOnUse"
       id="clipPath50-6">
      <path
         d="M 0,0 H 669 V 372 H 0 Z"
         id="path50-1" />
    </clipPath>
    <clipPath
       clipPathUnits="userSpaceOnUse"
       id="clipPath51-1">
      <path
         d="M 0,0 H 669 V 372 H 0 Z"
         id="path51-7" />
    </clipPath>
    <clipPath
       clipPathUnits="userSpaceOnUse"
       id="clipPath52-9">
      <path
         d="M 0,0 H 669 V 372 H 0 Z"
         id="path52-3" />
    </clipPath>
  </defs>
  <sodipodi:namedview
     id="namedview1"
     pagecolor="#505050"
     bordercolor="#eeeeee"
     borderopacity="1"
     inkscape:showpageshadow="0"
     inkscape:pageopacity="0"
     inkscape:pagecheckerboard="0"
     inkscape:deskcolor="#d1d1d1"
     inkscape:zoom="0.44620412"
     inkscape:cx="-33.616901"
     inkscape:cy="-30.255211"
     inkscape:window-width="1920"
     inkscape:window-height="991"
     inkscape:window-x="-9"
     inkscape:window-y="-9"
     inkscape:window-maximized="1"
     inkscape:current-layer="g1">
    <inkscape:page
       x="0"
       y="0"
       inkscape:label="1"
       id="page1"
       width="718.10931"
       height="204.17732"
       margin="0"
       bleed="0" />
  </sodipodi:namedview>
  <g
     id="g1"
     inkscape:groupmode="layer"
     inkscape:label="1"
     transform="translate(-479,-279)">
    <path
       id="path1"
       d="m 483.28666,285.86 h 17.156 v 146.45866 h -17.156 z"
       style="fill:#1d1d1b;fill-opacity:1;fill-rule:nonzero;stroke:#1d1d1b;stroke-width:5.5284;stroke-linecap:butt;stroke-linejoin:miter;stroke-miterlimit:10;stroke-dasharray:none;stroke-opacity:1" />
    <g
       id="g103"
       clip-path="url(#clipPath104-2)"
       transform="translate(392.068,133.52667)">
      <path
         d="m 105.027,219.652 v -15.168 c 1.735,1.532 3.817,2.911 6.243,4.137 2.425,1.227 4.98,2.258 7.66,3.102 2.679,0.843 5.375,1.496 8.082,1.953 2.703,0.461 5.207,0.691 7.508,0.691 7.914,0 13.824,-1.469 17.73,-4.406 3.906,-2.934 5.859,-7.16 5.859,-12.676 0,-2.961 -0.648,-5.543 -1.953,-7.738 -1.301,-2.195 -3.101,-4.199 -5.398,-6.012 -2.301,-1.812 -5.02,-3.551 -8.16,-5.207 -3.141,-1.66 -6.524,-3.41 -10.149,-5.25 -3.828,-1.941 -7.406,-3.906 -10.722,-5.898 -3.321,-1.992 -6.207,-4.188 -8.657,-6.586 -2.453,-2.403 -4.379,-5.121 -5.785,-8.16 -1.402,-3.036 -2.105,-6.598 -2.105,-10.684 0,-5.004 1.097,-9.359 3.293,-13.062 2.195,-3.7 5.082,-6.75 8.656,-9.153 3.574,-2.398 7.648,-4.187 12.219,-5.363 4.57,-1.172 9.23,-1.762 13.98,-1.762 10.824,0 18.715,1.305 23.668,3.91 v 14.477 c -6.484,-4.496 -14.808,-6.742 -24.973,-6.742 -2.808,0 -5.617,0.293 -8.425,0.883 -2.809,0.585 -5.313,1.542 -7.508,2.871 -2.195,1.328 -3.981,3.039 -5.36,5.132 -1.378,2.094 -2.07,4.649 -2.07,7.661 0,2.808 0.524,5.234 1.57,7.277 1.047,2.043 2.594,3.906 4.637,5.59 2.039,1.683 4.531,3.32 7.469,4.902 2.934,1.582 6.316,3.32 10.148,5.211 3.93,1.941 7.661,3.98 11.184,6.125 3.523,2.145 6.613,4.52 9.27,7.125 2.652,2.606 4.757,5.492 6.316,8.656 1.558,3.168 2.34,6.793 2.34,10.875 0,5.414 -1.063,10 -3.18,13.75 -2.121,3.754 -4.98,6.805 -8.582,9.157 -3.598,2.347 -7.75,4.046 -12.445,5.093 -4.699,1.047 -9.653,1.571 -14.86,1.571 -1.738,0 -3.882,-0.141 -6.437,-0.422 -2.551,-0.282 -5.156,-0.692 -7.813,-1.227 -2.656,-0.535 -5.168,-1.199 -7.543,-1.992 -2.375,-0.789 -4.277,-1.672 -5.707,-2.641"
         style="fill:#1d1d1b;fill-opacity:1;fill-rule:nonzero;stroke:none"
         transform="scale(1.3333333)"
         clip-path="url(#clipPath2-3)"
         id="path53" />
      <path
         d="m 105.027,-219.652 v 15.168 c 1.735,-1.532 3.817,-2.911 6.243,-4.137 2.425,-1.227 4.98,-2.258 7.66,-3.102 2.679,-0.843 5.375,-1.496 8.082,-1.953 2.703,-0.461 5.207,-0.691 7.508,-0.691 7.914,0 13.824,1.469 17.73,4.406 3.906,2.934 5.859,7.16 5.859,12.676 0,2.961 -0.648,5.543 -1.953,7.738 -1.301,2.195 -3.101,4.199 -5.398,6.012 -2.301,1.812 -5.02,3.551 -8.16,5.207 -3.141,1.66 -6.524,3.41 -10.149,5.25 -3.828,1.941 -7.406,3.906 -10.722,5.898 -3.321,1.992 -6.207,4.188 -8.657,6.586 -2.453,2.403 -4.379,5.121 -5.785,8.16 -1.402,3.036 -2.105,6.598 -2.105,10.684 0,5.004 1.097,9.359 3.293,13.062 2.195,3.7 5.082,6.75 8.656,9.153 3.574,2.398 7.648,4.187 12.219,5.363 4.57,1.172 9.23,1.762 13.98,1.762 10.824,0 18.715,-1.305 23.668,-3.91 v -14.477 c -6.484,4.496 -14.808,6.742 -24.973,6.742 -2.808,0 -5.617,-0.293 -8.425,-0.883 -2.809,-0.585 -5.313,-1.542 -7.508,-2.871 -2.195,-1.328 -3.981,-3.039 -5.36,-5.132 -1.378,-2.094 -2.07,-4.649 -2.07,-7.661 0,-2.808 0.524,-5.234 1.57,-7.277 1.047,-2.043 2.594,-3.906 4.637,-5.59 2.039,-1.683 4.531,-3.32 7.469,-4.902 2.934,-1.582 6.316,-3.32 10.148,-5.211 3.93,-1.941 7.661,-3.98 11.184,-6.125 3.523,-2.145 6.613,-4.52 9.27,-7.125 2.652,-2.606 4.757,-5.492 6.316,-8.656 1.558,-3.168 2.34,-6.793 2.34,-10.875 0,-5.414 -1.063,-10 -3.18,-13.75 -2.121,-3.754 -4.98,-6.805 -8.582,-9.157 -3.598,-2.347 -7.75,-4.046 -12.445,-5.093 -4.699,-1.047 -9.653,-1.571 -14.86,-1.571 -1.738,0 -3.882,0.141 -6.437,0.422 -2.551,0.282 -5.156,0.692 -7.813,1.227 -2.656,0.535 -5.168,1.199 -7.543,1.992 -2.375,0.789 -4.277,1.672 -5.707,2.641 z"
         style="fill:none;stroke:#1d1d1b;stroke-width:4.1463;stroke-linecap:butt;stroke-linejoin:miter;stroke-miterlimit:10;stroke-dasharray:none;stroke-opacity:1"
         transform="scale(1.3333333,-1.3333333)"
         clip-path="url(#clipPath3-3)"
         id="path54" />
      <path
         d="m 193.5,-114.25 h 12.867 V -224.094 H 193.5 Z"
         style="fill:#e10142;fill-opacity:1;fill-rule:nonzero;stroke:#e10142;stroke-width:4.1463;stroke-linecap:butt;stroke-linejoin:miter;stroke-miterlimit:10;stroke-dasharray:none;stroke-opacity:1"
         transform="scale(1.3333333,-1.3333333)"
         clip-path="url(#clipPath4-0)"
         id="path55" />
      <path
         d="m 290.168,-181.734 -17.234,46.8 c -0.563,1.536 -1.125,3.985 -1.684,7.356 h -0.309 c -0.511,-3.117 -1.097,-5.567 -1.761,-7.356 l -17.082,-46.8 z m 30.105,-42.36 h -14.25 l -11.64,30.793 h -46.574 l -10.954,-30.793 h -14.324 l 42.129,109.844 h 13.328 z"
         style="fill:#e10142;fill-opacity:1;fill-rule:nonzero;stroke:#e10142;stroke-width:4.1463;stroke-linecap:butt;stroke-linejoin:miter;stroke-miterlimit:10;stroke-dasharray:none;stroke-opacity:1"
         transform="scale(1.3333333,-1.3333333)"
         clip-path="url(#clipPath5-8)"
         id="path56" />
      <path
         d="m 438.199,215.781 c -1.203,0.836 -2.64,1.309 -4.312,1.41 l -26.985,2.039 -18.668,1.571 -9.726,0.785 c -0.84,0 -1.598,-0.524 -2.274,-1.57 -0.683,-1.043 -1.019,-2.039 -1.019,-2.981 0,-0.73 0.234,-1.281 0.703,-1.648 0.473,-0.364 0.992,-0.625 1.57,-0.785 0.574,-0.157 0.965,-0.286 1.176,-0.391 0.102,-5.649 0.156,-18.824 0.156,-39.531 0,-15.27 -0.601,-27.114 -1.804,-35.535 -1.204,-8.418 -1.801,-12.942 -1.801,-13.571 0,-1.461 0.547,-2.613 1.644,-3.449 1.098,-0.836 2.223,-1.254 3.375,-1.254 0.731,0 1.305,0.289 1.723,0.859 0.418,0.579 0.731,1.493 0.941,2.747 1.047,3.558 1.86,10.093 2.434,19.609 0.574,9.519 0.863,19.453 0.863,29.809 0,8.785 -0.054,16.941 -0.156,24.472 -0.105,7.528 -0.16,12.602 -0.16,15.215 1.359,-0.102 3.976,-0.285 7.844,-0.547 3.871,-0.262 7.843,-0.551 11.925,-0.863 6.063,-0.731 12.914,-1.828 20.551,-3.293 6.168,-1.152 9.883,-1.727 11.137,-1.727 1.148,0 1.883,0.524 2.195,1.567 0.317,1.047 0.473,2.304 0.473,3.765 0,1.364 -0.606,2.461 -1.805,3.297"
         style="fill:#1d1d1b;fill-opacity:1;fill-rule:nonzero;stroke:none"
         transform="scale(1.3333333)"
         clip-path="url(#clipPath6-9)"
         id="path57" />
      <path
         d="m 479.379,210.602 c 5.226,-4.18 9.906,-9.176 14.039,-14.981 4.133,-5.805 8.707,-12.941 13.727,-21.414 1.257,-3.137 1.882,-6.535 1.882,-10.195 0,-2.2 -0.652,-4.106 -1.961,-5.727 -1.308,-1.621 -3.058,-2.433 -5.254,-2.433 -2.617,0 -5.96,1.781 -10.039,5.336 -4.707,3.972 -9.675,9.281 -14.906,15.921 -5.23,6.645 -9.566,13.203 -13.019,19.688 -3.453,6.484 -5.176,11.609 -5.176,15.375 0,3.137 1.461,4.707 4.39,4.707 5.649,0 11.086,-2.094 16.317,-6.277 m 40.316,5.726 c 0.731,0.785 1.098,1.442 1.098,1.961 0,1.254 -0.523,2.695 -1.566,4.316 -1.047,1.618 -2.094,2.43 -3.141,2.43 -1.777,0 -3.137,-1.097 -4.078,-3.293 -0.942,-2.199 -1.41,-4.758 -1.41,-7.687 0,-2.512 0.156,-10.043 0.468,-22.59 l 0.161,-5.961 c 0,-2.406 -0.629,-4.133 -1.883,-5.18 -4.707,7.949 -9.102,14.852 -13.18,20.711 -4.078,5.856 -9.254,11.371 -15.531,16.551 -6.274,5.176 -12.863,7.762 -19.766,7.762 -3.347,0 -5.937,-1.047 -7.765,-3.137 -1.832,-2.09 -2.747,-4.809 -2.747,-8.156 0,-4.184 1.883,-9.91 5.649,-17.18 3.766,-7.266 8.574,-14.641 14.434,-22.117 5.855,-7.477 11.71,-13.621 17.57,-18.434 3.867,-3.136 6.953,-5.258 9.254,-6.355 2.3,-1.098 4.34,-1.645 6.117,-1.645 1.672,0 3.398,0.524 5.18,1.567 1.777,1.047 3.293,2.511 4.546,4.394 1.258,1.883 1.883,4.027 1.883,6.43 0,3.246 -0.886,6.328 -2.664,9.258 l 2.664,-0.785 c 1.153,0 1.828,1.41 2.039,4.234 0.106,1.676 0.239,5.074 0.395,10.199 0.156,5.125 0.285,9.359 0.39,12.707 0.106,3.449 0.211,6.797 0.313,10.039 0.105,3.242 0.211,5.805 0.316,7.688 0.102,0.73 0.524,1.488 1.254,2.273"
         style="fill:#1d1d1b;fill-opacity:1;fill-rule:nonzero;stroke:none"
         transform="scale(1.3333333)"
         clip-path="url(#clipPath7-2)"
         id="path58" />
      <path
         d="m 593.113,192.484 c -7.113,10.512 -16.16,19.793 -27.14,27.844 -4.602,3.453 -8.055,5.18 -10.356,5.18 -1.148,0 -2.09,-0.422 -2.82,-1.258 -0.735,-0.836 -1.098,-1.828 -1.098,-2.98 0,-1.149 0.492,-2.297 1.489,-3.45 0.992,-1.152 2.484,-2.144 4.472,-2.98 7.215,-3.137 13.805,-7.66 19.766,-13.57 5.961,-5.911 10.613,-12.161 13.961,-18.747 3.347,-6.589 5.019,-12.394 5.019,-17.414 0,-1.988 -0.445,-3.476 -1.332,-4.472 -0.89,-0.992 -2.328,-1.489 -4.316,-1.489 -4.391,0 -8.891,1.778 -13.488,5.332 -4.606,3.559 -8.891,8.211 -12.868,13.961 -3.031,4.395 -5.961,9.676 -8.785,15.848 -2.82,6.172 -4.965,12.707 -6.429,19.609 -0.84,3.661 -2.618,5.489 -5.336,5.489 -0.731,0 -1.516,-0.653 -2.352,-1.961 -0.84,-1.305 -1.254,-2.481 -1.254,-3.528 0,-12.132 -0.422,-29.964 -1.254,-53.496 -0.84,-23.531 -1.414,-36.968 -1.726,-40.316 0,-0.629 -0.055,-1.231 -0.157,-1.805 -0.105,-0.574 -0.211,-1.121 -0.316,-1.648 -0.105,-0.625 -0.211,-1.278 -0.313,-1.961 -0.105,-0.676 -0.156,-1.332 -0.156,-1.961 0,-2.402 1.098,-3.606 3.293,-3.606 1.778,0 3.215,1.125 4.317,3.372 1.097,2.25 1.644,4.785 1.644,7.609 v 8.312 c 0,24.895 0.367,44.032 1.098,57.418 0.418,6.59 0.836,10.25 1.258,10.981 1.148,-3.449 2.953,-7.32 5.41,-11.609 2.457,-4.286 5.047,-8.258 7.765,-11.922 4.914,-6.692 10.25,-12.051 16,-16.078 5.754,-4.028 10.985,-6.04 15.692,-6.04 3.238,0 5.883,1.047 7.922,3.137 2.039,2.094 3.058,5.125 3.058,9.098 0,8.89 -3.558,18.59 -10.668,29.101"
         style="fill:#1d1d1b;fill-opacity:1;fill-rule:nonzero;stroke:none"
         transform="scale(1.3333333)"
         clip-path="url(#clipPath8-7)"
         id="path59" />
      <path
         d="m 65.199,243.07 h 2.09 v 16.211 h -2.09 z"
         style="fill:#878787;fill-opacity:1;fill-rule:nonzero;stroke:none"
         transform="scale(1.3333333)"
         clip-path="url(#clipPath9-9)"
         id="path60" />
      <path
         d="M 70.945,259.281 V 243.07 h 2.285 l 5.196,8.203 c 1.199,1.899 2.14,3.606 2.91,5.266 l 0.047,-0.023 c -0.192,-2.168 -0.242,-4.137 -0.242,-6.664 v -6.782 h 1.972 v 16.211 h -2.117 l -5.144,-8.226 c -1.129,-1.805 -2.211,-3.657 -3.032,-5.41 l -0.07,0.023 c 0.121,2.043 0.168,3.992 0.168,6.687 v 6.926 z"
         style="fill:#878787;fill-opacity:1;fill-rule:nonzero;stroke:none"
         transform="scale(1.3333333)"
         clip-path="url(#clipPath10-5)"
         id="path61" />
      <path
         d="m 86.77,243.07 h 8.73 v 1.758 h -6.637 v 5.387 h 6.129 v 1.73 h -6.129 v 7.336 H 86.77 Z"
         style="fill:#878787;fill-opacity:1;fill-rule:nonzero;stroke:none"
         transform="scale(1.3333333)"
         clip-path="url(#clipPath11-6)"
         id="path62" />
      <path
         d="m 99.754,251.27 c 0,3.464 1.879,6.566 5.172,6.566 3.32,0 5.195,-3.055 5.195,-6.734 0,-3.223 -1.683,-6.586 -5.172,-6.586 -3.461,0 -5.195,3.195 -5.195,6.754 m 12.578,-0.262 c 0,5.578 -3.391,8.535 -7.527,8.535 -4.282,0 -7.285,-3.316 -7.285,-8.223 0,-5.148 3.199,-8.515 7.527,-8.515 4.426,0 7.285,3.394 7.285,8.203"
         style="fill:#878787;fill-opacity:1;fill-rule:nonzero;stroke:none"
         transform="scale(1.3333333)"
         clip-path="url(#clipPath12-6)"
         id="path63" />
      <path
         d="m 117.141,250.672 h 2.14 c 2.239,0 3.657,-1.227 3.657,-3.078 0,-2.094 -1.516,-3.008 -3.727,-3.032 -1.012,0 -1.731,0.094 -2.07,0.192 z m -2.09,-7.383 c 1.058,-0.219 2.574,-0.34 4.015,-0.34 2.239,0 3.68,0.41 4.688,1.324 0.82,0.723 1.277,1.829 1.277,3.079 0,2.14 -1.347,3.558 -3.054,4.136 v 0.071 c 1.25,0.433 1.996,1.589 2.378,3.273 0.532,2.258 0.915,3.82 1.254,4.449 h -2.168 c -0.261,-0.457 -0.625,-1.851 -1.082,-3.875 -0.48,-2.234 -1.343,-3.078 -3.246,-3.148 h -1.972 v 7.023 h -2.09 z"
         style="fill:#878787;fill-opacity:1;fill-rule:nonzero;stroke:none"
         transform="scale(1.3333333)"
         clip-path="url(#clipPath13-5)"
         id="path64" />
      <path
         d="m 141.648,252.16 c -0.121,-2.258 -0.265,-4.976 -0.242,-6.996 h -0.07 c -0.555,1.898 -1.227,3.918 -2.047,6.156 l -2.859,7.864 h -1.586 l -2.621,-7.719 c -0.77,-2.285 -1.422,-4.379 -1.879,-6.301 h -0.047 c -0.047,2.02 -0.168,4.738 -0.313,7.164 l -0.433,6.953 h -1.996 l 1.133,-16.211 h 2.667 l 2.766,7.84 c 0.672,1.996 1.227,3.778 1.637,5.461 h 0.07 c 0.41,-1.637 0.984,-3.418 1.707,-5.461 l 2.887,-7.84 h 2.668 l 1.012,16.211 h -2.047 z"
         style="fill:#878787;fill-opacity:1;fill-rule:nonzero;stroke:none"
         transform="scale(1.3333333)"
         clip-path="url(#clipPath14-9)"
         id="path65" />
      <path
         d="m 155.02,252.547 -1.59,-4.668 c -0.36,-1.055 -0.598,-2.02 -0.84,-2.957 h -0.047 c -0.242,0.961 -0.508,1.949 -0.82,2.933 l -1.586,4.692 z m -5.317,1.633 -1.683,5.097 h -2.165 l 5.508,-16.207 h 2.524 l 5.531,16.207 h -2.234 l -1.731,-5.097 z"
         style="fill:#878787;fill-opacity:1;fill-rule:nonzero;stroke:none"
         transform="scale(1.3333333)"
         clip-path="url(#clipPath15-6)"
         id="path66" />
      <path
         d="m 163.027,244.852 h -4.929 v -1.782 h 12 v 1.782 h -4.953 v 14.429 h -2.118 z"
         style="fill:#878787;fill-opacity:1;fill-rule:nonzero;stroke:none"
         transform="scale(1.3333333)"
         clip-path="url(#clipPath16-1)"
         id="path67" />
      <path
         d="m 171.902,243.07 h 2.09 v 16.211 h -2.09 z"
         style="fill:#878787;fill-opacity:1;fill-rule:nonzero;stroke:none"
         transform="scale(1.3333333)"
         clip-path="url(#clipPath17-4)"
         id="path68" />
      <path
         d="m 178.922,251.27 c 0,3.464 1.875,6.566 5.172,6.566 3.316,0 5.195,-3.055 5.195,-6.734 0,-3.223 -1.684,-6.586 -5.172,-6.586 -3.461,0 -5.195,3.195 -5.195,6.754 m 12.578,-0.262 c 0,5.578 -3.391,8.535 -7.527,8.535 -4.282,0 -7.285,-3.316 -7.285,-8.223 0,-5.148 3.199,-8.515 7.527,-8.515 4.422,0 7.285,3.394 7.285,8.203"
         style="fill:#878787;fill-opacity:1;fill-rule:nonzero;stroke:none"
         transform="scale(1.3333333)"
         clip-path="url(#clipPath18-1)"
         id="path69" />
      <path
         d="M 194.219,259.281 V 243.07 h 2.285 l 5.191,8.203 c 1.203,1.899 2.141,3.606 2.91,5.266 l 0.047,-0.023 c -0.191,-2.168 -0.238,-4.137 -0.238,-6.664 v -6.782 h 1.973 v 16.211 h -2.117 l -5.145,-8.226 c -1.133,-1.805 -2.215,-3.657 -3.031,-5.41 l -0.074,0.023 c 0.121,2.043 0.171,3.992 0.171,6.687 v 6.926 z"
         style="fill:#878787;fill-opacity:1;fill-rule:nonzero;stroke:none"
         transform="scale(1.3333333)"
         clip-path="url(#clipPath19-4)"
         id="path70" />
      <path
         d="m 208.598,262.238 c 0.531,-1.418 1.179,-3.992 1.445,-5.75 l 2.355,-0.238 c -0.554,2.043 -1.613,4.711 -2.285,5.844 z"
         style="fill:#878787;fill-opacity:1;fill-rule:nonzero;stroke:none"
         transform="scale(1.3333333)"
         clip-path="url(#clipPath20-2)"
         id="path71" />
      <path
         d="m 219.828,256.73 c 0.938,0.579 2.309,1.059 3.754,1.059 2.137,0 3.391,-1.133 3.391,-2.766 0,-1.515 -0.868,-2.382 -3.055,-3.222 -2.645,-0.938 -4.281,-2.309 -4.281,-4.594 0,-2.523 2.093,-4.402 5.242,-4.402 1.66,0 2.863,0.386 3.582,0.797 l -0.574,1.707 c -0.532,-0.289 -1.614,-0.77 -3.078,-0.77 -2.215,0 -3.055,1.32 -3.055,2.426 0,1.515 0.984,2.262 3.223,3.129 2.738,1.058 4.136,2.379 4.136,4.761 0,2.5 -1.855,4.665 -5.675,4.665 -1.567,0 -3.274,-0.458 -4.137,-1.036 z"
         style="fill:#878787;fill-opacity:1;fill-rule:nonzero;stroke:none"
         transform="scale(1.3333333)"
         clip-path="url(#clipPath21-9)"
         id="path72" />
      <path
         d="m 231.973,243.07 h 2.094 v 16.211 h -2.094 z"
         style="fill:#878787;fill-opacity:1;fill-rule:nonzero;stroke:none"
         transform="scale(1.3333333)"
         clip-path="url(#clipPath22-4)"
         id="path73" />
      <path
         d="m 250.059,258.559 c -0.938,0.336 -2.793,0.89 -4.981,0.89 -2.453,0 -4.473,-0.625 -6.058,-2.14 -1.395,-1.348 -2.262,-3.512 -2.262,-6.036 0.023,-4.835 3.344,-8.371 8.777,-8.371 1.875,0 3.344,0.41 4.043,0.746 l -0.508,1.707 c -0.863,-0.382 -1.945,-0.695 -3.582,-0.695 -3.945,0 -6.515,2.449 -6.515,6.516 0,4.113 2.476,6.539 6.25,6.539 1.371,0 2.308,-0.192 2.789,-0.43 v -4.836 h -3.293 v -1.683 h 5.34 z"
         style="fill:#878787;fill-opacity:1;fill-rule:nonzero;stroke:none"
         transform="scale(1.3333333)"
         clip-path="url(#clipPath23-6)"
         id="path74" />
      <path
         d="M 253.254,259.281 V 243.07 h 2.285 l 5.195,8.203 c 1.204,1.899 2.141,3.606 2.911,5.266 l 0.046,-0.023 c -0.191,-2.168 -0.238,-4.137 -0.238,-6.664 v -6.782 h 1.973 v 16.211 h -2.117 l -5.149,-8.226 c -1.129,-1.805 -2.211,-3.657 -3.027,-5.41 l -0.074,0.023 c 0.121,2.043 0.168,3.992 0.168,6.687 v 6.926 z"
         style="fill:#878787;fill-opacity:1;fill-rule:nonzero;stroke:none"
         transform="scale(1.3333333)"
         clip-path="url(#clipPath24-6)"
         id="path75" />
      <path
         d="m 277.016,252.547 -1.586,-4.668 c -0.364,-1.055 -0.602,-2.02 -0.844,-2.957 h -0.047 c -0.242,0.961 -0.504,1.949 -0.816,2.933 l -1.59,4.692 z m -5.317,1.633 -1.679,5.097 h -2.168 l 5.507,-16.207 h 2.528 l 5.531,16.207 h -2.238 l -1.731,-5.097 z"
         style="fill:#878787;fill-opacity:1;fill-rule:nonzero;stroke:none"
         transform="scale(1.3333333)"
         clip-path="url(#clipPath25-3)"
         id="path76" />
      <path
         d="m 283.797,243.07 h 2.094 v 14.453 h 6.925 v 1.758 h -9.019 z"
         style="fill:#878787;fill-opacity:1;fill-rule:nonzero;stroke:none"
         transform="scale(1.3333333)"
         clip-path="url(#clipPath26-4)"
         id="path77" />
      <path
         d="m 308.637,251.68 h -6.301 v 5.843 h 7.023 v 1.758 h -9.113 V 243.07 H 309 v 1.758 h -6.664 v 5.121 h 6.301 z"
         style="fill:#878787;fill-opacity:1;fill-rule:nonzero;stroke:none"
         transform="scale(1.3333333)"
         clip-path="url(#clipPath27-6)"
         id="path78" />
      <path
         d="m 315.539,244.852 h -4.93 v -1.782 h 12 v 1.782 h -4.953 v 14.429 h -2.117 z"
         style="fill:#878787;fill-opacity:1;fill-rule:nonzero;stroke:none"
         transform="scale(1.3333333)"
         clip-path="url(#clipPath28-6)"
         id="path79" />
      <path
         d="m 329.512,243.07 h 2.094 v 16.211 h -2.094 z"
         style="fill:#878787;fill-opacity:1;fill-rule:nonzero;stroke:none"
         transform="scale(1.3333333)"
         clip-path="url(#clipPath29-9)"
         id="path80" />
      <path
         d="M 335.258,259.281 V 243.07 h 2.285 l 5.195,8.203 c 1.203,1.899 2.141,3.606 2.91,5.266 l 0.047,-0.023 c -0.191,-2.168 -0.238,-4.137 -0.238,-6.664 v -6.782 h 1.973 v 16.211 h -2.118 l -5.148,-8.226 c -1.129,-1.805 -2.211,-3.657 -3.027,-5.41 l -0.075,0.023 c 0.122,2.043 0.168,3.992 0.168,6.687 v 6.926 z"
         style="fill:#878787;fill-opacity:1;fill-rule:nonzero;stroke:none"
         transform="scale(1.3333333)"
         clip-path="url(#clipPath30-7)"
         id="path81" />
      <path
         d="m 354.16,244.852 h -4.93 v -1.782 h 12 v 1.782 h -4.953 v 14.429 h -2.117 z"
         style="fill:#878787;fill-opacity:1;fill-rule:nonzero;stroke:none"
         transform="scale(1.3333333)"
         clip-path="url(#clipPath31-3)"
         id="path82" />
      <path
         d="m 371.43,251.68 h -6.301 v 5.843 h 7.019 v 1.758 h -9.113 V 243.07 h 8.754 v 1.758 h -6.66 v 5.121 h 6.301 z"
         style="fill:#878787;fill-opacity:1;fill-rule:nonzero;stroke:none"
         transform="scale(1.3333333)"
         clip-path="url(#clipPath32-1)"
         id="path83" />
      <path
         d="m 374.867,243.07 h 2.09 v 14.453 h 6.926 v 1.758 h -9.016 z"
         style="fill:#878787;fill-opacity:1;fill-rule:nonzero;stroke:none"
         transform="scale(1.3333333)"
         clip-path="url(#clipPath33-9)"
         id="path84" />
      <path
         d="m 386.219,243.07 h 2.09 v 14.453 h 6.925 v 1.758 h -9.015 z"
         style="fill:#878787;fill-opacity:1;fill-rule:nonzero;stroke:none"
         transform="scale(1.3333333)"
         clip-path="url(#clipPath34-2)"
         id="path85" />
      <path
         d="m 397.566,243.07 h 2.094 v 16.211 h -2.094 z"
         style="fill:#878787;fill-opacity:1;fill-rule:nonzero;stroke:none"
         transform="scale(1.3333333)"
         clip-path="url(#clipPath35-8)"
         id="path86" />
      <path
         d="m 415.652,258.559 c -0.937,0.336 -2.789,0.89 -4.98,0.89 -2.453,0 -4.473,-0.625 -6.059,-2.14 -1.394,-1.348 -2.261,-3.512 -2.261,-6.036 0.023,-4.835 3.343,-8.371 8.781,-8.371 1.875,0 3.34,0.41 4.039,0.746 l -0.508,1.707 c -0.863,-0.382 -1.945,-0.695 -3.582,-0.695 -3.941,0 -6.516,2.449 -6.516,6.516 0,4.113 2.477,6.539 6.25,6.539 1.372,0 2.309,-0.192 2.793,-0.43 v -4.836 h -3.297 v -1.683 h 5.34 z"
         style="fill:#878787;fill-opacity:1;fill-rule:nonzero;stroke:none"
         transform="scale(1.3333333)"
         clip-path="url(#clipPath36-8)"
         id="path87" />
      <path
         d="m 427.242,251.68 h -6.301 v 5.843 h 7.024 v 1.758 h -9.113 V 243.07 h 8.753 v 1.758 h -6.664 v 5.121 h 6.301 z"
         style="fill:#878787;fill-opacity:1;fill-rule:nonzero;stroke:none"
         transform="scale(1.3333333)"
         clip-path="url(#clipPath37-6)"
         id="path88" />
      <path
         d="M 430.684,259.281 V 243.07 h 2.281 l 5.195,8.203 c 1.203,1.899 2.141,3.606 2.91,5.266 l 0.047,-0.023 c -0.191,-2.168 -0.238,-4.137 -0.238,-6.664 v -6.782 h 1.973 v 16.211 h -2.118 l -5.148,-8.226 c -1.129,-1.805 -2.211,-3.657 -3.027,-5.41 l -0.075,0.023 c 0.121,2.043 0.168,3.992 0.168,6.687 v 6.926 z"
         style="fill:#878787;fill-opacity:1;fill-rule:nonzero;stroke:none"
         transform="scale(1.3333333)"
         clip-path="url(#clipPath38-6)"
         id="path89" />
      <path
         d="m 457.832,258.75 c -0.77,0.387 -2.309,0.77 -4.281,0.77 -4.571,0 -8.008,-2.887 -8.008,-8.2 0,-5.074 3.437,-8.515 8.465,-8.515 2.019,0 3.297,0.433 3.847,0.722 l -0.503,1.707 c -0.793,-0.382 -1.926,-0.672 -3.27,-0.672 -3.801,0 -6.328,2.43 -6.328,6.684 0,3.969 2.285,6.52 6.23,6.52 1.274,0 2.575,-0.266 3.414,-0.676 z"
         style="fill:#878787;fill-opacity:1;fill-rule:nonzero;stroke:none"
         transform="scale(1.3333333)"
         clip-path="url(#clipPath39-7)"
         id="path90" />
      <path
         d="m 468.848,251.68 h -6.301 v 5.843 h 7.019 v 1.758 h -9.113 V 243.07 h 8.754 v 1.758 h -6.66 v 5.121 h 6.301 z"
         style="fill:#878787;fill-opacity:1;fill-rule:nonzero;stroke:none"
         transform="scale(1.3333333)"
         clip-path="url(#clipPath40-7)"
         id="path91" />
      <path
         d="m 485.32,252.547 -1.59,-4.668 c -0.359,-1.055 -0.601,-2.02 -0.839,-2.957 h -0.051 c -0.238,0.961 -0.504,1.949 -0.817,2.933 l -1.585,4.692 z m -5.316,1.633 -1.684,5.097 h -2.164 l 5.508,-16.207 h 2.524 l 5.531,16.207 h -2.235 l -1.73,-5.097 z"
         style="fill:#878787;fill-opacity:1;fill-rule:nonzero;stroke:none"
         transform="scale(1.3333333)"
         clip-path="url(#clipPath41-5)"
         id="path92" />
      <path
         d="m 494.191,250.672 h 2.141 c 2.238,0 3.656,-1.227 3.656,-3.078 0,-2.094 -1.515,-3.008 -3.726,-3.032 -1.012,0 -1.731,0.094 -2.071,0.192 z m -2.089,-7.383 c 1.058,-0.219 2.57,-0.34 4.015,-0.34 2.235,0 3.68,0.41 4.688,1.324 0.82,0.723 1.277,1.829 1.277,3.079 0,2.14 -1.348,3.558 -3.055,4.136 v 0.071 c 1.25,0.433 1.996,1.589 2.379,3.273 0.532,2.258 0.914,3.82 1.25,4.449 h -2.164 c -0.262,-0.457 -0.625,-1.851 -1.082,-3.875 -0.48,-2.234 -1.344,-3.078 -3.246,-3.148 h -1.973 v 7.023 h -2.089 z"
         style="fill:#878787;fill-opacity:1;fill-rule:nonzero;stroke:none"
         transform="scale(1.3333333)"
         clip-path="url(#clipPath42-4)"
         id="path93" />
      <path
         d="m 508.332,244.852 h -4.93 v -1.782 h 12 v 1.782 h -4.953 v 14.429 h -2.117 z"
         style="fill:#878787;fill-opacity:1;fill-rule:nonzero;stroke:none"
         transform="scale(1.3333333)"
         clip-path="url(#clipPath43-0)"
         id="path94" />
      <path
         d="m 517.207,243.07 h 2.094 v 16.211 h -2.094 z"
         style="fill:#878787;fill-opacity:1;fill-rule:nonzero;stroke:none"
         transform="scale(1.3333333)"
         clip-path="url(#clipPath44-1)"
         id="path95" />
      <path
         d="m 522.953,243.07 h 8.731 v 1.758 h -6.637 v 5.387 h 6.133 v 1.73 h -6.133 v 7.336 h -2.094 z"
         style="fill:#878787;fill-opacity:1;fill-rule:nonzero;stroke:none"
         transform="scale(1.3333333)"
         clip-path="url(#clipPath45-3)"
         id="path96" />
      <path
         d="m 534.668,243.07 h 2.09 v 16.211 h -2.09 z"
         style="fill:#878787;fill-opacity:1;fill-rule:nonzero;stroke:none"
         transform="scale(1.3333333)"
         clip-path="url(#clipPath46-9)"
         id="path97" />
      <path
         d="m 551.742,258.75 c -0.769,0.387 -2.308,0.77 -4.281,0.77 -4.57,0 -8.008,-2.887 -8.008,-8.2 0,-5.074 3.438,-8.515 8.465,-8.515 2.02,0 3.293,0.433 3.848,0.722 l -0.504,1.707 c -0.797,-0.382 -1.926,-0.672 -3.274,-0.672 -3.797,0 -6.324,2.43 -6.324,6.684 0,3.969 2.285,6.52 6.231,6.52 1.273,0 2.57,-0.266 3.414,-0.676 z"
         style="fill:#878787;fill-opacity:1;fill-rule:nonzero;stroke:none"
         transform="scale(1.3333333)"
         clip-path="url(#clipPath47-6)"
         id="path98" />
      <path
         d="m 554.363,243.07 h 2.09 v 16.211 h -2.09 z"
         style="fill:#878787;fill-opacity:1;fill-rule:nonzero;stroke:none"
         transform="scale(1.3333333)"
         clip-path="url(#clipPath48-6)"
         id="path99" />
      <path
         d="m 568.504,251.68 h -6.301 v 5.843 h 7.02 v 1.758 h -9.114 V 243.07 h 8.754 v 1.758 h -6.66 v 5.121 h 6.301 z"
         style="fill:#878787;fill-opacity:1;fill-rule:nonzero;stroke:none"
         transform="scale(1.3333333)"
         clip-path="url(#clipPath49-1)"
         id="path100" />
      <path
         d="m 571.941,243.07 h 2.094 v 14.453 h 6.926 v 1.758 h -9.02 z"
         style="fill:#878787;fill-opacity:1;fill-rule:nonzero;stroke:none"
         transform="scale(1.3333333)"
         clip-path="url(#clipPath50-6)"
         id="path101" />
      <path
         d="m 583.293,243.07 h 2.09 v 14.453 h 6.926 v 1.758 h -9.016 z"
         style="fill:#878787;fill-opacity:1;fill-rule:nonzero;stroke:none"
         transform="scale(1.3333333)"
         clip-path="url(#clipPath51-1)"
         id="path102" />
      <path
         d="m 603.035,251.68 h -6.301 v 5.843 h 7.024 v 1.758 h -9.117 V 243.07 h 8.754 v 1.758 h -6.661 v 5.121 h 6.301 z"
         style="fill:#878787;fill-opacity:1;fill-rule:nonzero;stroke:none"
         transform="scale(1.3333333)"
         clip-path="url(#clipPath52-9)"
         id="path103" />
    </g>
  </g>
</svg>
